G04 #@! TF.GenerationSoftware,KiCad,Pcbnew,(7.0.0)*
G04 #@! TF.CreationDate,2025-08-06T12:48:58-07:00*
G04 #@! TF.ProjectId,HybridBoxNew,48796272-6964-4426-9f78-4e65772e6b69,rev?*
G04 #@! TF.SameCoordinates,Original*
G04 #@! TF.FileFunction,Soldermask,Bot*
G04 #@! TF.FilePolarity,Negative*
%FSLAX46Y46*%
G04 Gerber Fmt 4.6, Leading zero omitted, Abs format (unit mm)*
G04 Created by KiCad (PCBNEW (7.0.0)) date 2025-08-06 12:48:58*
%MOMM*%
%LPD*%
G01*
G04 APERTURE LIST*
G04 Aperture macros list*
%AMRoundRect*
0 Rectangle with rounded corners*
0 $1 Rounding radius*
0 $2 $3 $4 $5 $6 $7 $8 $9 X,Y pos of 4 corners*
0 Add a 4 corners polygon primitive as box body*
4,1,4,$2,$3,$4,$5,$6,$7,$8,$9,$2,$3,0*
0 Add four circle primitives for the rounded corners*
1,1,$1+$1,$2,$3*
1,1,$1+$1,$4,$5*
1,1,$1+$1,$6,$7*
1,1,$1+$1,$8,$9*
0 Add four rect primitives between the rounded corners*
20,1,$1+$1,$2,$3,$4,$5,0*
20,1,$1+$1,$4,$5,$6,$7,0*
20,1,$1+$1,$6,$7,$8,$9,0*
20,1,$1+$1,$8,$9,$2,$3,0*%
G04 Aperture macros list end*
%ADD10C,3.800000*%
%ADD11C,1.750000*%
%ADD12C,3.987800*%
%ADD13C,2.300000*%
%ADD14C,5.600000*%
%ADD15R,1.700000X1.700000*%
%ADD16O,1.700000X1.700000*%
%ADD17C,3.300000*%
%ADD18RoundRect,0.300000X1.200000X1.275000X-1.200000X1.275000X-1.200000X-1.275000X1.200000X-1.275000X0*%
%ADD19RoundRect,0.140000X0.170000X-0.140000X0.170000X0.140000X-0.170000X0.140000X-0.170000X-0.140000X0*%
%ADD20RoundRect,0.140000X0.140000X0.170000X-0.140000X0.170000X-0.140000X-0.170000X0.140000X-0.170000X0*%
%ADD21RoundRect,0.140000X-0.170000X0.140000X-0.170000X-0.140000X0.170000X-0.140000X0.170000X0.140000X0*%
%ADD22RoundRect,0.200000X0.275000X-0.200000X0.275000X0.200000X-0.275000X0.200000X-0.275000X-0.200000X0*%
%ADD23RoundRect,0.140000X-0.140000X-0.170000X0.140000X-0.170000X0.140000X0.170000X-0.140000X0.170000X0*%
%ADD24R,0.300000X1.300000*%
%ADD25R,1.729997X2.600000*%
%ADD26RoundRect,0.243750X-0.243750X-0.456250X0.243750X-0.456250X0.243750X0.456250X-0.243750X0.456250X0*%
%ADD27RoundRect,0.050000X0.387500X0.050000X-0.387500X0.050000X-0.387500X-0.050000X0.387500X-0.050000X0*%
%ADD28RoundRect,0.050000X0.050000X0.387500X-0.050000X0.387500X-0.050000X-0.387500X0.050000X-0.387500X0*%
%ADD29RoundRect,0.144000X1.456000X1.456000X-1.456000X1.456000X-1.456000X-1.456000X1.456000X-1.456000X0*%
%ADD30RoundRect,0.200000X0.200000X0.275000X-0.200000X0.275000X-0.200000X-0.275000X0.200000X-0.275000X0*%
%ADD31R,1.400000X1.200000*%
%ADD32RoundRect,0.225000X0.225000X0.375000X-0.225000X0.375000X-0.225000X-0.375000X0.225000X-0.375000X0*%
%ADD33RoundRect,0.150000X0.150000X-0.587500X0.150000X0.587500X-0.150000X0.587500X-0.150000X-0.587500X0*%
%ADD34RoundRect,0.135000X0.135000X0.185000X-0.135000X0.185000X-0.135000X-0.185000X0.135000X-0.185000X0*%
%ADD35RoundRect,0.200000X-0.275000X0.200000X-0.275000X-0.200000X0.275000X-0.200000X0.275000X0.200000X0*%
%ADD36RoundRect,0.135000X-0.135000X-0.185000X0.135000X-0.185000X0.135000X0.185000X-0.135000X0.185000X0*%
%ADD37RoundRect,0.150000X0.650000X0.150000X-0.650000X0.150000X-0.650000X-0.150000X0.650000X-0.150000X0*%
%ADD38RoundRect,0.135000X0.185000X-0.135000X0.185000X0.135000X-0.185000X0.135000X-0.185000X-0.135000X0*%
%ADD39RoundRect,0.140000X-0.021213X0.219203X-0.219203X0.021213X0.021213X-0.219203X0.219203X-0.021213X0*%
G04 APERTURE END LIST*
D10*
X198035000Y-107130000D03*
X318035000Y-107130000D03*
D11*
X253422967Y-92263373D03*
D12*
X248342967Y-92263373D03*
D11*
X243262967Y-92263373D03*
D13*
X252152967Y-94803373D03*
X245802967Y-97343373D03*
D10*
X303755000Y-152170000D03*
X268035000Y-107130000D03*
D11*
X235748565Y-117478960D03*
D12*
X230668565Y-117478960D03*
D11*
X225588565Y-117478960D03*
D13*
X234478565Y-120018960D03*
X228128565Y-122558960D03*
D10*
X190860000Y-161150000D03*
D11*
X242819837Y-142601357D03*
D12*
X237739837Y-142601357D03*
D11*
X232659837Y-142601357D03*
D13*
X241549837Y-145141357D03*
X235199837Y-147681357D03*
D14*
X216140000Y-37670000D03*
D11*
X269036859Y-48144517D03*
D12*
X263956859Y-48144517D03*
D11*
X258876859Y-48144517D03*
D13*
X267766859Y-50684517D03*
X261416859Y-53224517D03*
D11*
X304091667Y-69348545D03*
D12*
X299011667Y-69348545D03*
D11*
X293931667Y-69348545D03*
D13*
X302821667Y-71888545D03*
X296471667Y-74428545D03*
D11*
X216916182Y-133583438D03*
D12*
X211836182Y-133583438D03*
D11*
X206756182Y-133583438D03*
D13*
X215646182Y-136123438D03*
X209296182Y-138663438D03*
D11*
X275932853Y-73813729D03*
D12*
X270852853Y-73813729D03*
D11*
X265772853Y-73813729D03*
D13*
X274662853Y-76353729D03*
X268312853Y-78893729D03*
D11*
X297195673Y-43679333D03*
D12*
X292115673Y-43679333D03*
D11*
X287035673Y-43679333D03*
D13*
X295925673Y-46219333D03*
X289575673Y-48759333D03*
D11*
X260715123Y-121847547D03*
D12*
X255635123Y-121847547D03*
D11*
X250555123Y-121847547D03*
D13*
X259445123Y-124387547D03*
X253095123Y-126927547D03*
D11*
X219987454Y-160705835D03*
D12*
X214907454Y-160705835D03*
D11*
X209827454Y-160705835D03*
D13*
X218717454Y-163245835D03*
X212367454Y-165785835D03*
D15*
X221299999Y-69004999D03*
D16*
X221299999Y-66464999D03*
D10*
X303820000Y-55683383D03*
X190860000Y-42610000D03*
D11*
X246527232Y-66595127D03*
D12*
X241447232Y-66595127D03*
D11*
X236367232Y-66595127D03*
D13*
X245257232Y-69135127D03*
X238907232Y-71675127D03*
D11*
X333571562Y-78051119D03*
D12*
X328491562Y-78051119D03*
D11*
X323411562Y-78051119D03*
D13*
X332301562Y-80591119D03*
X325951562Y-83131119D03*
D11*
X326675568Y-52381907D03*
D12*
X321595568Y-52381907D03*
D11*
X316515568Y-52381907D03*
D13*
X325405568Y-54921907D03*
X319055568Y-57461907D03*
D14*
X198140000Y-37670000D03*
D11*
X216916182Y-133583438D03*
D12*
X211836182Y-133583438D03*
D11*
X206756182Y-133583438D03*
D17*
X208026182Y-131043438D03*
D18*
X204176182Y-131043438D03*
X218226182Y-128503438D03*
D17*
X214376182Y-128503438D03*
D19*
X203555250Y-64506018D03*
X203555250Y-63546018D03*
D11*
X246527232Y-66595127D03*
D12*
X241447232Y-66595127D03*
D11*
X236367232Y-66595127D03*
D17*
X237637232Y-64055127D03*
D18*
X233787232Y-64055127D03*
X247837232Y-61515127D03*
D17*
X243987232Y-61515127D03*
D19*
X209140000Y-62150000D03*
X209140000Y-61190000D03*
D11*
X260715123Y-121847547D03*
D12*
X255635123Y-121847547D03*
D11*
X250555123Y-121847547D03*
D17*
X251825123Y-119307547D03*
D18*
X247975123Y-119307547D03*
X262025123Y-116767547D03*
D17*
X258175123Y-116767547D03*
D20*
X201340000Y-65280250D03*
X200380000Y-65280250D03*
D21*
X204924000Y-77373250D03*
X204924000Y-78333250D03*
D22*
X190347000Y-65795000D03*
X190347000Y-64145000D03*
D23*
X216160000Y-67670000D03*
X217120000Y-67670000D03*
D24*
X233355113Y-78008514D03*
X232854986Y-78008514D03*
X232355113Y-78008514D03*
X231854986Y-78008514D03*
X231355113Y-78008514D03*
X230854986Y-78008514D03*
X230355113Y-78008514D03*
X229854986Y-78008514D03*
X229355113Y-78008514D03*
X228854986Y-78008514D03*
X228355113Y-78008514D03*
X227854986Y-78008514D03*
D25*
X225920010Y-74928504D03*
X235290089Y-74928504D03*
D11*
X304091667Y-69348545D03*
D12*
X299011667Y-69348545D03*
D11*
X293931667Y-69348545D03*
D17*
X295201667Y-66808545D03*
D18*
X291351667Y-66808545D03*
X305401667Y-64268545D03*
D17*
X301551667Y-64268545D03*
D19*
X204571250Y-64506018D03*
X204571250Y-63546018D03*
D21*
X206448000Y-77373250D03*
X206448000Y-78333250D03*
D11*
X297195673Y-43679333D03*
D12*
X292115673Y-43679333D03*
D11*
X287035673Y-43679333D03*
D17*
X288305673Y-41139333D03*
D18*
X284455673Y-41139333D03*
X298505673Y-38599333D03*
D17*
X294655673Y-38599333D03*
D19*
X218300000Y-56875000D03*
X218300000Y-55915000D03*
D26*
X188492000Y-68720000D03*
X190367000Y-68720000D03*
D23*
X199517000Y-61470000D03*
X200477000Y-61470000D03*
D19*
X206349250Y-81905018D03*
X206349250Y-80945018D03*
D27*
X210774500Y-67665000D03*
X210774500Y-68065000D03*
X210774500Y-68465000D03*
X210774500Y-68865000D03*
X210774500Y-69265000D03*
X210774500Y-69665000D03*
X210774500Y-70065000D03*
X210774500Y-70465000D03*
X210774500Y-70865000D03*
X210774500Y-71265000D03*
X210774500Y-71665000D03*
X210774500Y-72065000D03*
X210774500Y-72465000D03*
X210774500Y-72865000D03*
D28*
X209937000Y-73702500D03*
X209537000Y-73702500D03*
X209137000Y-73702500D03*
X208737000Y-73702500D03*
X208337000Y-73702500D03*
X207937000Y-73702500D03*
X207537000Y-73702500D03*
X207137000Y-73702500D03*
X206737000Y-73702500D03*
X206337000Y-73702500D03*
X205937000Y-73702500D03*
X205537000Y-73702500D03*
X205137000Y-73702500D03*
X204737000Y-73702500D03*
D27*
X203899500Y-72865000D03*
X203899500Y-72465000D03*
X203899500Y-72065000D03*
X203899500Y-71665000D03*
X203899500Y-71265000D03*
X203899500Y-70865000D03*
X203899500Y-70465000D03*
X203899500Y-70065000D03*
X203899500Y-69665000D03*
X203899500Y-69265000D03*
X203899500Y-68865000D03*
X203899500Y-68465000D03*
X203899500Y-68065000D03*
X203899500Y-67665000D03*
D28*
X204737000Y-66827500D03*
X205137000Y-66827500D03*
X205537000Y-66827500D03*
X205937000Y-66827500D03*
X206337000Y-66827500D03*
X206737000Y-66827500D03*
X207137000Y-66827500D03*
X207537000Y-66827500D03*
X207937000Y-66827500D03*
X208337000Y-66827500D03*
X208737000Y-66827500D03*
X209137000Y-66827500D03*
X209537000Y-66827500D03*
X209937000Y-66827500D03*
D29*
X207337000Y-70265000D03*
D30*
X207190000Y-59980000D03*
X205540000Y-59980000D03*
D31*
X208522999Y-80559249D03*
X210722999Y-80559249D03*
X210722999Y-82259249D03*
X208522999Y-82259249D03*
D11*
X275932853Y-73813729D03*
D12*
X270852853Y-73813729D03*
D11*
X265772853Y-73813729D03*
D17*
X267042853Y-71273729D03*
D18*
X263192853Y-71273729D03*
X277242853Y-68733729D03*
D17*
X273392853Y-68733729D03*
D30*
X207900000Y-61480000D03*
X206250000Y-61480000D03*
D32*
X197790000Y-60670000D03*
X194490000Y-60670000D03*
D33*
X196090000Y-58045000D03*
X194190000Y-58045000D03*
X195140000Y-56170000D03*
D11*
X235748565Y-117478960D03*
D12*
X230668565Y-117478960D03*
D11*
X225588565Y-117478960D03*
D17*
X226858565Y-114938960D03*
D18*
X223008565Y-114938960D03*
X237058565Y-112398960D03*
D17*
X233208565Y-112398960D03*
D34*
X192567000Y-68730000D03*
X191547000Y-68730000D03*
D24*
X210087113Y-57805004D03*
X209586986Y-57805004D03*
X209087113Y-57805004D03*
X208586986Y-57805004D03*
X208087113Y-57805004D03*
X207586986Y-57805004D03*
X207087113Y-57805004D03*
X206586986Y-57805004D03*
X206087113Y-57805004D03*
X205586986Y-57805004D03*
X205087113Y-57805004D03*
X204586986Y-57805004D03*
D25*
X202652010Y-54724994D03*
X212022089Y-54724994D03*
D35*
X191887000Y-64150000D03*
X191887000Y-65800000D03*
D11*
X269036859Y-48144517D03*
D12*
X263956859Y-48144517D03*
D11*
X258876859Y-48144517D03*
D17*
X260146859Y-45604517D03*
D18*
X256296859Y-45604517D03*
X270346859Y-43064517D03*
D17*
X266496859Y-43064517D03*
D11*
X242819837Y-142601357D03*
D12*
X237739837Y-142601357D03*
D11*
X232659837Y-142601357D03*
D17*
X233929837Y-140061357D03*
D18*
X230079837Y-140061357D03*
X244129837Y-137521357D03*
D17*
X240279837Y-137521357D03*
D11*
X253422967Y-92263373D03*
D12*
X248342967Y-92263373D03*
D11*
X243262967Y-92263373D03*
D17*
X244532967Y-89723373D03*
D18*
X240682967Y-89723373D03*
X254732967Y-87183373D03*
D17*
X250882967Y-87183373D03*
D11*
X219987454Y-160705835D03*
D12*
X214907454Y-160705835D03*
D11*
X209827454Y-160705835D03*
D17*
X211097454Y-158165835D03*
D18*
X207247454Y-158165835D03*
X221297454Y-155625835D03*
D17*
X217447454Y-155625835D03*
D20*
X196120000Y-54670000D03*
X195160000Y-54670000D03*
D11*
X333571562Y-78051119D03*
D12*
X328491562Y-78051119D03*
D11*
X323411562Y-78051119D03*
D17*
X324681562Y-75511119D03*
D18*
X320831562Y-75511119D03*
X334881562Y-72971119D03*
D17*
X331031562Y-72971119D03*
D20*
X200477000Y-62670000D03*
X199517000Y-62670000D03*
D19*
X215861000Y-62712250D03*
X215861000Y-61752250D03*
D20*
X201340000Y-66804250D03*
X200380000Y-66804250D03*
D36*
X223220000Y-66475000D03*
X224240000Y-66475000D03*
D21*
X213052000Y-81199018D03*
X213052000Y-82159018D03*
D37*
X227067000Y-57015000D03*
X227067000Y-58285000D03*
X227067000Y-59555000D03*
X227067000Y-60825000D03*
X219867000Y-60825000D03*
X219867000Y-59555000D03*
X219867000Y-58285000D03*
X219867000Y-57015000D03*
D38*
X208480000Y-78363250D03*
X208480000Y-77343250D03*
D39*
X200641152Y-72446847D03*
X199962330Y-73125669D03*
D11*
X326675568Y-52381907D03*
D12*
X321595568Y-52381907D03*
D11*
X316515568Y-52381907D03*
D17*
X317785568Y-49841907D03*
D18*
X313935568Y-49841907D03*
X327985568Y-47301907D03*
D17*
X324135568Y-47301907D03*
M02*
