G04 #@! TF.GenerationSoftware,KiCad,Pcbnew,(7.0.0)*
G04 #@! TF.CreationDate,2025-08-06T12:48:58-07:00*
G04 #@! TF.ProjectId,HybridBoxNew,48796272-6964-4426-9f78-4e65772e6b69,rev?*
G04 #@! TF.SameCoordinates,Original*
G04 #@! TF.FileFunction,Paste,Bot*
G04 #@! TF.FilePolarity,Positive*
%FSLAX46Y46*%
G04 Gerber Fmt 4.6, Leading zero omitted, Abs format (unit mm)*
G04 Created by KiCad (PCBNEW (7.0.0)) date 2025-08-06 12:48:58*
%MOMM*%
%LPD*%
G01*
G04 APERTURE LIST*
G04 Aperture macros list*
%AMRoundRect*
0 Rectangle with rounded corners*
0 $1 Rounding radius*
0 $2 $3 $4 $5 $6 $7 $8 $9 X,Y pos of 4 corners*
0 Add a 4 corners polygon primitive as box body*
4,1,4,$2,$3,$4,$5,$6,$7,$8,$9,$2,$3,0*
0 Add four circle primitives for the rounded corners*
1,1,$1+$1,$2,$3*
1,1,$1+$1,$4,$5*
1,1,$1+$1,$6,$7*
1,1,$1+$1,$8,$9*
0 Add four rect primitives between the rounded corners*
20,1,$1+$1,$2,$3,$4,$5,0*
20,1,$1+$1,$4,$5,$6,$7,0*
20,1,$1+$1,$6,$7,$8,$9,0*
20,1,$1+$1,$8,$9,$2,$3,0*%
G04 Aperture macros list end*
%ADD10RoundRect,0.300000X1.200000X1.275000X-1.200000X1.275000X-1.200000X-1.275000X1.200000X-1.275000X0*%
%ADD11RoundRect,0.140000X0.170000X-0.140000X0.170000X0.140000X-0.170000X0.140000X-0.170000X-0.140000X0*%
%ADD12RoundRect,0.140000X0.140000X0.170000X-0.140000X0.170000X-0.140000X-0.170000X0.140000X-0.170000X0*%
%ADD13RoundRect,0.140000X-0.170000X0.140000X-0.170000X-0.140000X0.170000X-0.140000X0.170000X0.140000X0*%
%ADD14RoundRect,0.200000X0.275000X-0.200000X0.275000X0.200000X-0.275000X0.200000X-0.275000X-0.200000X0*%
%ADD15RoundRect,0.140000X-0.140000X-0.170000X0.140000X-0.170000X0.140000X0.170000X-0.140000X0.170000X0*%
%ADD16R,0.300000X1.300000*%
%ADD17R,1.729997X2.600000*%
%ADD18RoundRect,0.243750X-0.243750X-0.456250X0.243750X-0.456250X0.243750X0.456250X-0.243750X0.456250X0*%
%ADD19RoundRect,0.250000X0.292217X0.292217X-0.292217X0.292217X-0.292217X-0.292217X0.292217X-0.292217X0*%
%ADD20RoundRect,0.050000X0.387500X0.050000X-0.387500X0.050000X-0.387500X-0.050000X0.387500X-0.050000X0*%
%ADD21RoundRect,0.050000X0.050000X0.387500X-0.050000X0.387500X-0.050000X-0.387500X0.050000X-0.387500X0*%
%ADD22RoundRect,0.200000X0.200000X0.275000X-0.200000X0.275000X-0.200000X-0.275000X0.200000X-0.275000X0*%
%ADD23R,1.400000X1.200000*%
%ADD24RoundRect,0.225000X0.225000X0.375000X-0.225000X0.375000X-0.225000X-0.375000X0.225000X-0.375000X0*%
%ADD25RoundRect,0.150000X0.150000X-0.587500X0.150000X0.587500X-0.150000X0.587500X-0.150000X-0.587500X0*%
%ADD26RoundRect,0.135000X0.135000X0.185000X-0.135000X0.185000X-0.135000X-0.185000X0.135000X-0.185000X0*%
%ADD27RoundRect,0.200000X-0.275000X0.200000X-0.275000X-0.200000X0.275000X-0.200000X0.275000X0.200000X0*%
%ADD28RoundRect,0.135000X-0.135000X-0.185000X0.135000X-0.185000X0.135000X0.185000X-0.135000X0.185000X0*%
%ADD29RoundRect,0.150000X0.650000X0.150000X-0.650000X0.150000X-0.650000X-0.150000X0.650000X-0.150000X0*%
%ADD30RoundRect,0.135000X0.185000X-0.135000X0.185000X0.135000X-0.185000X0.135000X-0.185000X-0.135000X0*%
%ADD31RoundRect,0.140000X-0.021213X0.219203X-0.219203X0.021213X0.021213X-0.219203X0.219203X-0.021213X0*%
G04 APERTURE END LIST*
D10*
X204176182Y-131043438D03*
X218226182Y-128503438D03*
D11*
X203555250Y-64506018D03*
X203555250Y-63546018D03*
D10*
X233787232Y-64055127D03*
X247837232Y-61515127D03*
D11*
X209140000Y-62150000D03*
X209140000Y-61190000D03*
D10*
X247975123Y-119307547D03*
X262025123Y-116767547D03*
D12*
X201340000Y-65280250D03*
X200380000Y-65280250D03*
D13*
X204924000Y-77373250D03*
X204924000Y-78333250D03*
D14*
X190347000Y-65795000D03*
X190347000Y-64145000D03*
D15*
X216160000Y-67670000D03*
X217120000Y-67670000D03*
D16*
X233355113Y-78008514D03*
X232854986Y-78008514D03*
X232355113Y-78008514D03*
X231854986Y-78008514D03*
X231355113Y-78008514D03*
X230854986Y-78008514D03*
X230355113Y-78008514D03*
X229854986Y-78008514D03*
X229355113Y-78008514D03*
X228854986Y-78008514D03*
X228355113Y-78008514D03*
X227854986Y-78008514D03*
D17*
X225920010Y-74928504D03*
X235290089Y-74928504D03*
D10*
X291351667Y-66808545D03*
X305401667Y-64268545D03*
D11*
X204571250Y-64506018D03*
X204571250Y-63546018D03*
D13*
X206448000Y-77373250D03*
X206448000Y-78333250D03*
D10*
X284455673Y-41139333D03*
X298505673Y-38599333D03*
D11*
X218300000Y-56875000D03*
X218300000Y-55915000D03*
D18*
X188492000Y-68720000D03*
X190367000Y-68720000D03*
D15*
X199517000Y-61470000D03*
X200477000Y-61470000D03*
D11*
X206349250Y-81905018D03*
X206349250Y-80945018D03*
D19*
X207974500Y-70902500D03*
X207974500Y-69627500D03*
X206699500Y-70902500D03*
X206699500Y-69627500D03*
D20*
X210774500Y-67665000D03*
X210774500Y-68065000D03*
X210774500Y-68465000D03*
X210774500Y-68865000D03*
X210774500Y-69265000D03*
X210774500Y-69665000D03*
X210774500Y-70065000D03*
X210774500Y-70465000D03*
X210774500Y-70865000D03*
X210774500Y-71265000D03*
X210774500Y-71665000D03*
X210774500Y-72065000D03*
X210774500Y-72465000D03*
X210774500Y-72865000D03*
D21*
X209937000Y-73702500D03*
X209537000Y-73702500D03*
X209137000Y-73702500D03*
X208737000Y-73702500D03*
X208337000Y-73702500D03*
X207937000Y-73702500D03*
X207537000Y-73702500D03*
X207137000Y-73702500D03*
X206737000Y-73702500D03*
X206337000Y-73702500D03*
X205937000Y-73702500D03*
X205537000Y-73702500D03*
X205137000Y-73702500D03*
X204737000Y-73702500D03*
D20*
X203899500Y-72865000D03*
X203899500Y-72465000D03*
X203899500Y-72065000D03*
X203899500Y-71665000D03*
X203899500Y-71265000D03*
X203899500Y-70865000D03*
X203899500Y-70465000D03*
X203899500Y-70065000D03*
X203899500Y-69665000D03*
X203899500Y-69265000D03*
X203899500Y-68865000D03*
X203899500Y-68465000D03*
X203899500Y-68065000D03*
X203899500Y-67665000D03*
D21*
X204737000Y-66827500D03*
X205137000Y-66827500D03*
X205537000Y-66827500D03*
X205937000Y-66827500D03*
X206337000Y-66827500D03*
X206737000Y-66827500D03*
X207137000Y-66827500D03*
X207537000Y-66827500D03*
X207937000Y-66827500D03*
X208337000Y-66827500D03*
X208737000Y-66827500D03*
X209137000Y-66827500D03*
X209537000Y-66827500D03*
X209937000Y-66827500D03*
D22*
X207190000Y-59980000D03*
X205540000Y-59980000D03*
D23*
X208522999Y-80559249D03*
X210722999Y-80559249D03*
X210722999Y-82259249D03*
X208522999Y-82259249D03*
D10*
X263192853Y-71273729D03*
X277242853Y-68733729D03*
D22*
X207900000Y-61480000D03*
X206250000Y-61480000D03*
D24*
X197790000Y-60670000D03*
X194490000Y-60670000D03*
D25*
X196090000Y-58045000D03*
X194190000Y-58045000D03*
X195140000Y-56170000D03*
D10*
X223008565Y-114938960D03*
X237058565Y-112398960D03*
D26*
X192567000Y-68730000D03*
X191547000Y-68730000D03*
D16*
X210087113Y-57805004D03*
X209586986Y-57805004D03*
X209087113Y-57805004D03*
X208586986Y-57805004D03*
X208087113Y-57805004D03*
X207586986Y-57805004D03*
X207087113Y-57805004D03*
X206586986Y-57805004D03*
X206087113Y-57805004D03*
X205586986Y-57805004D03*
X205087113Y-57805004D03*
X204586986Y-57805004D03*
D17*
X202652010Y-54724994D03*
X212022089Y-54724994D03*
D27*
X191887000Y-64150000D03*
X191887000Y-65800000D03*
D10*
X256296859Y-45604517D03*
X270346859Y-43064517D03*
X230079837Y-140061357D03*
X244129837Y-137521357D03*
X240682967Y-89723373D03*
X254732967Y-87183373D03*
X207247454Y-158165835D03*
X221297454Y-155625835D03*
D12*
X196120000Y-54670000D03*
X195160000Y-54670000D03*
D10*
X320831562Y-75511119D03*
X334881562Y-72971119D03*
D12*
X200477000Y-62670000D03*
X199517000Y-62670000D03*
D11*
X215861000Y-62712250D03*
X215861000Y-61752250D03*
D12*
X201340000Y-66804250D03*
X200380000Y-66804250D03*
D28*
X223220000Y-66475000D03*
X224240000Y-66475000D03*
D13*
X213052000Y-81199018D03*
X213052000Y-82159018D03*
D29*
X227067000Y-57015000D03*
X227067000Y-58285000D03*
X227067000Y-59555000D03*
X227067000Y-60825000D03*
X219867000Y-60825000D03*
X219867000Y-59555000D03*
X219867000Y-58285000D03*
X219867000Y-57015000D03*
D30*
X208480000Y-78363250D03*
X208480000Y-77343250D03*
D31*
X200641152Y-72446847D03*
X199962330Y-73125669D03*
D10*
X313935568Y-49841907D03*
X327985568Y-47301907D03*
M02*
