%TF.GenerationSoftware,KiCad,Pcbnew,(7.0.0)*%
%TF.CreationDate,2025-08-06T12:49:00-07:00*%
%TF.ProjectId,HybridBoxNew,48796272-6964-4426-9f78-4e65772e6b69,rev?*%
%TF.SameCoordinates,Original*%
%TF.FileFunction,Drillmap*%
%TF.FilePolarity,Positive*%
%FSLAX45Y45*%
G04 Gerber Fmt 4.5, Leading zero omitted, Abs format (unit mm)*
G04 Created by KiCad (PCBNEW (7.0.0)) date 2025-08-06 12:49:00*
%MOMM*%
%LPD*%
G01*
G04 APERTURE LIST*
%ADD10C,0.100000*%
%ADD11C,0.200000*%
%ADD12C,0.175000*%
%ADD13C,0.398780*%
G04 APERTURE END LIST*
D10*
X25351876Y-5216006D02*
G75*
G03*
X25386876Y-5181000I-6J35006D01*
G01*
D11*
X21369000Y-5089000D02*
G75*
G03*
X21329000Y-5049000I-40000J0D01*
G01*
D10*
X18612000Y-4502000D02*
X18612000Y-15874000D01*
X33882000Y-4502000D02*
X33882000Y-15874000D01*
X19737000Y-16999000D02*
X32757000Y-16999000D01*
D11*
X21329000Y-5242000D02*
G75*
G03*
X21369000Y-5202000I0J40000D01*
G01*
X20141000Y-5049000D02*
G75*
G03*
X20101000Y-5089000I0J-40000D01*
G01*
X20101000Y-5202000D02*
X20101000Y-5089000D01*
D10*
X25386876Y-5181000D02*
X25383500Y-3412748D01*
D11*
X20101000Y-5202000D02*
G75*
G03*
X20141000Y-5242000I40000J0D01*
G01*
X21329000Y-5242000D02*
X20141000Y-5242000D01*
X21369000Y-5089000D02*
X21369000Y-5202000D01*
X20141000Y-5049000D02*
X21329000Y-5049000D01*
D10*
X25418500Y-3377750D02*
G75*
G03*
X25383500Y-3412748I0J-35000D01*
G01*
X19737000Y-3377000D02*
G75*
G03*
X18612000Y-4502000I0J-1125000D01*
G01*
X33882000Y-4502000D02*
G75*
G03*
X32757000Y-3377000I-1125000J0D01*
G01*
X21948500Y-3378000D02*
X19737000Y-3377000D01*
X32757000Y-16999000D02*
G75*
G03*
X33882000Y-15874000I0J1125000D01*
G01*
X21983500Y-3412000D02*
X21987124Y-5181000D01*
X25418500Y-3377749D02*
X32757000Y-3377000D01*
X18612000Y-15874000D02*
G75*
G03*
X19737000Y-16999000I1125000J0D01*
G01*
X21987130Y-5181000D02*
G75*
G03*
X22022124Y-5216000I35000J0D01*
G01*
X21983500Y-3413000D02*
G75*
G03*
X21948500Y-3378000I-35000J0D01*
G01*
X25351876Y-5216000D02*
X22022124Y-5216000D01*
D11*
D12*
X20588118Y-13270844D02*
X20763118Y-13445844D01*
X20763118Y-13270844D02*
X20588118Y-13445844D01*
X20588118Y-13270844D02*
X20763118Y-13445844D01*
X20763118Y-13270844D02*
X20588118Y-13445844D01*
X20895245Y-15983083D02*
X21070245Y-16158083D01*
X21070245Y-15983083D02*
X20895245Y-16158083D01*
X20895245Y-15983083D02*
X21070245Y-16158083D01*
X21070245Y-15983083D02*
X20895245Y-16158083D01*
X21604118Y-13270844D02*
X21779118Y-13445844D01*
X21779118Y-13270844D02*
X21604118Y-13445844D01*
X21604118Y-13270844D02*
X21779118Y-13445844D01*
X21779118Y-13270844D02*
X21604118Y-13445844D01*
X21911245Y-15983083D02*
X22086245Y-16158083D01*
X22086245Y-15983083D02*
X21911245Y-16158083D01*
X21911245Y-15983083D02*
X22086245Y-16158083D01*
X22086245Y-15983083D02*
X21911245Y-16158083D01*
X22471356Y-11660396D02*
X22646356Y-11835396D01*
X22646356Y-11660396D02*
X22471356Y-11835396D01*
X22471356Y-11660396D02*
X22646356Y-11835396D01*
X22646356Y-11660396D02*
X22471356Y-11835396D01*
X23178484Y-14172636D02*
X23353484Y-14347636D01*
X23353484Y-14172636D02*
X23178484Y-14347636D01*
X23178484Y-14172636D02*
X23353484Y-14347636D01*
X23353484Y-14172636D02*
X23178484Y-14347636D01*
X23487356Y-11660396D02*
X23662356Y-11835396D01*
X23662356Y-11660396D02*
X23487356Y-11835396D01*
X23487356Y-11660396D02*
X23662356Y-11835396D01*
X23662356Y-11660396D02*
X23487356Y-11835396D01*
X23549223Y-6572013D02*
X23724223Y-6747013D01*
X23724223Y-6572013D02*
X23549223Y-6747013D01*
X23549223Y-6572013D02*
X23724223Y-6747013D01*
X23724223Y-6572013D02*
X23549223Y-6747013D01*
X24194484Y-14172636D02*
X24369484Y-14347636D01*
X24369484Y-14172636D02*
X24194484Y-14347636D01*
X24194484Y-14172636D02*
X24369484Y-14347636D01*
X24369484Y-14172636D02*
X24194484Y-14347636D01*
X24238797Y-9138837D02*
X24413797Y-9313837D01*
X24413797Y-9138837D02*
X24238797Y-9313837D01*
X24238797Y-9138837D02*
X24413797Y-9313837D01*
X24413797Y-9138837D02*
X24238797Y-9313837D01*
X24565223Y-6572013D02*
X24740223Y-6747013D01*
X24740223Y-6572013D02*
X24565223Y-6747013D01*
X24565223Y-6572013D02*
X24740223Y-6747013D01*
X24740223Y-6572013D02*
X24565223Y-6747013D01*
X24968012Y-12097255D02*
X25143012Y-12272255D01*
X25143012Y-12097255D02*
X24968012Y-12272255D01*
X24968012Y-12097255D02*
X25143012Y-12272255D01*
X25143012Y-12097255D02*
X24968012Y-12272255D01*
X25254797Y-9138837D02*
X25429797Y-9313837D01*
X25429797Y-9138837D02*
X25254797Y-9313837D01*
X25254797Y-9138837D02*
X25429797Y-9313837D01*
X25429797Y-9138837D02*
X25254797Y-9313837D01*
X25800186Y-4726952D02*
X25975186Y-4901952D01*
X25975186Y-4726952D02*
X25800186Y-4901952D01*
X25800186Y-4726952D02*
X25975186Y-4901952D01*
X25975186Y-4726952D02*
X25800186Y-4901952D01*
X25984012Y-12097255D02*
X26159012Y-12272255D01*
X26159012Y-12097255D02*
X25984012Y-12272255D01*
X25984012Y-12097255D02*
X26159012Y-12272255D01*
X26159012Y-12097255D02*
X25984012Y-12272255D01*
X26489785Y-7293873D02*
X26664785Y-7468873D01*
X26664785Y-7293873D02*
X26489785Y-7468873D01*
X26489785Y-7293873D02*
X26664785Y-7468873D01*
X26664785Y-7293873D02*
X26489785Y-7468873D01*
X26816186Y-4726952D02*
X26991186Y-4901952D01*
X26991186Y-4726952D02*
X26816186Y-4901952D01*
X26816186Y-4726952D02*
X26991186Y-4901952D01*
X26991186Y-4726952D02*
X26816186Y-4901952D01*
X27505785Y-7293873D02*
X27680785Y-7468873D01*
X27680785Y-7293873D02*
X27505785Y-7468873D01*
X27505785Y-7293873D02*
X27680785Y-7468873D01*
X27680785Y-7293873D02*
X27505785Y-7468873D01*
X28616067Y-4280433D02*
X28791067Y-4455433D01*
X28791067Y-4280433D02*
X28616067Y-4455433D01*
X28616067Y-4280433D02*
X28791067Y-4455433D01*
X28791067Y-4280433D02*
X28616067Y-4455433D01*
X29305667Y-6847354D02*
X29480667Y-7022354D01*
X29480667Y-6847354D02*
X29305667Y-7022354D01*
X29305667Y-6847354D02*
X29480667Y-7022354D01*
X29480667Y-6847354D02*
X29305667Y-7022354D01*
X29632067Y-4280433D02*
X29807067Y-4455433D01*
X29807067Y-4280433D02*
X29632067Y-4455433D01*
X29632067Y-4280433D02*
X29807067Y-4455433D01*
X29807067Y-4280433D02*
X29632067Y-4455433D01*
X30321667Y-6847354D02*
X30496667Y-7022354D01*
X30496667Y-6847354D02*
X30321667Y-7022354D01*
X30321667Y-6847354D02*
X30496667Y-7022354D01*
X30496667Y-6847354D02*
X30321667Y-7022354D01*
X31564057Y-5150691D02*
X31739057Y-5325691D01*
X31739057Y-5150691D02*
X31564057Y-5325691D01*
X31564057Y-5150691D02*
X31739057Y-5325691D01*
X31739057Y-5150691D02*
X31564057Y-5325691D01*
X32253656Y-7717612D02*
X32428656Y-7892612D01*
X32428656Y-7717612D02*
X32253656Y-7892612D01*
X32253656Y-7717612D02*
X32428656Y-7892612D01*
X32428656Y-7717612D02*
X32253656Y-7892612D01*
X32580057Y-5150691D02*
X32755057Y-5325691D01*
X32755057Y-5150691D02*
X32580057Y-5325691D01*
X32580057Y-5150691D02*
X32755057Y-5325691D01*
X32755057Y-5150691D02*
X32580057Y-5325691D01*
X33269656Y-7717612D02*
X33444656Y-7892612D01*
X33444656Y-7717612D02*
X33269656Y-7892612D01*
X33269656Y-7717612D02*
X33444656Y-7892612D01*
X33444656Y-7717612D02*
X33269656Y-7892612D01*
D13*
X21383008Y-13358344D02*
G75*
G03*
X21383008Y-13358344I-199390J0D01*
G01*
X21383008Y-13358344D02*
G75*
G03*
X21383008Y-13358344I-199390J0D01*
G01*
X21690135Y-16070583D02*
G75*
G03*
X21690135Y-16070583I-199390J0D01*
G01*
X21690135Y-16070583D02*
G75*
G03*
X21690135Y-16070583I-199390J0D01*
G01*
X23266246Y-11747896D02*
G75*
G03*
X23266246Y-11747896I-199390J0D01*
G01*
X23266246Y-11747896D02*
G75*
G03*
X23266246Y-11747896I-199390J0D01*
G01*
X23973374Y-14260136D02*
G75*
G03*
X23973374Y-14260136I-199390J0D01*
G01*
X23973374Y-14260136D02*
G75*
G03*
X23973374Y-14260136I-199390J0D01*
G01*
X24344113Y-6659513D02*
G75*
G03*
X24344113Y-6659513I-199390J0D01*
G01*
X24344113Y-6659513D02*
G75*
G03*
X24344113Y-6659513I-199390J0D01*
G01*
X25033687Y-9226337D02*
G75*
G03*
X25033687Y-9226337I-199390J0D01*
G01*
X25033687Y-9226337D02*
G75*
G03*
X25033687Y-9226337I-199390J0D01*
G01*
X25762902Y-12184755D02*
G75*
G03*
X25762902Y-12184755I-199390J0D01*
G01*
X25762902Y-12184755D02*
G75*
G03*
X25762902Y-12184755I-199390J0D01*
G01*
X26595076Y-4814452D02*
G75*
G03*
X26595076Y-4814452I-199390J0D01*
G01*
X26595076Y-4814452D02*
G75*
G03*
X26595076Y-4814452I-199390J0D01*
G01*
X27284675Y-7381373D02*
G75*
G03*
X27284675Y-7381373I-199390J0D01*
G01*
X27284675Y-7381373D02*
G75*
G03*
X27284675Y-7381373I-199390J0D01*
G01*
X29410957Y-4367933D02*
G75*
G03*
X29410957Y-4367933I-199390J0D01*
G01*
X29410957Y-4367933D02*
G75*
G03*
X29410957Y-4367933I-199390J0D01*
G01*
X30100557Y-6934854D02*
G75*
G03*
X30100557Y-6934854I-199390J0D01*
G01*
X30100557Y-6934854D02*
G75*
G03*
X30100557Y-6934854I-199390J0D01*
G01*
X32358947Y-5238191D02*
G75*
G03*
X32358947Y-5238191I-199390J0D01*
G01*
X32358947Y-5238191D02*
G75*
G03*
X32358947Y-5238191I-199390J0D01*
G01*
X33048546Y-7805112D02*
G75*
G03*
X33048546Y-7805112I-199390J0D01*
G01*
X33048546Y-7805112D02*
G75*
G03*
X33048546Y-7805112I-199390J0D01*
G01*
D11*
X18854619Y-17297476D02*
X18854619Y-17097476D01*
X18854619Y-17097476D02*
X18902238Y-17097476D01*
X18902238Y-17097476D02*
X18930810Y-17107000D01*
X18930810Y-17107000D02*
X18949857Y-17126048D01*
X18949857Y-17126048D02*
X18959381Y-17145095D01*
X18959381Y-17145095D02*
X18968905Y-17183190D01*
X18968905Y-17183190D02*
X18968905Y-17211762D01*
X18968905Y-17211762D02*
X18959381Y-17249857D01*
X18959381Y-17249857D02*
X18949857Y-17268905D01*
X18949857Y-17268905D02*
X18930810Y-17287952D01*
X18930810Y-17287952D02*
X18902238Y-17297476D01*
X18902238Y-17297476D02*
X18854619Y-17297476D01*
X19054619Y-17297476D02*
X19054619Y-17164143D01*
X19054619Y-17202238D02*
X19064143Y-17183190D01*
X19064143Y-17183190D02*
X19073667Y-17173667D01*
X19073667Y-17173667D02*
X19092714Y-17164143D01*
X19092714Y-17164143D02*
X19111762Y-17164143D01*
X19178429Y-17297476D02*
X19178429Y-17164143D01*
X19178429Y-17097476D02*
X19168905Y-17107000D01*
X19168905Y-17107000D02*
X19178429Y-17116524D01*
X19178429Y-17116524D02*
X19187952Y-17107000D01*
X19187952Y-17107000D02*
X19178429Y-17097476D01*
X19178429Y-17097476D02*
X19178429Y-17116524D01*
X19302238Y-17297476D02*
X19283190Y-17287952D01*
X19283190Y-17287952D02*
X19273667Y-17268905D01*
X19273667Y-17268905D02*
X19273667Y-17097476D01*
X19407000Y-17297476D02*
X19387952Y-17287952D01*
X19387952Y-17287952D02*
X19378429Y-17268905D01*
X19378429Y-17268905D02*
X19378429Y-17097476D01*
X19603190Y-17297476D02*
X19603190Y-17097476D01*
X19603190Y-17097476D02*
X19669857Y-17240333D01*
X19669857Y-17240333D02*
X19736524Y-17097476D01*
X19736524Y-17097476D02*
X19736524Y-17297476D01*
X19917476Y-17297476D02*
X19917476Y-17192714D01*
X19917476Y-17192714D02*
X19907952Y-17173667D01*
X19907952Y-17173667D02*
X19888905Y-17164143D01*
X19888905Y-17164143D02*
X19850809Y-17164143D01*
X19850809Y-17164143D02*
X19831762Y-17173667D01*
X19917476Y-17287952D02*
X19898429Y-17297476D01*
X19898429Y-17297476D02*
X19850809Y-17297476D01*
X19850809Y-17297476D02*
X19831762Y-17287952D01*
X19831762Y-17287952D02*
X19822238Y-17268905D01*
X19822238Y-17268905D02*
X19822238Y-17249857D01*
X19822238Y-17249857D02*
X19831762Y-17230810D01*
X19831762Y-17230810D02*
X19850809Y-17221286D01*
X19850809Y-17221286D02*
X19898429Y-17221286D01*
X19898429Y-17221286D02*
X19917476Y-17211762D01*
X20012714Y-17164143D02*
X20012714Y-17364143D01*
X20012714Y-17173667D02*
X20031762Y-17164143D01*
X20031762Y-17164143D02*
X20069857Y-17164143D01*
X20069857Y-17164143D02*
X20088905Y-17173667D01*
X20088905Y-17173667D02*
X20098429Y-17183190D01*
X20098429Y-17183190D02*
X20107952Y-17202238D01*
X20107952Y-17202238D02*
X20107952Y-17259381D01*
X20107952Y-17259381D02*
X20098429Y-17278429D01*
X20098429Y-17278429D02*
X20088905Y-17287952D01*
X20088905Y-17287952D02*
X20069857Y-17297476D01*
X20069857Y-17297476D02*
X20031762Y-17297476D01*
X20031762Y-17297476D02*
X20012714Y-17287952D01*
X20193667Y-17278429D02*
X20203190Y-17287952D01*
X20203190Y-17287952D02*
X20193667Y-17297476D01*
X20193667Y-17297476D02*
X20184143Y-17287952D01*
X20184143Y-17287952D02*
X20193667Y-17278429D01*
X20193667Y-17278429D02*
X20193667Y-17297476D01*
X20193667Y-17173667D02*
X20203190Y-17183190D01*
X20203190Y-17183190D02*
X20193667Y-17192714D01*
X20193667Y-17192714D02*
X20184143Y-17183190D01*
X20184143Y-17183190D02*
X20193667Y-17173667D01*
X20193667Y-17173667D02*
X20193667Y-17192714D01*
D12*
X18432000Y-17556500D02*
X18607000Y-17731500D01*
X18607000Y-17556500D02*
X18432000Y-17731500D01*
D11*
X18959381Y-17717476D02*
X18845095Y-17717476D01*
X18902238Y-17717476D02*
X18902238Y-17517476D01*
X18902238Y-17517476D02*
X18883190Y-17546048D01*
X18883190Y-17546048D02*
X18864143Y-17565095D01*
X18864143Y-17565095D02*
X18845095Y-17574619D01*
X19045095Y-17698429D02*
X19054619Y-17707952D01*
X19054619Y-17707952D02*
X19045095Y-17717476D01*
X19045095Y-17717476D02*
X19035571Y-17707952D01*
X19035571Y-17707952D02*
X19045095Y-17698429D01*
X19045095Y-17698429D02*
X19045095Y-17717476D01*
X19121286Y-17517476D02*
X19254619Y-17517476D01*
X19254619Y-17517476D02*
X19168905Y-17717476D01*
X19426048Y-17517476D02*
X19330810Y-17517476D01*
X19330810Y-17517476D02*
X19321286Y-17612714D01*
X19321286Y-17612714D02*
X19330810Y-17603190D01*
X19330810Y-17603190D02*
X19349857Y-17593667D01*
X19349857Y-17593667D02*
X19397476Y-17593667D01*
X19397476Y-17593667D02*
X19416524Y-17603190D01*
X19416524Y-17603190D02*
X19426048Y-17612714D01*
X19426048Y-17612714D02*
X19435571Y-17631762D01*
X19435571Y-17631762D02*
X19435571Y-17679381D01*
X19435571Y-17679381D02*
X19426048Y-17698429D01*
X19426048Y-17698429D02*
X19416524Y-17707952D01*
X19416524Y-17707952D02*
X19397476Y-17717476D01*
X19397476Y-17717476D02*
X19349857Y-17717476D01*
X19349857Y-17717476D02*
X19330810Y-17707952D01*
X19330810Y-17707952D02*
X19321286Y-17698429D01*
X19559381Y-17517476D02*
X19578429Y-17517476D01*
X19578429Y-17517476D02*
X19597476Y-17527000D01*
X19597476Y-17527000D02*
X19607000Y-17536524D01*
X19607000Y-17536524D02*
X19616524Y-17555571D01*
X19616524Y-17555571D02*
X19626048Y-17593667D01*
X19626048Y-17593667D02*
X19626048Y-17641286D01*
X19626048Y-17641286D02*
X19616524Y-17679381D01*
X19616524Y-17679381D02*
X19607000Y-17698429D01*
X19607000Y-17698429D02*
X19597476Y-17707952D01*
X19597476Y-17707952D02*
X19578429Y-17717476D01*
X19578429Y-17717476D02*
X19559381Y-17717476D01*
X19559381Y-17717476D02*
X19540333Y-17707952D01*
X19540333Y-17707952D02*
X19530810Y-17698429D01*
X19530810Y-17698429D02*
X19521286Y-17679381D01*
X19521286Y-17679381D02*
X19511762Y-17641286D01*
X19511762Y-17641286D02*
X19511762Y-17593667D01*
X19511762Y-17593667D02*
X19521286Y-17555571D01*
X19521286Y-17555571D02*
X19530810Y-17536524D01*
X19530810Y-17536524D02*
X19540333Y-17527000D01*
X19540333Y-17527000D02*
X19559381Y-17517476D01*
X19711762Y-17717476D02*
X19711762Y-17584143D01*
X19711762Y-17603190D02*
X19721286Y-17593667D01*
X19721286Y-17593667D02*
X19740333Y-17584143D01*
X19740333Y-17584143D02*
X19768905Y-17584143D01*
X19768905Y-17584143D02*
X19787952Y-17593667D01*
X19787952Y-17593667D02*
X19797476Y-17612714D01*
X19797476Y-17612714D02*
X19797476Y-17717476D01*
X19797476Y-17612714D02*
X19807000Y-17593667D01*
X19807000Y-17593667D02*
X19826048Y-17584143D01*
X19826048Y-17584143D02*
X19854619Y-17584143D01*
X19854619Y-17584143D02*
X19873667Y-17593667D01*
X19873667Y-17593667D02*
X19883191Y-17612714D01*
X19883191Y-17612714D02*
X19883191Y-17717476D01*
X19978429Y-17717476D02*
X19978429Y-17584143D01*
X19978429Y-17603190D02*
X19987952Y-17593667D01*
X19987952Y-17593667D02*
X20007000Y-17584143D01*
X20007000Y-17584143D02*
X20035572Y-17584143D01*
X20035572Y-17584143D02*
X20054619Y-17593667D01*
X20054619Y-17593667D02*
X20064143Y-17612714D01*
X20064143Y-17612714D02*
X20064143Y-17717476D01*
X20064143Y-17612714D02*
X20073667Y-17593667D01*
X20073667Y-17593667D02*
X20092714Y-17584143D01*
X20092714Y-17584143D02*
X20121286Y-17584143D01*
X20121286Y-17584143D02*
X20140333Y-17593667D01*
X20140333Y-17593667D02*
X20149857Y-17612714D01*
X20149857Y-17612714D02*
X20149857Y-17717476D01*
X20507952Y-17507952D02*
X20336524Y-17765095D01*
X20732714Y-17517476D02*
X20751762Y-17517476D01*
X20751762Y-17517476D02*
X20770810Y-17527000D01*
X20770810Y-17527000D02*
X20780333Y-17536524D01*
X20780333Y-17536524D02*
X20789857Y-17555571D01*
X20789857Y-17555571D02*
X20799381Y-17593667D01*
X20799381Y-17593667D02*
X20799381Y-17641286D01*
X20799381Y-17641286D02*
X20789857Y-17679381D01*
X20789857Y-17679381D02*
X20780333Y-17698429D01*
X20780333Y-17698429D02*
X20770810Y-17707952D01*
X20770810Y-17707952D02*
X20751762Y-17717476D01*
X20751762Y-17717476D02*
X20732714Y-17717476D01*
X20732714Y-17717476D02*
X20713667Y-17707952D01*
X20713667Y-17707952D02*
X20704143Y-17698429D01*
X20704143Y-17698429D02*
X20694619Y-17679381D01*
X20694619Y-17679381D02*
X20685095Y-17641286D01*
X20685095Y-17641286D02*
X20685095Y-17593667D01*
X20685095Y-17593667D02*
X20694619Y-17555571D01*
X20694619Y-17555571D02*
X20704143Y-17536524D01*
X20704143Y-17536524D02*
X20713667Y-17527000D01*
X20713667Y-17527000D02*
X20732714Y-17517476D01*
X20885095Y-17698429D02*
X20894619Y-17707952D01*
X20894619Y-17707952D02*
X20885095Y-17717476D01*
X20885095Y-17717476D02*
X20875572Y-17707952D01*
X20875572Y-17707952D02*
X20885095Y-17698429D01*
X20885095Y-17698429D02*
X20885095Y-17717476D01*
X21018429Y-17517476D02*
X21037476Y-17517476D01*
X21037476Y-17517476D02*
X21056524Y-17527000D01*
X21056524Y-17527000D02*
X21066048Y-17536524D01*
X21066048Y-17536524D02*
X21075572Y-17555571D01*
X21075572Y-17555571D02*
X21085095Y-17593667D01*
X21085095Y-17593667D02*
X21085095Y-17641286D01*
X21085095Y-17641286D02*
X21075572Y-17679381D01*
X21075572Y-17679381D02*
X21066048Y-17698429D01*
X21066048Y-17698429D02*
X21056524Y-17707952D01*
X21056524Y-17707952D02*
X21037476Y-17717476D01*
X21037476Y-17717476D02*
X21018429Y-17717476D01*
X21018429Y-17717476D02*
X20999381Y-17707952D01*
X20999381Y-17707952D02*
X20989857Y-17698429D01*
X20989857Y-17698429D02*
X20980333Y-17679381D01*
X20980333Y-17679381D02*
X20970810Y-17641286D01*
X20970810Y-17641286D02*
X20970810Y-17593667D01*
X20970810Y-17593667D02*
X20980333Y-17555571D01*
X20980333Y-17555571D02*
X20989857Y-17536524D01*
X20989857Y-17536524D02*
X20999381Y-17527000D01*
X20999381Y-17527000D02*
X21018429Y-17517476D01*
X21256524Y-17517476D02*
X21218429Y-17517476D01*
X21218429Y-17517476D02*
X21199381Y-17527000D01*
X21199381Y-17527000D02*
X21189857Y-17536524D01*
X21189857Y-17536524D02*
X21170810Y-17565095D01*
X21170810Y-17565095D02*
X21161286Y-17603190D01*
X21161286Y-17603190D02*
X21161286Y-17679381D01*
X21161286Y-17679381D02*
X21170810Y-17698429D01*
X21170810Y-17698429D02*
X21180333Y-17707952D01*
X21180333Y-17707952D02*
X21199381Y-17717476D01*
X21199381Y-17717476D02*
X21237476Y-17717476D01*
X21237476Y-17717476D02*
X21256524Y-17707952D01*
X21256524Y-17707952D02*
X21266048Y-17698429D01*
X21266048Y-17698429D02*
X21275572Y-17679381D01*
X21275572Y-17679381D02*
X21275572Y-17631762D01*
X21275572Y-17631762D02*
X21266048Y-17612714D01*
X21266048Y-17612714D02*
X21256524Y-17603190D01*
X21256524Y-17603190D02*
X21237476Y-17593667D01*
X21237476Y-17593667D02*
X21199381Y-17593667D01*
X21199381Y-17593667D02*
X21180333Y-17603190D01*
X21180333Y-17603190D02*
X21170810Y-17612714D01*
X21170810Y-17612714D02*
X21161286Y-17631762D01*
X21389857Y-17603190D02*
X21370810Y-17593667D01*
X21370810Y-17593667D02*
X21361286Y-17584143D01*
X21361286Y-17584143D02*
X21351762Y-17565095D01*
X21351762Y-17565095D02*
X21351762Y-17555571D01*
X21351762Y-17555571D02*
X21361286Y-17536524D01*
X21361286Y-17536524D02*
X21370810Y-17527000D01*
X21370810Y-17527000D02*
X21389857Y-17517476D01*
X21389857Y-17517476D02*
X21427953Y-17517476D01*
X21427953Y-17517476D02*
X21447000Y-17527000D01*
X21447000Y-17527000D02*
X21456524Y-17536524D01*
X21456524Y-17536524D02*
X21466048Y-17555571D01*
X21466048Y-17555571D02*
X21466048Y-17565095D01*
X21466048Y-17565095D02*
X21456524Y-17584143D01*
X21456524Y-17584143D02*
X21447000Y-17593667D01*
X21447000Y-17593667D02*
X21427953Y-17603190D01*
X21427953Y-17603190D02*
X21389857Y-17603190D01*
X21389857Y-17603190D02*
X21370810Y-17612714D01*
X21370810Y-17612714D02*
X21361286Y-17622238D01*
X21361286Y-17622238D02*
X21351762Y-17641286D01*
X21351762Y-17641286D02*
X21351762Y-17679381D01*
X21351762Y-17679381D02*
X21361286Y-17698429D01*
X21361286Y-17698429D02*
X21370810Y-17707952D01*
X21370810Y-17707952D02*
X21389857Y-17717476D01*
X21389857Y-17717476D02*
X21427953Y-17717476D01*
X21427953Y-17717476D02*
X21447000Y-17707952D01*
X21447000Y-17707952D02*
X21456524Y-17698429D01*
X21456524Y-17698429D02*
X21466048Y-17679381D01*
X21466048Y-17679381D02*
X21466048Y-17641286D01*
X21466048Y-17641286D02*
X21456524Y-17622238D01*
X21456524Y-17622238D02*
X21447000Y-17612714D01*
X21447000Y-17612714D02*
X21427953Y-17603190D01*
X21561286Y-17717476D02*
X21599381Y-17717476D01*
X21599381Y-17717476D02*
X21618429Y-17707952D01*
X21618429Y-17707952D02*
X21627953Y-17698429D01*
X21627953Y-17698429D02*
X21647000Y-17669857D01*
X21647000Y-17669857D02*
X21656524Y-17631762D01*
X21656524Y-17631762D02*
X21656524Y-17555571D01*
X21656524Y-17555571D02*
X21647000Y-17536524D01*
X21647000Y-17536524D02*
X21637476Y-17527000D01*
X21637476Y-17527000D02*
X21618429Y-17517476D01*
X21618429Y-17517476D02*
X21580333Y-17517476D01*
X21580333Y-17517476D02*
X21561286Y-17527000D01*
X21561286Y-17527000D02*
X21551762Y-17536524D01*
X21551762Y-17536524D02*
X21542238Y-17555571D01*
X21542238Y-17555571D02*
X21542238Y-17603190D01*
X21542238Y-17603190D02*
X21551762Y-17622238D01*
X21551762Y-17622238D02*
X21561286Y-17631762D01*
X21561286Y-17631762D02*
X21580333Y-17641286D01*
X21580333Y-17641286D02*
X21618429Y-17641286D01*
X21618429Y-17641286D02*
X21637476Y-17631762D01*
X21637476Y-17631762D02*
X21647000Y-17622238D01*
X21647000Y-17622238D02*
X21656524Y-17603190D01*
X21732714Y-17517476D02*
X21732714Y-17555571D01*
X21808905Y-17517476D02*
X21808905Y-17555571D01*
X22071762Y-17793667D02*
X22062238Y-17784143D01*
X22062238Y-17784143D02*
X22043191Y-17755571D01*
X22043191Y-17755571D02*
X22033667Y-17736524D01*
X22033667Y-17736524D02*
X22024143Y-17707952D01*
X22024143Y-17707952D02*
X22014619Y-17660333D01*
X22014619Y-17660333D02*
X22014619Y-17622238D01*
X22014619Y-17622238D02*
X22024143Y-17574619D01*
X22024143Y-17574619D02*
X22033667Y-17546048D01*
X22033667Y-17546048D02*
X22043191Y-17527000D01*
X22043191Y-17527000D02*
X22062238Y-17498429D01*
X22062238Y-17498429D02*
X22071762Y-17488905D01*
X22243191Y-17517476D02*
X22147953Y-17517476D01*
X22147953Y-17517476D02*
X22138429Y-17612714D01*
X22138429Y-17612714D02*
X22147953Y-17603190D01*
X22147953Y-17603190D02*
X22167000Y-17593667D01*
X22167000Y-17593667D02*
X22214619Y-17593667D01*
X22214619Y-17593667D02*
X22233667Y-17603190D01*
X22233667Y-17603190D02*
X22243191Y-17612714D01*
X22243191Y-17612714D02*
X22252714Y-17631762D01*
X22252714Y-17631762D02*
X22252714Y-17679381D01*
X22252714Y-17679381D02*
X22243191Y-17698429D01*
X22243191Y-17698429D02*
X22233667Y-17707952D01*
X22233667Y-17707952D02*
X22214619Y-17717476D01*
X22214619Y-17717476D02*
X22167000Y-17717476D01*
X22167000Y-17717476D02*
X22147953Y-17707952D01*
X22147953Y-17707952D02*
X22138429Y-17698429D01*
X22328905Y-17536524D02*
X22338429Y-17527000D01*
X22338429Y-17527000D02*
X22357476Y-17517476D01*
X22357476Y-17517476D02*
X22405095Y-17517476D01*
X22405095Y-17517476D02*
X22424143Y-17527000D01*
X22424143Y-17527000D02*
X22433667Y-17536524D01*
X22433667Y-17536524D02*
X22443191Y-17555571D01*
X22443191Y-17555571D02*
X22443191Y-17574619D01*
X22443191Y-17574619D02*
X22433667Y-17603190D01*
X22433667Y-17603190D02*
X22319381Y-17717476D01*
X22319381Y-17717476D02*
X22443191Y-17717476D01*
X22648905Y-17717476D02*
X22648905Y-17517476D01*
X22734619Y-17717476D02*
X22734619Y-17612714D01*
X22734619Y-17612714D02*
X22725095Y-17593667D01*
X22725095Y-17593667D02*
X22706048Y-17584143D01*
X22706048Y-17584143D02*
X22677476Y-17584143D01*
X22677476Y-17584143D02*
X22658429Y-17593667D01*
X22658429Y-17593667D02*
X22648905Y-17603190D01*
X22858429Y-17717476D02*
X22839381Y-17707952D01*
X22839381Y-17707952D02*
X22829857Y-17698429D01*
X22829857Y-17698429D02*
X22820333Y-17679381D01*
X22820333Y-17679381D02*
X22820333Y-17622238D01*
X22820333Y-17622238D02*
X22829857Y-17603190D01*
X22829857Y-17603190D02*
X22839381Y-17593667D01*
X22839381Y-17593667D02*
X22858429Y-17584143D01*
X22858429Y-17584143D02*
X22887000Y-17584143D01*
X22887000Y-17584143D02*
X22906048Y-17593667D01*
X22906048Y-17593667D02*
X22915572Y-17603190D01*
X22915572Y-17603190D02*
X22925095Y-17622238D01*
X22925095Y-17622238D02*
X22925095Y-17679381D01*
X22925095Y-17679381D02*
X22915572Y-17698429D01*
X22915572Y-17698429D02*
X22906048Y-17707952D01*
X22906048Y-17707952D02*
X22887000Y-17717476D01*
X22887000Y-17717476D02*
X22858429Y-17717476D01*
X23039381Y-17717476D02*
X23020333Y-17707952D01*
X23020333Y-17707952D02*
X23010810Y-17688905D01*
X23010810Y-17688905D02*
X23010810Y-17517476D01*
X23191762Y-17707952D02*
X23172714Y-17717476D01*
X23172714Y-17717476D02*
X23134619Y-17717476D01*
X23134619Y-17717476D02*
X23115572Y-17707952D01*
X23115572Y-17707952D02*
X23106048Y-17688905D01*
X23106048Y-17688905D02*
X23106048Y-17612714D01*
X23106048Y-17612714D02*
X23115572Y-17593667D01*
X23115572Y-17593667D02*
X23134619Y-17584143D01*
X23134619Y-17584143D02*
X23172714Y-17584143D01*
X23172714Y-17584143D02*
X23191762Y-17593667D01*
X23191762Y-17593667D02*
X23201286Y-17612714D01*
X23201286Y-17612714D02*
X23201286Y-17631762D01*
X23201286Y-17631762D02*
X23106048Y-17650810D01*
X23277476Y-17707952D02*
X23296524Y-17717476D01*
X23296524Y-17717476D02*
X23334619Y-17717476D01*
X23334619Y-17717476D02*
X23353667Y-17707952D01*
X23353667Y-17707952D02*
X23363191Y-17688905D01*
X23363191Y-17688905D02*
X23363191Y-17679381D01*
X23363191Y-17679381D02*
X23353667Y-17660333D01*
X23353667Y-17660333D02*
X23334619Y-17650810D01*
X23334619Y-17650810D02*
X23306048Y-17650810D01*
X23306048Y-17650810D02*
X23287000Y-17641286D01*
X23287000Y-17641286D02*
X23277476Y-17622238D01*
X23277476Y-17622238D02*
X23277476Y-17612714D01*
X23277476Y-17612714D02*
X23287000Y-17593667D01*
X23287000Y-17593667D02*
X23306048Y-17584143D01*
X23306048Y-17584143D02*
X23334619Y-17584143D01*
X23334619Y-17584143D02*
X23353667Y-17593667D01*
X23429857Y-17793667D02*
X23439381Y-17784143D01*
X23439381Y-17784143D02*
X23458429Y-17755571D01*
X23458429Y-17755571D02*
X23467953Y-17736524D01*
X23467953Y-17736524D02*
X23477476Y-17707952D01*
X23477476Y-17707952D02*
X23487000Y-17660333D01*
X23487000Y-17660333D02*
X23487000Y-17622238D01*
X23487000Y-17622238D02*
X23477476Y-17574619D01*
X23477476Y-17574619D02*
X23467953Y-17546048D01*
X23467953Y-17546048D02*
X23458429Y-17527000D01*
X23458429Y-17527000D02*
X23439381Y-17498429D01*
X23439381Y-17498429D02*
X23429857Y-17488905D01*
X23759381Y-17793667D02*
X23749857Y-17784143D01*
X23749857Y-17784143D02*
X23730810Y-17755571D01*
X23730810Y-17755571D02*
X23721286Y-17736524D01*
X23721286Y-17736524D02*
X23711762Y-17707952D01*
X23711762Y-17707952D02*
X23702238Y-17660333D01*
X23702238Y-17660333D02*
X23702238Y-17622238D01*
X23702238Y-17622238D02*
X23711762Y-17574619D01*
X23711762Y-17574619D02*
X23721286Y-17546048D01*
X23721286Y-17546048D02*
X23730810Y-17527000D01*
X23730810Y-17527000D02*
X23749857Y-17498429D01*
X23749857Y-17498429D02*
X23759381Y-17488905D01*
X23835572Y-17584143D02*
X23835572Y-17717476D01*
X23835572Y-17603190D02*
X23845095Y-17593667D01*
X23845095Y-17593667D02*
X23864143Y-17584143D01*
X23864143Y-17584143D02*
X23892714Y-17584143D01*
X23892714Y-17584143D02*
X23911762Y-17593667D01*
X23911762Y-17593667D02*
X23921286Y-17612714D01*
X23921286Y-17612714D02*
X23921286Y-17717476D01*
X24045095Y-17717476D02*
X24026048Y-17707952D01*
X24026048Y-17707952D02*
X24016524Y-17698429D01*
X24016524Y-17698429D02*
X24007000Y-17679381D01*
X24007000Y-17679381D02*
X24007000Y-17622238D01*
X24007000Y-17622238D02*
X24016524Y-17603190D01*
X24016524Y-17603190D02*
X24026048Y-17593667D01*
X24026048Y-17593667D02*
X24045095Y-17584143D01*
X24045095Y-17584143D02*
X24073667Y-17584143D01*
X24073667Y-17584143D02*
X24092714Y-17593667D01*
X24092714Y-17593667D02*
X24102238Y-17603190D01*
X24102238Y-17603190D02*
X24111762Y-17622238D01*
X24111762Y-17622238D02*
X24111762Y-17679381D01*
X24111762Y-17679381D02*
X24102238Y-17698429D01*
X24102238Y-17698429D02*
X24092714Y-17707952D01*
X24092714Y-17707952D02*
X24073667Y-17717476D01*
X24073667Y-17717476D02*
X24045095Y-17717476D01*
X24168905Y-17584143D02*
X24245095Y-17584143D01*
X24197476Y-17517476D02*
X24197476Y-17688905D01*
X24197476Y-17688905D02*
X24207000Y-17707952D01*
X24207000Y-17707952D02*
X24226048Y-17717476D01*
X24226048Y-17717476D02*
X24245095Y-17717476D01*
X24431762Y-17584143D02*
X24431762Y-17784143D01*
X24431762Y-17593667D02*
X24450810Y-17584143D01*
X24450810Y-17584143D02*
X24488905Y-17584143D01*
X24488905Y-17584143D02*
X24507953Y-17593667D01*
X24507953Y-17593667D02*
X24517476Y-17603190D01*
X24517476Y-17603190D02*
X24527000Y-17622238D01*
X24527000Y-17622238D02*
X24527000Y-17679381D01*
X24527000Y-17679381D02*
X24517476Y-17698429D01*
X24517476Y-17698429D02*
X24507953Y-17707952D01*
X24507953Y-17707952D02*
X24488905Y-17717476D01*
X24488905Y-17717476D02*
X24450810Y-17717476D01*
X24450810Y-17717476D02*
X24431762Y-17707952D01*
X24641286Y-17717476D02*
X24622238Y-17707952D01*
X24622238Y-17707952D02*
X24612714Y-17688905D01*
X24612714Y-17688905D02*
X24612714Y-17517476D01*
X24803191Y-17717476D02*
X24803191Y-17612714D01*
X24803191Y-17612714D02*
X24793667Y-17593667D01*
X24793667Y-17593667D02*
X24774619Y-17584143D01*
X24774619Y-17584143D02*
X24736524Y-17584143D01*
X24736524Y-17584143D02*
X24717476Y-17593667D01*
X24803191Y-17707952D02*
X24784143Y-17717476D01*
X24784143Y-17717476D02*
X24736524Y-17717476D01*
X24736524Y-17717476D02*
X24717476Y-17707952D01*
X24717476Y-17707952D02*
X24707953Y-17688905D01*
X24707953Y-17688905D02*
X24707953Y-17669857D01*
X24707953Y-17669857D02*
X24717476Y-17650810D01*
X24717476Y-17650810D02*
X24736524Y-17641286D01*
X24736524Y-17641286D02*
X24784143Y-17641286D01*
X24784143Y-17641286D02*
X24803191Y-17631762D01*
X24869857Y-17584143D02*
X24946048Y-17584143D01*
X24898429Y-17517476D02*
X24898429Y-17688905D01*
X24898429Y-17688905D02*
X24907953Y-17707952D01*
X24907953Y-17707952D02*
X24927000Y-17717476D01*
X24927000Y-17717476D02*
X24946048Y-17717476D01*
X25088905Y-17707952D02*
X25069857Y-17717476D01*
X25069857Y-17717476D02*
X25031762Y-17717476D01*
X25031762Y-17717476D02*
X25012714Y-17707952D01*
X25012714Y-17707952D02*
X25003191Y-17688905D01*
X25003191Y-17688905D02*
X25003191Y-17612714D01*
X25003191Y-17612714D02*
X25012714Y-17593667D01*
X25012714Y-17593667D02*
X25031762Y-17584143D01*
X25031762Y-17584143D02*
X25069857Y-17584143D01*
X25069857Y-17584143D02*
X25088905Y-17593667D01*
X25088905Y-17593667D02*
X25098429Y-17612714D01*
X25098429Y-17612714D02*
X25098429Y-17631762D01*
X25098429Y-17631762D02*
X25003191Y-17650810D01*
X25269857Y-17717476D02*
X25269857Y-17517476D01*
X25269857Y-17707952D02*
X25250810Y-17717476D01*
X25250810Y-17717476D02*
X25212714Y-17717476D01*
X25212714Y-17717476D02*
X25193667Y-17707952D01*
X25193667Y-17707952D02*
X25184143Y-17698429D01*
X25184143Y-17698429D02*
X25174619Y-17679381D01*
X25174619Y-17679381D02*
X25174619Y-17622238D01*
X25174619Y-17622238D02*
X25184143Y-17603190D01*
X25184143Y-17603190D02*
X25193667Y-17593667D01*
X25193667Y-17593667D02*
X25212714Y-17584143D01*
X25212714Y-17584143D02*
X25250810Y-17584143D01*
X25250810Y-17584143D02*
X25269857Y-17593667D01*
X25346048Y-17793667D02*
X25355572Y-17784143D01*
X25355572Y-17784143D02*
X25374619Y-17755571D01*
X25374619Y-17755571D02*
X25384143Y-17736524D01*
X25384143Y-17736524D02*
X25393667Y-17707952D01*
X25393667Y-17707952D02*
X25403191Y-17660333D01*
X25403191Y-17660333D02*
X25403191Y-17622238D01*
X25403191Y-17622238D02*
X25393667Y-17574619D01*
X25393667Y-17574619D02*
X25384143Y-17546048D01*
X25384143Y-17546048D02*
X25374619Y-17527000D01*
X25374619Y-17527000D02*
X25355572Y-17498429D01*
X25355572Y-17498429D02*
X25346048Y-17488905D01*
X18607000Y-17939000D02*
G75*
G03*
X18607000Y-17939000I-100000J0D01*
G01*
X18835571Y-17812476D02*
X18959381Y-17812476D01*
X18959381Y-17812476D02*
X18892714Y-17888667D01*
X18892714Y-17888667D02*
X18921286Y-17888667D01*
X18921286Y-17888667D02*
X18940333Y-17898190D01*
X18940333Y-17898190D02*
X18949857Y-17907714D01*
X18949857Y-17907714D02*
X18959381Y-17926762D01*
X18959381Y-17926762D02*
X18959381Y-17974381D01*
X18959381Y-17974381D02*
X18949857Y-17993429D01*
X18949857Y-17993429D02*
X18940333Y-18002952D01*
X18940333Y-18002952D02*
X18921286Y-18012476D01*
X18921286Y-18012476D02*
X18864143Y-18012476D01*
X18864143Y-18012476D02*
X18845095Y-18002952D01*
X18845095Y-18002952D02*
X18835571Y-17993429D01*
X19045095Y-17993429D02*
X19054619Y-18002952D01*
X19054619Y-18002952D02*
X19045095Y-18012476D01*
X19045095Y-18012476D02*
X19035571Y-18002952D01*
X19035571Y-18002952D02*
X19045095Y-17993429D01*
X19045095Y-17993429D02*
X19045095Y-18012476D01*
X19149857Y-18012476D02*
X19187952Y-18012476D01*
X19187952Y-18012476D02*
X19207000Y-18002952D01*
X19207000Y-18002952D02*
X19216524Y-17993429D01*
X19216524Y-17993429D02*
X19235571Y-17964857D01*
X19235571Y-17964857D02*
X19245095Y-17926762D01*
X19245095Y-17926762D02*
X19245095Y-17850571D01*
X19245095Y-17850571D02*
X19235571Y-17831524D01*
X19235571Y-17831524D02*
X19226048Y-17822000D01*
X19226048Y-17822000D02*
X19207000Y-17812476D01*
X19207000Y-17812476D02*
X19168905Y-17812476D01*
X19168905Y-17812476D02*
X19149857Y-17822000D01*
X19149857Y-17822000D02*
X19140333Y-17831524D01*
X19140333Y-17831524D02*
X19130810Y-17850571D01*
X19130810Y-17850571D02*
X19130810Y-17898190D01*
X19130810Y-17898190D02*
X19140333Y-17917238D01*
X19140333Y-17917238D02*
X19149857Y-17926762D01*
X19149857Y-17926762D02*
X19168905Y-17936286D01*
X19168905Y-17936286D02*
X19207000Y-17936286D01*
X19207000Y-17936286D02*
X19226048Y-17926762D01*
X19226048Y-17926762D02*
X19235571Y-17917238D01*
X19235571Y-17917238D02*
X19245095Y-17898190D01*
X19359381Y-17898190D02*
X19340333Y-17888667D01*
X19340333Y-17888667D02*
X19330810Y-17879143D01*
X19330810Y-17879143D02*
X19321286Y-17860095D01*
X19321286Y-17860095D02*
X19321286Y-17850571D01*
X19321286Y-17850571D02*
X19330810Y-17831524D01*
X19330810Y-17831524D02*
X19340333Y-17822000D01*
X19340333Y-17822000D02*
X19359381Y-17812476D01*
X19359381Y-17812476D02*
X19397476Y-17812476D01*
X19397476Y-17812476D02*
X19416524Y-17822000D01*
X19416524Y-17822000D02*
X19426048Y-17831524D01*
X19426048Y-17831524D02*
X19435571Y-17850571D01*
X19435571Y-17850571D02*
X19435571Y-17860095D01*
X19435571Y-17860095D02*
X19426048Y-17879143D01*
X19426048Y-17879143D02*
X19416524Y-17888667D01*
X19416524Y-17888667D02*
X19397476Y-17898190D01*
X19397476Y-17898190D02*
X19359381Y-17898190D01*
X19359381Y-17898190D02*
X19340333Y-17907714D01*
X19340333Y-17907714D02*
X19330810Y-17917238D01*
X19330810Y-17917238D02*
X19321286Y-17936286D01*
X19321286Y-17936286D02*
X19321286Y-17974381D01*
X19321286Y-17974381D02*
X19330810Y-17993429D01*
X19330810Y-17993429D02*
X19340333Y-18002952D01*
X19340333Y-18002952D02*
X19359381Y-18012476D01*
X19359381Y-18012476D02*
X19397476Y-18012476D01*
X19397476Y-18012476D02*
X19416524Y-18002952D01*
X19416524Y-18002952D02*
X19426048Y-17993429D01*
X19426048Y-17993429D02*
X19435571Y-17974381D01*
X19435571Y-17974381D02*
X19435571Y-17936286D01*
X19435571Y-17936286D02*
X19426048Y-17917238D01*
X19426048Y-17917238D02*
X19416524Y-17907714D01*
X19416524Y-17907714D02*
X19397476Y-17898190D01*
X19549857Y-17898190D02*
X19530810Y-17888667D01*
X19530810Y-17888667D02*
X19521286Y-17879143D01*
X19521286Y-17879143D02*
X19511762Y-17860095D01*
X19511762Y-17860095D02*
X19511762Y-17850571D01*
X19511762Y-17850571D02*
X19521286Y-17831524D01*
X19521286Y-17831524D02*
X19530810Y-17822000D01*
X19530810Y-17822000D02*
X19549857Y-17812476D01*
X19549857Y-17812476D02*
X19587952Y-17812476D01*
X19587952Y-17812476D02*
X19607000Y-17822000D01*
X19607000Y-17822000D02*
X19616524Y-17831524D01*
X19616524Y-17831524D02*
X19626048Y-17850571D01*
X19626048Y-17850571D02*
X19626048Y-17860095D01*
X19626048Y-17860095D02*
X19616524Y-17879143D01*
X19616524Y-17879143D02*
X19607000Y-17888667D01*
X19607000Y-17888667D02*
X19587952Y-17898190D01*
X19587952Y-17898190D02*
X19549857Y-17898190D01*
X19549857Y-17898190D02*
X19530810Y-17907714D01*
X19530810Y-17907714D02*
X19521286Y-17917238D01*
X19521286Y-17917238D02*
X19511762Y-17936286D01*
X19511762Y-17936286D02*
X19511762Y-17974381D01*
X19511762Y-17974381D02*
X19521286Y-17993429D01*
X19521286Y-17993429D02*
X19530810Y-18002952D01*
X19530810Y-18002952D02*
X19549857Y-18012476D01*
X19549857Y-18012476D02*
X19587952Y-18012476D01*
X19587952Y-18012476D02*
X19607000Y-18002952D01*
X19607000Y-18002952D02*
X19616524Y-17993429D01*
X19616524Y-17993429D02*
X19626048Y-17974381D01*
X19626048Y-17974381D02*
X19626048Y-17936286D01*
X19626048Y-17936286D02*
X19616524Y-17917238D01*
X19616524Y-17917238D02*
X19607000Y-17907714D01*
X19607000Y-17907714D02*
X19587952Y-17898190D01*
X19711762Y-18012476D02*
X19711762Y-17879143D01*
X19711762Y-17898190D02*
X19721286Y-17888667D01*
X19721286Y-17888667D02*
X19740333Y-17879143D01*
X19740333Y-17879143D02*
X19768905Y-17879143D01*
X19768905Y-17879143D02*
X19787952Y-17888667D01*
X19787952Y-17888667D02*
X19797476Y-17907714D01*
X19797476Y-17907714D02*
X19797476Y-18012476D01*
X19797476Y-17907714D02*
X19807000Y-17888667D01*
X19807000Y-17888667D02*
X19826048Y-17879143D01*
X19826048Y-17879143D02*
X19854619Y-17879143D01*
X19854619Y-17879143D02*
X19873667Y-17888667D01*
X19873667Y-17888667D02*
X19883191Y-17907714D01*
X19883191Y-17907714D02*
X19883191Y-18012476D01*
X19978429Y-18012476D02*
X19978429Y-17879143D01*
X19978429Y-17898190D02*
X19987952Y-17888667D01*
X19987952Y-17888667D02*
X20007000Y-17879143D01*
X20007000Y-17879143D02*
X20035572Y-17879143D01*
X20035572Y-17879143D02*
X20054619Y-17888667D01*
X20054619Y-17888667D02*
X20064143Y-17907714D01*
X20064143Y-17907714D02*
X20064143Y-18012476D01*
X20064143Y-17907714D02*
X20073667Y-17888667D01*
X20073667Y-17888667D02*
X20092714Y-17879143D01*
X20092714Y-17879143D02*
X20121286Y-17879143D01*
X20121286Y-17879143D02*
X20140333Y-17888667D01*
X20140333Y-17888667D02*
X20149857Y-17907714D01*
X20149857Y-17907714D02*
X20149857Y-18012476D01*
X20507952Y-17802952D02*
X20336524Y-18060095D01*
X20732714Y-17812476D02*
X20751762Y-17812476D01*
X20751762Y-17812476D02*
X20770810Y-17822000D01*
X20770810Y-17822000D02*
X20780333Y-17831524D01*
X20780333Y-17831524D02*
X20789857Y-17850571D01*
X20789857Y-17850571D02*
X20799381Y-17888667D01*
X20799381Y-17888667D02*
X20799381Y-17936286D01*
X20799381Y-17936286D02*
X20789857Y-17974381D01*
X20789857Y-17974381D02*
X20780333Y-17993429D01*
X20780333Y-17993429D02*
X20770810Y-18002952D01*
X20770810Y-18002952D02*
X20751762Y-18012476D01*
X20751762Y-18012476D02*
X20732714Y-18012476D01*
X20732714Y-18012476D02*
X20713667Y-18002952D01*
X20713667Y-18002952D02*
X20704143Y-17993429D01*
X20704143Y-17993429D02*
X20694619Y-17974381D01*
X20694619Y-17974381D02*
X20685095Y-17936286D01*
X20685095Y-17936286D02*
X20685095Y-17888667D01*
X20685095Y-17888667D02*
X20694619Y-17850571D01*
X20694619Y-17850571D02*
X20704143Y-17831524D01*
X20704143Y-17831524D02*
X20713667Y-17822000D01*
X20713667Y-17822000D02*
X20732714Y-17812476D01*
X20885095Y-17993429D02*
X20894619Y-18002952D01*
X20894619Y-18002952D02*
X20885095Y-18012476D01*
X20885095Y-18012476D02*
X20875572Y-18002952D01*
X20875572Y-18002952D02*
X20885095Y-17993429D01*
X20885095Y-17993429D02*
X20885095Y-18012476D01*
X21085095Y-18012476D02*
X20970810Y-18012476D01*
X21027952Y-18012476D02*
X21027952Y-17812476D01*
X21027952Y-17812476D02*
X21008905Y-17841048D01*
X21008905Y-17841048D02*
X20989857Y-17860095D01*
X20989857Y-17860095D02*
X20970810Y-17869619D01*
X21266048Y-17812476D02*
X21170810Y-17812476D01*
X21170810Y-17812476D02*
X21161286Y-17907714D01*
X21161286Y-17907714D02*
X21170810Y-17898190D01*
X21170810Y-17898190D02*
X21189857Y-17888667D01*
X21189857Y-17888667D02*
X21237476Y-17888667D01*
X21237476Y-17888667D02*
X21256524Y-17898190D01*
X21256524Y-17898190D02*
X21266048Y-17907714D01*
X21266048Y-17907714D02*
X21275572Y-17926762D01*
X21275572Y-17926762D02*
X21275572Y-17974381D01*
X21275572Y-17974381D02*
X21266048Y-17993429D01*
X21266048Y-17993429D02*
X21256524Y-18002952D01*
X21256524Y-18002952D02*
X21237476Y-18012476D01*
X21237476Y-18012476D02*
X21189857Y-18012476D01*
X21189857Y-18012476D02*
X21170810Y-18002952D01*
X21170810Y-18002952D02*
X21161286Y-17993429D01*
X21342238Y-17812476D02*
X21475572Y-17812476D01*
X21475572Y-17812476D02*
X21389857Y-18012476D01*
X21589857Y-17812476D02*
X21608905Y-17812476D01*
X21608905Y-17812476D02*
X21627953Y-17822000D01*
X21627953Y-17822000D02*
X21637476Y-17831524D01*
X21637476Y-17831524D02*
X21647000Y-17850571D01*
X21647000Y-17850571D02*
X21656524Y-17888667D01*
X21656524Y-17888667D02*
X21656524Y-17936286D01*
X21656524Y-17936286D02*
X21647000Y-17974381D01*
X21647000Y-17974381D02*
X21637476Y-17993429D01*
X21637476Y-17993429D02*
X21627953Y-18002952D01*
X21627953Y-18002952D02*
X21608905Y-18012476D01*
X21608905Y-18012476D02*
X21589857Y-18012476D01*
X21589857Y-18012476D02*
X21570810Y-18002952D01*
X21570810Y-18002952D02*
X21561286Y-17993429D01*
X21561286Y-17993429D02*
X21551762Y-17974381D01*
X21551762Y-17974381D02*
X21542238Y-17936286D01*
X21542238Y-17936286D02*
X21542238Y-17888667D01*
X21542238Y-17888667D02*
X21551762Y-17850571D01*
X21551762Y-17850571D02*
X21561286Y-17831524D01*
X21561286Y-17831524D02*
X21570810Y-17822000D01*
X21570810Y-17822000D02*
X21589857Y-17812476D01*
X21732714Y-17812476D02*
X21732714Y-17850571D01*
X21808905Y-17812476D02*
X21808905Y-17850571D01*
X22071762Y-18088667D02*
X22062238Y-18079143D01*
X22062238Y-18079143D02*
X22043191Y-18050571D01*
X22043191Y-18050571D02*
X22033667Y-18031524D01*
X22033667Y-18031524D02*
X22024143Y-18002952D01*
X22024143Y-18002952D02*
X22014619Y-17955333D01*
X22014619Y-17955333D02*
X22014619Y-17917238D01*
X22014619Y-17917238D02*
X22024143Y-17869619D01*
X22024143Y-17869619D02*
X22033667Y-17841048D01*
X22033667Y-17841048D02*
X22043191Y-17822000D01*
X22043191Y-17822000D02*
X22062238Y-17793429D01*
X22062238Y-17793429D02*
X22071762Y-17783905D01*
X22138429Y-17831524D02*
X22147953Y-17822000D01*
X22147953Y-17822000D02*
X22167000Y-17812476D01*
X22167000Y-17812476D02*
X22214619Y-17812476D01*
X22214619Y-17812476D02*
X22233667Y-17822000D01*
X22233667Y-17822000D02*
X22243191Y-17831524D01*
X22243191Y-17831524D02*
X22252714Y-17850571D01*
X22252714Y-17850571D02*
X22252714Y-17869619D01*
X22252714Y-17869619D02*
X22243191Y-17898190D01*
X22243191Y-17898190D02*
X22128905Y-18012476D01*
X22128905Y-18012476D02*
X22252714Y-18012476D01*
X22424143Y-17812476D02*
X22386048Y-17812476D01*
X22386048Y-17812476D02*
X22367000Y-17822000D01*
X22367000Y-17822000D02*
X22357476Y-17831524D01*
X22357476Y-17831524D02*
X22338429Y-17860095D01*
X22338429Y-17860095D02*
X22328905Y-17898190D01*
X22328905Y-17898190D02*
X22328905Y-17974381D01*
X22328905Y-17974381D02*
X22338429Y-17993429D01*
X22338429Y-17993429D02*
X22347953Y-18002952D01*
X22347953Y-18002952D02*
X22367000Y-18012476D01*
X22367000Y-18012476D02*
X22405095Y-18012476D01*
X22405095Y-18012476D02*
X22424143Y-18002952D01*
X22424143Y-18002952D02*
X22433667Y-17993429D01*
X22433667Y-17993429D02*
X22443191Y-17974381D01*
X22443191Y-17974381D02*
X22443191Y-17926762D01*
X22443191Y-17926762D02*
X22433667Y-17907714D01*
X22433667Y-17907714D02*
X22424143Y-17898190D01*
X22424143Y-17898190D02*
X22405095Y-17888667D01*
X22405095Y-17888667D02*
X22367000Y-17888667D01*
X22367000Y-17888667D02*
X22347953Y-17898190D01*
X22347953Y-17898190D02*
X22338429Y-17907714D01*
X22338429Y-17907714D02*
X22328905Y-17926762D01*
X22648905Y-18012476D02*
X22648905Y-17812476D01*
X22734619Y-18012476D02*
X22734619Y-17907714D01*
X22734619Y-17907714D02*
X22725095Y-17888667D01*
X22725095Y-17888667D02*
X22706048Y-17879143D01*
X22706048Y-17879143D02*
X22677476Y-17879143D01*
X22677476Y-17879143D02*
X22658429Y-17888667D01*
X22658429Y-17888667D02*
X22648905Y-17898190D01*
X22858429Y-18012476D02*
X22839381Y-18002952D01*
X22839381Y-18002952D02*
X22829857Y-17993429D01*
X22829857Y-17993429D02*
X22820333Y-17974381D01*
X22820333Y-17974381D02*
X22820333Y-17917238D01*
X22820333Y-17917238D02*
X22829857Y-17898190D01*
X22829857Y-17898190D02*
X22839381Y-17888667D01*
X22839381Y-17888667D02*
X22858429Y-17879143D01*
X22858429Y-17879143D02*
X22887000Y-17879143D01*
X22887000Y-17879143D02*
X22906048Y-17888667D01*
X22906048Y-17888667D02*
X22915572Y-17898190D01*
X22915572Y-17898190D02*
X22925095Y-17917238D01*
X22925095Y-17917238D02*
X22925095Y-17974381D01*
X22925095Y-17974381D02*
X22915572Y-17993429D01*
X22915572Y-17993429D02*
X22906048Y-18002952D01*
X22906048Y-18002952D02*
X22887000Y-18012476D01*
X22887000Y-18012476D02*
X22858429Y-18012476D01*
X23039381Y-18012476D02*
X23020333Y-18002952D01*
X23020333Y-18002952D02*
X23010810Y-17983905D01*
X23010810Y-17983905D02*
X23010810Y-17812476D01*
X23191762Y-18002952D02*
X23172714Y-18012476D01*
X23172714Y-18012476D02*
X23134619Y-18012476D01*
X23134619Y-18012476D02*
X23115572Y-18002952D01*
X23115572Y-18002952D02*
X23106048Y-17983905D01*
X23106048Y-17983905D02*
X23106048Y-17907714D01*
X23106048Y-17907714D02*
X23115572Y-17888667D01*
X23115572Y-17888667D02*
X23134619Y-17879143D01*
X23134619Y-17879143D02*
X23172714Y-17879143D01*
X23172714Y-17879143D02*
X23191762Y-17888667D01*
X23191762Y-17888667D02*
X23201286Y-17907714D01*
X23201286Y-17907714D02*
X23201286Y-17926762D01*
X23201286Y-17926762D02*
X23106048Y-17945810D01*
X23277476Y-18002952D02*
X23296524Y-18012476D01*
X23296524Y-18012476D02*
X23334619Y-18012476D01*
X23334619Y-18012476D02*
X23353667Y-18002952D01*
X23353667Y-18002952D02*
X23363191Y-17983905D01*
X23363191Y-17983905D02*
X23363191Y-17974381D01*
X23363191Y-17974381D02*
X23353667Y-17955333D01*
X23353667Y-17955333D02*
X23334619Y-17945810D01*
X23334619Y-17945810D02*
X23306048Y-17945810D01*
X23306048Y-17945810D02*
X23287000Y-17936286D01*
X23287000Y-17936286D02*
X23277476Y-17917238D01*
X23277476Y-17917238D02*
X23277476Y-17907714D01*
X23277476Y-17907714D02*
X23287000Y-17888667D01*
X23287000Y-17888667D02*
X23306048Y-17879143D01*
X23306048Y-17879143D02*
X23334619Y-17879143D01*
X23334619Y-17879143D02*
X23353667Y-17888667D01*
X23429857Y-18088667D02*
X23439381Y-18079143D01*
X23439381Y-18079143D02*
X23458429Y-18050571D01*
X23458429Y-18050571D02*
X23467953Y-18031524D01*
X23467953Y-18031524D02*
X23477476Y-18002952D01*
X23477476Y-18002952D02*
X23487000Y-17955333D01*
X23487000Y-17955333D02*
X23487000Y-17917238D01*
X23487000Y-17917238D02*
X23477476Y-17869619D01*
X23477476Y-17869619D02*
X23467953Y-17841048D01*
X23467953Y-17841048D02*
X23458429Y-17822000D01*
X23458429Y-17822000D02*
X23439381Y-17793429D01*
X23439381Y-17793429D02*
X23429857Y-17783905D01*
X23759381Y-18088667D02*
X23749857Y-18079143D01*
X23749857Y-18079143D02*
X23730810Y-18050571D01*
X23730810Y-18050571D02*
X23721286Y-18031524D01*
X23721286Y-18031524D02*
X23711762Y-18002952D01*
X23711762Y-18002952D02*
X23702238Y-17955333D01*
X23702238Y-17955333D02*
X23702238Y-17917238D01*
X23702238Y-17917238D02*
X23711762Y-17869619D01*
X23711762Y-17869619D02*
X23721286Y-17841048D01*
X23721286Y-17841048D02*
X23730810Y-17822000D01*
X23730810Y-17822000D02*
X23749857Y-17793429D01*
X23749857Y-17793429D02*
X23759381Y-17783905D01*
X23835572Y-17879143D02*
X23835572Y-18012476D01*
X23835572Y-17898190D02*
X23845095Y-17888667D01*
X23845095Y-17888667D02*
X23864143Y-17879143D01*
X23864143Y-17879143D02*
X23892714Y-17879143D01*
X23892714Y-17879143D02*
X23911762Y-17888667D01*
X23911762Y-17888667D02*
X23921286Y-17907714D01*
X23921286Y-17907714D02*
X23921286Y-18012476D01*
X24045095Y-18012476D02*
X24026048Y-18002952D01*
X24026048Y-18002952D02*
X24016524Y-17993429D01*
X24016524Y-17993429D02*
X24007000Y-17974381D01*
X24007000Y-17974381D02*
X24007000Y-17917238D01*
X24007000Y-17917238D02*
X24016524Y-17898190D01*
X24016524Y-17898190D02*
X24026048Y-17888667D01*
X24026048Y-17888667D02*
X24045095Y-17879143D01*
X24045095Y-17879143D02*
X24073667Y-17879143D01*
X24073667Y-17879143D02*
X24092714Y-17888667D01*
X24092714Y-17888667D02*
X24102238Y-17898190D01*
X24102238Y-17898190D02*
X24111762Y-17917238D01*
X24111762Y-17917238D02*
X24111762Y-17974381D01*
X24111762Y-17974381D02*
X24102238Y-17993429D01*
X24102238Y-17993429D02*
X24092714Y-18002952D01*
X24092714Y-18002952D02*
X24073667Y-18012476D01*
X24073667Y-18012476D02*
X24045095Y-18012476D01*
X24168905Y-17879143D02*
X24245095Y-17879143D01*
X24197476Y-17812476D02*
X24197476Y-17983905D01*
X24197476Y-17983905D02*
X24207000Y-18002952D01*
X24207000Y-18002952D02*
X24226048Y-18012476D01*
X24226048Y-18012476D02*
X24245095Y-18012476D01*
X24431762Y-17879143D02*
X24431762Y-18079143D01*
X24431762Y-17888667D02*
X24450810Y-17879143D01*
X24450810Y-17879143D02*
X24488905Y-17879143D01*
X24488905Y-17879143D02*
X24507953Y-17888667D01*
X24507953Y-17888667D02*
X24517476Y-17898190D01*
X24517476Y-17898190D02*
X24527000Y-17917238D01*
X24527000Y-17917238D02*
X24527000Y-17974381D01*
X24527000Y-17974381D02*
X24517476Y-17993429D01*
X24517476Y-17993429D02*
X24507953Y-18002952D01*
X24507953Y-18002952D02*
X24488905Y-18012476D01*
X24488905Y-18012476D02*
X24450810Y-18012476D01*
X24450810Y-18012476D02*
X24431762Y-18002952D01*
X24641286Y-18012476D02*
X24622238Y-18002952D01*
X24622238Y-18002952D02*
X24612714Y-17983905D01*
X24612714Y-17983905D02*
X24612714Y-17812476D01*
X24803191Y-18012476D02*
X24803191Y-17907714D01*
X24803191Y-17907714D02*
X24793667Y-17888667D01*
X24793667Y-17888667D02*
X24774619Y-17879143D01*
X24774619Y-17879143D02*
X24736524Y-17879143D01*
X24736524Y-17879143D02*
X24717476Y-17888667D01*
X24803191Y-18002952D02*
X24784143Y-18012476D01*
X24784143Y-18012476D02*
X24736524Y-18012476D01*
X24736524Y-18012476D02*
X24717476Y-18002952D01*
X24717476Y-18002952D02*
X24707953Y-17983905D01*
X24707953Y-17983905D02*
X24707953Y-17964857D01*
X24707953Y-17964857D02*
X24717476Y-17945810D01*
X24717476Y-17945810D02*
X24736524Y-17936286D01*
X24736524Y-17936286D02*
X24784143Y-17936286D01*
X24784143Y-17936286D02*
X24803191Y-17926762D01*
X24869857Y-17879143D02*
X24946048Y-17879143D01*
X24898429Y-17812476D02*
X24898429Y-17983905D01*
X24898429Y-17983905D02*
X24907953Y-18002952D01*
X24907953Y-18002952D02*
X24927000Y-18012476D01*
X24927000Y-18012476D02*
X24946048Y-18012476D01*
X25088905Y-18002952D02*
X25069857Y-18012476D01*
X25069857Y-18012476D02*
X25031762Y-18012476D01*
X25031762Y-18012476D02*
X25012714Y-18002952D01*
X25012714Y-18002952D02*
X25003191Y-17983905D01*
X25003191Y-17983905D02*
X25003191Y-17907714D01*
X25003191Y-17907714D02*
X25012714Y-17888667D01*
X25012714Y-17888667D02*
X25031762Y-17879143D01*
X25031762Y-17879143D02*
X25069857Y-17879143D01*
X25069857Y-17879143D02*
X25088905Y-17888667D01*
X25088905Y-17888667D02*
X25098429Y-17907714D01*
X25098429Y-17907714D02*
X25098429Y-17926762D01*
X25098429Y-17926762D02*
X25003191Y-17945810D01*
X25269857Y-18012476D02*
X25269857Y-17812476D01*
X25269857Y-18002952D02*
X25250810Y-18012476D01*
X25250810Y-18012476D02*
X25212714Y-18012476D01*
X25212714Y-18012476D02*
X25193667Y-18002952D01*
X25193667Y-18002952D02*
X25184143Y-17993429D01*
X25184143Y-17993429D02*
X25174619Y-17974381D01*
X25174619Y-17974381D02*
X25174619Y-17917238D01*
X25174619Y-17917238D02*
X25184143Y-17898190D01*
X25184143Y-17898190D02*
X25193667Y-17888667D01*
X25193667Y-17888667D02*
X25212714Y-17879143D01*
X25212714Y-17879143D02*
X25250810Y-17879143D01*
X25250810Y-17879143D02*
X25269857Y-17888667D01*
X25346048Y-18088667D02*
X25355572Y-18079143D01*
X25355572Y-18079143D02*
X25374619Y-18050571D01*
X25374619Y-18050571D02*
X25384143Y-18031524D01*
X25384143Y-18031524D02*
X25393667Y-18002952D01*
X25393667Y-18002952D02*
X25403191Y-17955333D01*
X25403191Y-17955333D02*
X25403191Y-17917238D01*
X25403191Y-17917238D02*
X25393667Y-17869619D01*
X25393667Y-17869619D02*
X25384143Y-17841048D01*
X25384143Y-17841048D02*
X25374619Y-17822000D01*
X25374619Y-17822000D02*
X25355572Y-17793429D01*
X25355572Y-17793429D02*
X25346048Y-17783905D01*
M02*
