G04 #@! TF.GenerationSoftware,KiCad,Pcbnew,(7.0.0)*
G04 #@! TF.CreationDate,2025-08-06T12:48:58-07:00*
G04 #@! TF.ProjectId,HybridBoxNew,48796272-6964-4426-9f78-4e65772e6b69,rev?*
G04 #@! TF.SameCoordinates,Original*
G04 #@! TF.FileFunction,Legend,Top*
G04 #@! TF.FilePolarity,Positive*
%FSLAX46Y46*%
G04 Gerber Fmt 4.6, Leading zero omitted, Abs format (unit mm)*
G04 Created by KiCad (PCBNEW (7.0.0)) date 2025-08-06 12:48:58*
%MOMM*%
%LPD*%
G01*
G04 APERTURE LIST*
%ADD10C,0.150000*%
%ADD11C,0.120000*%
%ADD12C,3.800000*%
%ADD13C,1.750000*%
%ADD14C,3.987800*%
%ADD15C,5.600000*%
%ADD16R,1.700000X1.700000*%
%ADD17O,1.700000X1.700000*%
%ADD18C,3.300000*%
G04 APERTURE END LIST*
D10*
D11*
X222630000Y-70335000D02*
X221300000Y-70335000D01*
X222630000Y-69005000D02*
X222630000Y-70335000D01*
X222630000Y-67735000D02*
X222630000Y-65135000D01*
X222630000Y-67735000D02*
X219970000Y-67735000D01*
X222630000Y-65135000D02*
X219970000Y-65135000D01*
X219970000Y-67735000D02*
X219970000Y-65135000D01*
%LPC*%
D12*
X198035000Y-107130000D03*
X318035000Y-107130000D03*
D13*
X253422967Y-92263373D03*
D14*
X248342967Y-92263373D03*
D13*
X243262967Y-92263373D03*
D12*
X303755000Y-152170000D03*
X268035000Y-107130000D03*
D13*
X235748565Y-117478960D03*
D14*
X230668565Y-117478960D03*
D13*
X225588565Y-117478960D03*
D12*
X190860000Y-161150000D03*
D13*
X242819837Y-142601357D03*
D14*
X237739837Y-142601357D03*
D13*
X232659837Y-142601357D03*
D15*
X216140000Y-37670000D03*
D13*
X269036859Y-48144517D03*
D14*
X263956859Y-48144517D03*
D13*
X258876859Y-48144517D03*
X304091667Y-69348545D03*
D14*
X299011667Y-69348545D03*
D13*
X293931667Y-69348545D03*
X216916182Y-133583438D03*
D14*
X211836182Y-133583438D03*
D13*
X206756182Y-133583438D03*
X275932853Y-73813729D03*
D14*
X270852853Y-73813729D03*
D13*
X265772853Y-73813729D03*
X297195673Y-43679333D03*
D14*
X292115673Y-43679333D03*
D13*
X287035673Y-43679333D03*
X260715123Y-121847547D03*
D14*
X255635123Y-121847547D03*
D13*
X250555123Y-121847547D03*
X219987454Y-160705835D03*
D14*
X214907454Y-160705835D03*
D13*
X209827454Y-160705835D03*
D16*
X221299999Y-69004999D03*
D17*
X221299999Y-66464999D03*
D12*
X303820000Y-55683383D03*
X190860000Y-42610000D03*
D13*
X246527232Y-66595127D03*
D14*
X241447232Y-66595127D03*
D13*
X236367232Y-66595127D03*
X333571562Y-78051119D03*
D14*
X328491562Y-78051119D03*
D13*
X323411562Y-78051119D03*
X326675568Y-52381907D03*
D14*
X321595568Y-52381907D03*
D13*
X316515568Y-52381907D03*
D15*
X198140000Y-37670000D03*
D13*
X216916182Y-133583438D03*
D14*
X211836182Y-133583438D03*
D13*
X206756182Y-133583438D03*
D18*
X208026182Y-131043438D03*
X214376182Y-128503438D03*
D13*
X246527232Y-66595127D03*
D14*
X241447232Y-66595127D03*
D13*
X236367232Y-66595127D03*
D18*
X237637232Y-64055127D03*
X243987232Y-61515127D03*
D13*
X260715123Y-121847547D03*
D14*
X255635123Y-121847547D03*
D13*
X250555123Y-121847547D03*
D18*
X251825123Y-119307547D03*
X258175123Y-116767547D03*
D13*
X304091667Y-69348545D03*
D14*
X299011667Y-69348545D03*
D13*
X293931667Y-69348545D03*
D18*
X295201667Y-66808545D03*
X301551667Y-64268545D03*
D13*
X297195673Y-43679333D03*
D14*
X292115673Y-43679333D03*
D13*
X287035673Y-43679333D03*
D18*
X288305673Y-41139333D03*
X294655673Y-38599333D03*
D13*
X275932853Y-73813729D03*
D14*
X270852853Y-73813729D03*
D13*
X265772853Y-73813729D03*
D18*
X267042853Y-71273729D03*
X273392853Y-68733729D03*
D13*
X235748565Y-117478960D03*
D14*
X230668565Y-117478960D03*
D13*
X225588565Y-117478960D03*
D18*
X226858565Y-114938960D03*
X233208565Y-112398960D03*
D13*
X269036859Y-48144517D03*
D14*
X263956859Y-48144517D03*
D13*
X258876859Y-48144517D03*
D18*
X260146859Y-45604517D03*
X266496859Y-43064517D03*
D13*
X242819837Y-142601357D03*
D14*
X237739837Y-142601357D03*
D13*
X232659837Y-142601357D03*
D18*
X233929837Y-140061357D03*
X240279837Y-137521357D03*
D13*
X253422967Y-92263373D03*
D14*
X248342967Y-92263373D03*
D13*
X243262967Y-92263373D03*
D18*
X244532967Y-89723373D03*
X250882967Y-87183373D03*
D13*
X219987454Y-160705835D03*
D14*
X214907454Y-160705835D03*
D13*
X209827454Y-160705835D03*
D18*
X211097454Y-158165835D03*
X217447454Y-155625835D03*
D13*
X333571562Y-78051119D03*
D14*
X328491562Y-78051119D03*
D13*
X323411562Y-78051119D03*
D18*
X324681562Y-75511119D03*
X331031562Y-72971119D03*
D13*
X326675568Y-52381907D03*
D14*
X321595568Y-52381907D03*
D13*
X316515568Y-52381907D03*
D18*
X317785568Y-49841907D03*
X324135568Y-47301907D03*
M02*
