M48
; DRILL file {KiCad (7.0.0)} date Wed Aug  6 12:49:00 2025
; FORMAT={-:-/ absolute / metric / decimal}
; #@! TF.CreationDate,2025-08-06T12:49:00-07:00
; #@! TF.GenerationSoftware,Kicad,Pcbnew,(7.0.0)
; #@! TF.FileFunction,NonPlated,1,2,NPTH
FMAT,2
METRIC
; #@! TA.AperFunction,NonPlated,NPTH,ComponentDrill
T1C1.750
; #@! TA.AperFunction,NonPlated,NPTH,ComponentDrill
T2C3.988
%
G90
G05
T1
X206.756Y-133.583
X206.756Y-133.583
X209.827Y-160.706
X209.827Y-160.706
X216.916Y-133.583
X216.916Y-133.583
X219.987Y-160.706
X219.987Y-160.706
X225.589Y-117.479
X225.589Y-117.479
X232.66Y-142.601
X232.66Y-142.601
X235.749Y-117.479
X235.749Y-117.479
X236.367Y-66.595
X236.367Y-66.595
X242.82Y-142.601
X242.82Y-142.601
X243.263Y-92.263
X243.263Y-92.263
X246.527Y-66.595
X246.527Y-66.595
X250.555Y-121.848
X250.555Y-121.848
X253.423Y-92.263
X253.423Y-92.263
X258.877Y-48.145
X258.877Y-48.145
X260.715Y-121.848
X260.715Y-121.848
X265.773Y-73.814
X265.773Y-73.814
X269.037Y-48.145
X269.037Y-48.145
X275.933Y-73.814
X275.933Y-73.814
X287.036Y-43.679
X287.036Y-43.679
X293.932Y-69.349
X293.932Y-69.349
X297.196Y-43.679
X297.196Y-43.679
X304.092Y-69.349
X304.092Y-69.349
X316.516Y-52.382
X316.516Y-52.382
X323.412Y-78.051
X323.412Y-78.051
X326.676Y-52.382
X326.676Y-52.382
X333.572Y-78.051
X333.572Y-78.051
T2
X211.836Y-133.583
X211.836Y-133.583
X214.907Y-160.706
X214.907Y-160.706
X230.669Y-117.479
X230.669Y-117.479
X237.74Y-142.601
X237.74Y-142.601
X241.447Y-66.595
X241.447Y-66.595
X248.343Y-92.263
X248.343Y-92.263
X255.635Y-121.848
X255.635Y-121.848
X263.957Y-48.145
X263.957Y-48.145
X270.853Y-73.814
X270.853Y-73.814
X292.116Y-43.679
X292.116Y-43.679
X299.012Y-69.349
X299.012Y-69.349
X321.596Y-52.382
X321.596Y-52.382
X328.492Y-78.051
X328.492Y-78.051
T0
M30
