M48
; DRILL file {KiCad (7.0.0)} date Fri Jun  6 01:27:24 2025
; FORMAT={-:-/ absolute / metric / decimal}
; #@! TF.CreationDate,2025-06-06T01:27:24-07:00
; #@! TF.GenerationSoftware,Kicad,Pcbnew,(7.0.0)
; #@! TF.FileFunction,Plated,1,2,PTH
FMAT,2
METRIC
; #@! TA.AperFunction,Plated,PTH,ViaDrill
T1C0.300
; #@! TA.AperFunction,Plated,PTH,ViaDrill
T2C0.350
; #@! TA.AperFunction,Plated,PTH,ComponentDrill
T3C0.350
; #@! TA.AperFunction,Plated,PTH,ViaDrill
T4C0.400
; #@! TA.AperFunction,Plated,PTH,ComponentDrill
T5C1.000
; #@! TA.AperFunction,Plated,PTH,ComponentDrill
T6C1.524
; #@! TA.AperFunction,Plated,PTH,ComponentDrill
T7C2.200
; #@! TA.AperFunction,Plated,PTH,ComponentDrill
T8C3.000
; #@! TA.AperFunction,Plated,PTH,ComponentDrill
T9C3.200
%
G90
G05
T1
X189.07Y-99.5
X190.04Y-99.94
X190.73Y-100.35
X191.43Y-100.76
X192.08Y-101.25
X192.76Y-101.74
X193.46Y-102.16
X194.17Y-102.55
X194.237Y-68.74
X194.87Y-102.96
X195.14Y-52.67
X197.14Y-54.67
X197.657Y-68.21
X198.437Y-69.93
X198.657Y-61.52
X199.286Y-73.802
X200.087Y-70.59
X200.247Y-68.15
X200.38Y-64.44
X201.267Y-62.68
X203.555Y-62.629
X204.063Y-77.361
X204.91Y-79.32
X205.83Y-55.78
X206.349Y-82.949
X206.44Y-79.33
X207.568Y-118.664
X207.64Y-62.67
X207.78Y-63.622
X209.14Y-116.47
X210.14Y-61.17
X213.052Y-80.282
X214.337Y-61.752
X218.14Y-67.67
X218.21Y-115.926
X218.297Y-58.04
X218.3Y-54.905
X219.76Y-109.15
X225.29Y-60.835
T2
X206.603Y-68.127
X206.73Y-72.364
T3
X206.062Y-68.99
X206.062Y-70.265
X206.062Y-71.54
X207.337Y-68.99
X207.337Y-70.265
X207.337Y-71.54
X208.612Y-68.99
X208.612Y-70.265
X208.612Y-71.54
T4
X200.986Y-54.786
X202.616Y-56.826
X208.82Y-53.75
X209.793Y-56.426
X209.813Y-59.296
X212.006Y-56.816
X213.676Y-54.736
X217.46Y-71.46
X223.95Y-74.93
X228.09Y-75.19
X228.11Y-79.92
X229.1Y-76.69
X230.09Y-79.9
X230.12Y-76.03
X232.07Y-79.91
X232.1Y-76.04
X233.05Y-81.38
X237.37Y-74.95
T5
X221.3Y-66.465
X221.3Y-69.005
T6
X209.296Y-138.663
X212.367Y-165.786
X215.646Y-136.123
X218.717Y-163.246
X228.129Y-122.559
X234.479Y-120.019
X235.2Y-147.681
X238.907Y-71.675
X241.55Y-145.141
X245.257Y-69.135
X245.803Y-97.343
X252.153Y-94.803
X253.095Y-126.928
X259.445Y-124.388
X261.417Y-53.225
X267.767Y-50.685
X268.313Y-78.894
X274.663Y-76.354
X289.576Y-48.759
X295.926Y-46.219
X296.472Y-74.429
X302.822Y-71.889
X319.056Y-57.462
X325.406Y-54.922
X325.952Y-83.131
X332.302Y-80.591
T7
X190.86Y-42.61
X190.86Y-161.15
X278.035Y-107.13
X303.755Y-152.17
X303.82Y-55.683
T8
X208.026Y-131.043
X211.097Y-158.166
X214.376Y-128.503
X217.447Y-155.626
X226.859Y-114.939
X233.209Y-112.399
X233.93Y-140.061
X237.637Y-64.055
X240.28Y-137.521
X243.987Y-61.515
X244.533Y-89.723
X250.883Y-87.183
X251.825Y-119.308
X258.175Y-116.768
X260.147Y-45.605
X266.497Y-43.065
X267.043Y-71.274
X273.393Y-68.734
X288.306Y-41.139
X294.656Y-38.599
X295.202Y-66.809
X301.552Y-64.269
X317.786Y-49.842
X324.136Y-47.302
X324.682Y-75.511
X331.032Y-72.971
T9
X198.14Y-37.67
X216.14Y-37.67
T0
M30
