G04 #@! TF.GenerationSoftware,KiCad,Pcbnew,(7.0.0)*
G04 #@! TF.CreationDate,2025-06-06T01:27:20-07:00*
G04 #@! TF.ProjectId,HybridBoxNew,48796272-6964-4426-9f78-4e65772e6b69,rev?*
G04 #@! TF.SameCoordinates,Original*
G04 #@! TF.FileFunction,Legend,Bot*
G04 #@! TF.FilePolarity,Positive*
%FSLAX46Y46*%
G04 Gerber Fmt 4.6, Leading zero omitted, Abs format (unit mm)*
G04 Created by KiCad (PCBNEW (7.0.0)) date 2025-06-06 01:27:20*
%MOMM*%
%LPD*%
G01*
G04 APERTURE LIST*
G04 Aperture macros list*
%AMRoundRect*
0 Rectangle with rounded corners*
0 $1 Rounding radius*
0 $2 $3 $4 $5 $6 $7 $8 $9 X,Y pos of 4 corners*
0 Add a 4 corners polygon primitive as box body*
4,1,4,$2,$3,$4,$5,$6,$7,$8,$9,$2,$3,0*
0 Add four circle primitives for the rounded corners*
1,1,$1+$1,$2,$3*
1,1,$1+$1,$4,$5*
1,1,$1+$1,$6,$7*
1,1,$1+$1,$8,$9*
0 Add four rect primitives between the rounded corners*
20,1,$1+$1,$2,$3,$4,$5,0*
20,1,$1+$1,$4,$5,$6,$7,0*
20,1,$1+$1,$6,$7,$8,$9,0*
20,1,$1+$1,$8,$9,$2,$3,0*%
G04 Aperture macros list end*
%ADD10C,0.150000*%
%ADD11C,0.120000*%
%ADD12C,0.254000*%
%ADD13C,0.059995*%
%ADD14C,1.750000*%
%ADD15C,3.987800*%
%ADD16C,2.300000*%
%ADD17C,3.800000*%
%ADD18C,5.600000*%
%ADD19R,1.700000X1.700000*%
%ADD20O,1.700000X1.700000*%
%ADD21C,3.300000*%
%ADD22RoundRect,0.300000X1.200000X1.275000X-1.200000X1.275000X-1.200000X-1.275000X1.200000X-1.275000X0*%
%ADD23RoundRect,0.140000X0.170000X-0.140000X0.170000X0.140000X-0.170000X0.140000X-0.170000X-0.140000X0*%
%ADD24RoundRect,0.140000X0.140000X0.170000X-0.140000X0.170000X-0.140000X-0.170000X0.140000X-0.170000X0*%
%ADD25RoundRect,0.140000X-0.170000X0.140000X-0.170000X-0.140000X0.170000X-0.140000X0.170000X0.140000X0*%
%ADD26RoundRect,0.200000X0.275000X-0.200000X0.275000X0.200000X-0.275000X0.200000X-0.275000X-0.200000X0*%
%ADD27RoundRect,0.140000X-0.140000X-0.170000X0.140000X-0.170000X0.140000X0.170000X-0.140000X0.170000X0*%
%ADD28R,0.300000X1.300000*%
%ADD29R,1.729997X2.600000*%
%ADD30RoundRect,0.243750X-0.243750X-0.456250X0.243750X-0.456250X0.243750X0.456250X-0.243750X0.456250X0*%
%ADD31RoundRect,0.050000X0.387500X0.050000X-0.387500X0.050000X-0.387500X-0.050000X0.387500X-0.050000X0*%
%ADD32RoundRect,0.050000X0.050000X0.387500X-0.050000X0.387500X-0.050000X-0.387500X0.050000X-0.387500X0*%
%ADD33RoundRect,0.144000X1.456000X1.456000X-1.456000X1.456000X-1.456000X-1.456000X1.456000X-1.456000X0*%
%ADD34RoundRect,0.200000X0.200000X0.275000X-0.200000X0.275000X-0.200000X-0.275000X0.200000X-0.275000X0*%
%ADD35R,1.400000X1.200000*%
%ADD36RoundRect,0.225000X0.225000X0.375000X-0.225000X0.375000X-0.225000X-0.375000X0.225000X-0.375000X0*%
%ADD37RoundRect,0.150000X0.150000X-0.587500X0.150000X0.587500X-0.150000X0.587500X-0.150000X-0.587500X0*%
%ADD38RoundRect,0.135000X0.135000X0.185000X-0.135000X0.185000X-0.135000X-0.185000X0.135000X-0.185000X0*%
%ADD39RoundRect,0.200000X-0.275000X0.200000X-0.275000X-0.200000X0.275000X-0.200000X0.275000X0.200000X0*%
%ADD40RoundRect,0.135000X-0.135000X-0.185000X0.135000X-0.185000X0.135000X0.185000X-0.135000X0.185000X0*%
%ADD41RoundRect,0.150000X0.650000X0.150000X-0.650000X0.150000X-0.650000X-0.150000X0.650000X-0.150000X0*%
%ADD42RoundRect,0.135000X0.185000X-0.135000X0.185000X0.135000X-0.185000X0.135000X-0.185000X-0.135000X0*%
%ADD43RoundRect,0.140000X-0.021213X0.219203X-0.219203X0.021213X0.021213X-0.219203X0.219203X-0.021213X0*%
G04 APERTURE END LIST*
D10*
X217895705Y-132153199D02*
X217752848Y-132200818D01*
X217752848Y-132200818D02*
X217514753Y-132200818D01*
X217514753Y-132200818D02*
X217419515Y-132153199D01*
X217419515Y-132153199D02*
X217371896Y-132105580D01*
X217371896Y-132105580D02*
X217324277Y-132010342D01*
X217324277Y-132010342D02*
X217324277Y-131915104D01*
X217324277Y-131915104D02*
X217371896Y-131819866D01*
X217371896Y-131819866D02*
X217419515Y-131772247D01*
X217419515Y-131772247D02*
X217514753Y-131724628D01*
X217514753Y-131724628D02*
X217705229Y-131677009D01*
X217705229Y-131677009D02*
X217800467Y-131629390D01*
X217800467Y-131629390D02*
X217848086Y-131581771D01*
X217848086Y-131581771D02*
X217895705Y-131486533D01*
X217895705Y-131486533D02*
X217895705Y-131391295D01*
X217895705Y-131391295D02*
X217848086Y-131296057D01*
X217848086Y-131296057D02*
X217800467Y-131248438D01*
X217800467Y-131248438D02*
X217705229Y-131200818D01*
X217705229Y-131200818D02*
X217467134Y-131200818D01*
X217467134Y-131200818D02*
X217324277Y-131248438D01*
X216990943Y-131200818D02*
X216752848Y-132200818D01*
X216752848Y-132200818D02*
X216562372Y-131486533D01*
X216562372Y-131486533D02*
X216371896Y-132200818D01*
X216371896Y-132200818D02*
X216133801Y-131200818D01*
X215848086Y-131200818D02*
X215229039Y-131200818D01*
X215229039Y-131200818D02*
X215562372Y-131581771D01*
X215562372Y-131581771D02*
X215419515Y-131581771D01*
X215419515Y-131581771D02*
X215324277Y-131629390D01*
X215324277Y-131629390D02*
X215276658Y-131677009D01*
X215276658Y-131677009D02*
X215229039Y-131772247D01*
X215229039Y-131772247D02*
X215229039Y-132010342D01*
X215229039Y-132010342D02*
X215276658Y-132105580D01*
X215276658Y-132105580D02*
X215324277Y-132153199D01*
X215324277Y-132153199D02*
X215419515Y-132200818D01*
X215419515Y-132200818D02*
X215705229Y-132200818D01*
X215705229Y-132200818D02*
X215800467Y-132153199D01*
X215800467Y-132153199D02*
X215848086Y-132105580D01*
X214848086Y-131296057D02*
X214800467Y-131248438D01*
X214800467Y-131248438D02*
X214705229Y-131200818D01*
X214705229Y-131200818D02*
X214467134Y-131200818D01*
X214467134Y-131200818D02*
X214371896Y-131248438D01*
X214371896Y-131248438D02*
X214324277Y-131296057D01*
X214324277Y-131296057D02*
X214276658Y-131391295D01*
X214276658Y-131391295D02*
X214276658Y-131486533D01*
X214276658Y-131486533D02*
X214324277Y-131629390D01*
X214324277Y-131629390D02*
X214895705Y-132200818D01*
X214895705Y-132200818D02*
X214276658Y-132200818D01*
X203730285Y-61964285D02*
X203758857Y-61935713D01*
X203758857Y-61935713D02*
X203787428Y-61849999D01*
X203787428Y-61849999D02*
X203787428Y-61792856D01*
X203787428Y-61792856D02*
X203758857Y-61707142D01*
X203758857Y-61707142D02*
X203701714Y-61649999D01*
X203701714Y-61649999D02*
X203644571Y-61621428D01*
X203644571Y-61621428D02*
X203530285Y-61592856D01*
X203530285Y-61592856D02*
X203444571Y-61592856D01*
X203444571Y-61592856D02*
X203330285Y-61621428D01*
X203330285Y-61621428D02*
X203273142Y-61649999D01*
X203273142Y-61649999D02*
X203216000Y-61707142D01*
X203216000Y-61707142D02*
X203187428Y-61792856D01*
X203187428Y-61792856D02*
X203187428Y-61849999D01*
X203187428Y-61849999D02*
X203216000Y-61935713D01*
X203216000Y-61935713D02*
X203244571Y-61964285D01*
X203787428Y-62535713D02*
X203787428Y-62192856D01*
X203787428Y-62364285D02*
X203187428Y-62364285D01*
X203187428Y-62364285D02*
X203273142Y-62307142D01*
X203273142Y-62307142D02*
X203330285Y-62249999D01*
X203330285Y-62249999D02*
X203358857Y-62192856D01*
X203244571Y-62764285D02*
X203216000Y-62792857D01*
X203216000Y-62792857D02*
X203187428Y-62850000D01*
X203187428Y-62850000D02*
X203187428Y-62992857D01*
X203187428Y-62992857D02*
X203216000Y-63050000D01*
X203216000Y-63050000D02*
X203244571Y-63078571D01*
X203244571Y-63078571D02*
X203301714Y-63107142D01*
X203301714Y-63107142D02*
X203358857Y-63107142D01*
X203358857Y-63107142D02*
X203444571Y-63078571D01*
X203444571Y-63078571D02*
X203787428Y-62735714D01*
X203787428Y-62735714D02*
X203787428Y-63107142D01*
X247506755Y-65164888D02*
X247363898Y-65212507D01*
X247363898Y-65212507D02*
X247125803Y-65212507D01*
X247125803Y-65212507D02*
X247030565Y-65164888D01*
X247030565Y-65164888D02*
X246982946Y-65117269D01*
X246982946Y-65117269D02*
X246935327Y-65022031D01*
X246935327Y-65022031D02*
X246935327Y-64926793D01*
X246935327Y-64926793D02*
X246982946Y-64831555D01*
X246982946Y-64831555D02*
X247030565Y-64783936D01*
X247030565Y-64783936D02*
X247125803Y-64736317D01*
X247125803Y-64736317D02*
X247316279Y-64688698D01*
X247316279Y-64688698D02*
X247411517Y-64641079D01*
X247411517Y-64641079D02*
X247459136Y-64593460D01*
X247459136Y-64593460D02*
X247506755Y-64498222D01*
X247506755Y-64498222D02*
X247506755Y-64402984D01*
X247506755Y-64402984D02*
X247459136Y-64307746D01*
X247459136Y-64307746D02*
X247411517Y-64260127D01*
X247411517Y-64260127D02*
X247316279Y-64212507D01*
X247316279Y-64212507D02*
X247078184Y-64212507D01*
X247078184Y-64212507D02*
X246935327Y-64260127D01*
X246601993Y-64212507D02*
X246363898Y-65212507D01*
X246363898Y-65212507D02*
X246173422Y-64498222D01*
X246173422Y-64498222D02*
X245982946Y-65212507D01*
X245982946Y-65212507D02*
X245744851Y-64212507D01*
X244840089Y-65212507D02*
X245411517Y-65212507D01*
X245125803Y-65212507D02*
X245125803Y-64212507D01*
X245125803Y-64212507D02*
X245221041Y-64355365D01*
X245221041Y-64355365D02*
X245316279Y-64450603D01*
X245316279Y-64450603D02*
X245411517Y-64498222D01*
X244506755Y-64212507D02*
X243887708Y-64212507D01*
X243887708Y-64212507D02*
X244221041Y-64593460D01*
X244221041Y-64593460D02*
X244078184Y-64593460D01*
X244078184Y-64593460D02*
X243982946Y-64641079D01*
X243982946Y-64641079D02*
X243935327Y-64688698D01*
X243935327Y-64688698D02*
X243887708Y-64783936D01*
X243887708Y-64783936D02*
X243887708Y-65022031D01*
X243887708Y-65022031D02*
X243935327Y-65117269D01*
X243935327Y-65117269D02*
X243982946Y-65164888D01*
X243982946Y-65164888D02*
X244078184Y-65212507D01*
X244078184Y-65212507D02*
X244363898Y-65212507D01*
X244363898Y-65212507D02*
X244459136Y-65164888D01*
X244459136Y-65164888D02*
X244506755Y-65117269D01*
X209303285Y-59722035D02*
X209331857Y-59693463D01*
X209331857Y-59693463D02*
X209360428Y-59607749D01*
X209360428Y-59607749D02*
X209360428Y-59550606D01*
X209360428Y-59550606D02*
X209331857Y-59464892D01*
X209331857Y-59464892D02*
X209274714Y-59407749D01*
X209274714Y-59407749D02*
X209217571Y-59379178D01*
X209217571Y-59379178D02*
X209103285Y-59350606D01*
X209103285Y-59350606D02*
X209017571Y-59350606D01*
X209017571Y-59350606D02*
X208903285Y-59379178D01*
X208903285Y-59379178D02*
X208846142Y-59407749D01*
X208846142Y-59407749D02*
X208789000Y-59464892D01*
X208789000Y-59464892D02*
X208760428Y-59550606D01*
X208760428Y-59550606D02*
X208760428Y-59607749D01*
X208760428Y-59607749D02*
X208789000Y-59693463D01*
X208789000Y-59693463D02*
X208817571Y-59722035D01*
X209360428Y-60293463D02*
X209360428Y-59950606D01*
X209360428Y-60122035D02*
X208760428Y-60122035D01*
X208760428Y-60122035D02*
X208846142Y-60064892D01*
X208846142Y-60064892D02*
X208903285Y-60007749D01*
X208903285Y-60007749D02*
X208931857Y-59950606D01*
X208760428Y-60664892D02*
X208760428Y-60722035D01*
X208760428Y-60722035D02*
X208789000Y-60779178D01*
X208789000Y-60779178D02*
X208817571Y-60807750D01*
X208817571Y-60807750D02*
X208874714Y-60836321D01*
X208874714Y-60836321D02*
X208989000Y-60864892D01*
X208989000Y-60864892D02*
X209131857Y-60864892D01*
X209131857Y-60864892D02*
X209246142Y-60836321D01*
X209246142Y-60836321D02*
X209303285Y-60807750D01*
X209303285Y-60807750D02*
X209331857Y-60779178D01*
X209331857Y-60779178D02*
X209360428Y-60722035D01*
X209360428Y-60722035D02*
X209360428Y-60664892D01*
X209360428Y-60664892D02*
X209331857Y-60607750D01*
X209331857Y-60607750D02*
X209303285Y-60579178D01*
X209303285Y-60579178D02*
X209246142Y-60550607D01*
X209246142Y-60550607D02*
X209131857Y-60522035D01*
X209131857Y-60522035D02*
X208989000Y-60522035D01*
X208989000Y-60522035D02*
X208874714Y-60550607D01*
X208874714Y-60550607D02*
X208817571Y-60579178D01*
X208817571Y-60579178D02*
X208789000Y-60607750D01*
X208789000Y-60607750D02*
X208760428Y-60664892D01*
X261694646Y-120417308D02*
X261551789Y-120464927D01*
X261551789Y-120464927D02*
X261313694Y-120464927D01*
X261313694Y-120464927D02*
X261218456Y-120417308D01*
X261218456Y-120417308D02*
X261170837Y-120369689D01*
X261170837Y-120369689D02*
X261123218Y-120274451D01*
X261123218Y-120274451D02*
X261123218Y-120179213D01*
X261123218Y-120179213D02*
X261170837Y-120083975D01*
X261170837Y-120083975D02*
X261218456Y-120036356D01*
X261218456Y-120036356D02*
X261313694Y-119988737D01*
X261313694Y-119988737D02*
X261504170Y-119941118D01*
X261504170Y-119941118D02*
X261599408Y-119893499D01*
X261599408Y-119893499D02*
X261647027Y-119845880D01*
X261647027Y-119845880D02*
X261694646Y-119750642D01*
X261694646Y-119750642D02*
X261694646Y-119655404D01*
X261694646Y-119655404D02*
X261647027Y-119560166D01*
X261647027Y-119560166D02*
X261599408Y-119512547D01*
X261599408Y-119512547D02*
X261504170Y-119464927D01*
X261504170Y-119464927D02*
X261266075Y-119464927D01*
X261266075Y-119464927D02*
X261123218Y-119512547D01*
X260789884Y-119464927D02*
X260551789Y-120464927D01*
X260551789Y-120464927D02*
X260361313Y-119750642D01*
X260361313Y-119750642D02*
X260170837Y-120464927D01*
X260170837Y-120464927D02*
X259932742Y-119464927D01*
X259123218Y-119798261D02*
X259123218Y-120464927D01*
X259361313Y-119417308D02*
X259599408Y-120131594D01*
X259599408Y-120131594D02*
X258980361Y-120131594D01*
X258408932Y-119464927D02*
X258313694Y-119464927D01*
X258313694Y-119464927D02*
X258218456Y-119512547D01*
X258218456Y-119512547D02*
X258170837Y-119560166D01*
X258170837Y-119560166D02*
X258123218Y-119655404D01*
X258123218Y-119655404D02*
X258075599Y-119845880D01*
X258075599Y-119845880D02*
X258075599Y-120083975D01*
X258075599Y-120083975D02*
X258123218Y-120274451D01*
X258123218Y-120274451D02*
X258170837Y-120369689D01*
X258170837Y-120369689D02*
X258218456Y-120417308D01*
X258218456Y-120417308D02*
X258313694Y-120464927D01*
X258313694Y-120464927D02*
X258408932Y-120464927D01*
X258408932Y-120464927D02*
X258504170Y-120417308D01*
X258504170Y-120417308D02*
X258551789Y-120369689D01*
X258551789Y-120369689D02*
X258599408Y-120274451D01*
X258599408Y-120274451D02*
X258647027Y-120083975D01*
X258647027Y-120083975D02*
X258647027Y-119845880D01*
X258647027Y-119845880D02*
X258599408Y-119655404D01*
X258599408Y-119655404D02*
X258551789Y-119560166D01*
X258551789Y-119560166D02*
X258504170Y-119512547D01*
X258504170Y-119512547D02*
X258408932Y-119464927D01*
X199362714Y-65453285D02*
X199391286Y-65481857D01*
X199391286Y-65481857D02*
X199477000Y-65510428D01*
X199477000Y-65510428D02*
X199534143Y-65510428D01*
X199534143Y-65510428D02*
X199619857Y-65481857D01*
X199619857Y-65481857D02*
X199677000Y-65424714D01*
X199677000Y-65424714D02*
X199705571Y-65367571D01*
X199705571Y-65367571D02*
X199734143Y-65253285D01*
X199734143Y-65253285D02*
X199734143Y-65167571D01*
X199734143Y-65167571D02*
X199705571Y-65053285D01*
X199705571Y-65053285D02*
X199677000Y-64996142D01*
X199677000Y-64996142D02*
X199619857Y-64939000D01*
X199619857Y-64939000D02*
X199534143Y-64910428D01*
X199534143Y-64910428D02*
X199477000Y-64910428D01*
X199477000Y-64910428D02*
X199391286Y-64939000D01*
X199391286Y-64939000D02*
X199362714Y-64967571D01*
X198791286Y-65510428D02*
X199134143Y-65510428D01*
X198962714Y-65510428D02*
X198962714Y-64910428D01*
X198962714Y-64910428D02*
X199019857Y-64996142D01*
X199019857Y-64996142D02*
X199077000Y-65053285D01*
X199077000Y-65053285D02*
X199134143Y-65081857D01*
X198277000Y-64910428D02*
X198391285Y-64910428D01*
X198391285Y-64910428D02*
X198448428Y-64939000D01*
X198448428Y-64939000D02*
X198477000Y-64967571D01*
X198477000Y-64967571D02*
X198534142Y-65053285D01*
X198534142Y-65053285D02*
X198562714Y-65167571D01*
X198562714Y-65167571D02*
X198562714Y-65396142D01*
X198562714Y-65396142D02*
X198534142Y-65453285D01*
X198534142Y-65453285D02*
X198505571Y-65481857D01*
X198505571Y-65481857D02*
X198448428Y-65510428D01*
X198448428Y-65510428D02*
X198334142Y-65510428D01*
X198334142Y-65510428D02*
X198277000Y-65481857D01*
X198277000Y-65481857D02*
X198248428Y-65453285D01*
X198248428Y-65453285D02*
X198219857Y-65396142D01*
X198219857Y-65396142D02*
X198219857Y-65253285D01*
X198219857Y-65253285D02*
X198248428Y-65196142D01*
X198248428Y-65196142D02*
X198277000Y-65167571D01*
X198277000Y-65167571D02*
X198334142Y-65139000D01*
X198334142Y-65139000D02*
X198448428Y-65139000D01*
X198448428Y-65139000D02*
X198505571Y-65167571D01*
X198505571Y-65167571D02*
X198534142Y-65196142D01*
X198534142Y-65196142D02*
X198562714Y-65253285D01*
X205100285Y-76070000D02*
X205128857Y-76041428D01*
X205128857Y-76041428D02*
X205157428Y-75955714D01*
X205157428Y-75955714D02*
X205157428Y-75898571D01*
X205157428Y-75898571D02*
X205128857Y-75812857D01*
X205128857Y-75812857D02*
X205071714Y-75755714D01*
X205071714Y-75755714D02*
X205014571Y-75727143D01*
X205014571Y-75727143D02*
X204900285Y-75698571D01*
X204900285Y-75698571D02*
X204814571Y-75698571D01*
X204814571Y-75698571D02*
X204700285Y-75727143D01*
X204700285Y-75727143D02*
X204643142Y-75755714D01*
X204643142Y-75755714D02*
X204586000Y-75812857D01*
X204586000Y-75812857D02*
X204557428Y-75898571D01*
X204557428Y-75898571D02*
X204557428Y-75955714D01*
X204557428Y-75955714D02*
X204586000Y-76041428D01*
X204586000Y-76041428D02*
X204614571Y-76070000D01*
X204557428Y-76584286D02*
X204557428Y-76470000D01*
X204557428Y-76470000D02*
X204586000Y-76412857D01*
X204586000Y-76412857D02*
X204614571Y-76384286D01*
X204614571Y-76384286D02*
X204700285Y-76327143D01*
X204700285Y-76327143D02*
X204814571Y-76298571D01*
X204814571Y-76298571D02*
X205043142Y-76298571D01*
X205043142Y-76298571D02*
X205100285Y-76327143D01*
X205100285Y-76327143D02*
X205128857Y-76355714D01*
X205128857Y-76355714D02*
X205157428Y-76412857D01*
X205157428Y-76412857D02*
X205157428Y-76527143D01*
X205157428Y-76527143D02*
X205128857Y-76584286D01*
X205128857Y-76584286D02*
X205100285Y-76612857D01*
X205100285Y-76612857D02*
X205043142Y-76641428D01*
X205043142Y-76641428D02*
X204900285Y-76641428D01*
X204900285Y-76641428D02*
X204843142Y-76612857D01*
X204843142Y-76612857D02*
X204814571Y-76584286D01*
X204814571Y-76584286D02*
X204786000Y-76527143D01*
X204786000Y-76527143D02*
X204786000Y-76412857D01*
X204786000Y-76412857D02*
X204814571Y-76355714D01*
X204814571Y-76355714D02*
X204843142Y-76327143D01*
X204843142Y-76327143D02*
X204900285Y-76298571D01*
X192144380Y-64803333D02*
X191668190Y-64470000D01*
X192144380Y-64231905D02*
X191144380Y-64231905D01*
X191144380Y-64231905D02*
X191144380Y-64612857D01*
X191144380Y-64612857D02*
X191192000Y-64708095D01*
X191192000Y-64708095D02*
X191239619Y-64755714D01*
X191239619Y-64755714D02*
X191334857Y-64803333D01*
X191334857Y-64803333D02*
X191477714Y-64803333D01*
X191477714Y-64803333D02*
X191572952Y-64755714D01*
X191572952Y-64755714D02*
X191620571Y-64708095D01*
X191620571Y-64708095D02*
X191668190Y-64612857D01*
X191668190Y-64612857D02*
X191668190Y-64231905D01*
X191144380Y-65660476D02*
X191144380Y-65470000D01*
X191144380Y-65470000D02*
X191192000Y-65374762D01*
X191192000Y-65374762D02*
X191239619Y-65327143D01*
X191239619Y-65327143D02*
X191382476Y-65231905D01*
X191382476Y-65231905D02*
X191572952Y-65184286D01*
X191572952Y-65184286D02*
X191953904Y-65184286D01*
X191953904Y-65184286D02*
X192049142Y-65231905D01*
X192049142Y-65231905D02*
X192096761Y-65279524D01*
X192096761Y-65279524D02*
X192144380Y-65374762D01*
X192144380Y-65374762D02*
X192144380Y-65565238D01*
X192144380Y-65565238D02*
X192096761Y-65660476D01*
X192096761Y-65660476D02*
X192049142Y-65708095D01*
X192049142Y-65708095D02*
X191953904Y-65755714D01*
X191953904Y-65755714D02*
X191715809Y-65755714D01*
X191715809Y-65755714D02*
X191620571Y-65708095D01*
X191620571Y-65708095D02*
X191572952Y-65660476D01*
X191572952Y-65660476D02*
X191525333Y-65565238D01*
X191525333Y-65565238D02*
X191525333Y-65374762D01*
X191525333Y-65374762D02*
X191572952Y-65279524D01*
X191572952Y-65279524D02*
X191620571Y-65231905D01*
X191620571Y-65231905D02*
X191715809Y-65184286D01*
X217025714Y-68993285D02*
X217054286Y-69021857D01*
X217054286Y-69021857D02*
X217140000Y-69050428D01*
X217140000Y-69050428D02*
X217197143Y-69050428D01*
X217197143Y-69050428D02*
X217282857Y-69021857D01*
X217282857Y-69021857D02*
X217340000Y-68964714D01*
X217340000Y-68964714D02*
X217368571Y-68907571D01*
X217368571Y-68907571D02*
X217397143Y-68793285D01*
X217397143Y-68793285D02*
X217397143Y-68707571D01*
X217397143Y-68707571D02*
X217368571Y-68593285D01*
X217368571Y-68593285D02*
X217340000Y-68536142D01*
X217340000Y-68536142D02*
X217282857Y-68479000D01*
X217282857Y-68479000D02*
X217197143Y-68450428D01*
X217197143Y-68450428D02*
X217140000Y-68450428D01*
X217140000Y-68450428D02*
X217054286Y-68479000D01*
X217054286Y-68479000D02*
X217025714Y-68507571D01*
X216454286Y-69050428D02*
X216797143Y-69050428D01*
X216625714Y-69050428D02*
X216625714Y-68450428D01*
X216625714Y-68450428D02*
X216682857Y-68536142D01*
X216682857Y-68536142D02*
X216740000Y-68593285D01*
X216740000Y-68593285D02*
X216797143Y-68621857D01*
X216254285Y-68450428D02*
X215882857Y-68450428D01*
X215882857Y-68450428D02*
X216082857Y-68679000D01*
X216082857Y-68679000D02*
X215997142Y-68679000D01*
X215997142Y-68679000D02*
X215940000Y-68707571D01*
X215940000Y-68707571D02*
X215911428Y-68736142D01*
X215911428Y-68736142D02*
X215882857Y-68793285D01*
X215882857Y-68793285D02*
X215882857Y-68936142D01*
X215882857Y-68936142D02*
X215911428Y-68993285D01*
X215911428Y-68993285D02*
X215940000Y-69021857D01*
X215940000Y-69021857D02*
X215997142Y-69050428D01*
X215997142Y-69050428D02*
X216168571Y-69050428D01*
X216168571Y-69050428D02*
X216225714Y-69021857D01*
X216225714Y-69021857D02*
X216254285Y-68993285D01*
X231366866Y-79835890D02*
X231366866Y-80645414D01*
X231366866Y-80645414D02*
X231319247Y-80740652D01*
X231319247Y-80740652D02*
X231271628Y-80788271D01*
X231271628Y-80788271D02*
X231176390Y-80835890D01*
X231176390Y-80835890D02*
X230985914Y-80835890D01*
X230985914Y-80835890D02*
X230890676Y-80788271D01*
X230890676Y-80788271D02*
X230843057Y-80740652D01*
X230843057Y-80740652D02*
X230795438Y-80645414D01*
X230795438Y-80645414D02*
X230795438Y-79835890D01*
X229843057Y-79835890D02*
X230319247Y-79835890D01*
X230319247Y-79835890D02*
X230366866Y-80312081D01*
X230366866Y-80312081D02*
X230319247Y-80264462D01*
X230319247Y-80264462D02*
X230224009Y-80216843D01*
X230224009Y-80216843D02*
X229985914Y-80216843D01*
X229985914Y-80216843D02*
X229890676Y-80264462D01*
X229890676Y-80264462D02*
X229843057Y-80312081D01*
X229843057Y-80312081D02*
X229795438Y-80407319D01*
X229795438Y-80407319D02*
X229795438Y-80645414D01*
X229795438Y-80645414D02*
X229843057Y-80740652D01*
X229843057Y-80740652D02*
X229890676Y-80788271D01*
X229890676Y-80788271D02*
X229985914Y-80835890D01*
X229985914Y-80835890D02*
X230224009Y-80835890D01*
X230224009Y-80835890D02*
X230319247Y-80788271D01*
X230319247Y-80788271D02*
X230366866Y-80740652D01*
X305053852Y-68948937D02*
X304910995Y-68996556D01*
X304910995Y-68996556D02*
X304672900Y-68996556D01*
X304672900Y-68996556D02*
X304577662Y-68948937D01*
X304577662Y-68948937D02*
X304530043Y-68901318D01*
X304530043Y-68901318D02*
X304482424Y-68806080D01*
X304482424Y-68806080D02*
X304482424Y-68710842D01*
X304482424Y-68710842D02*
X304530043Y-68615604D01*
X304530043Y-68615604D02*
X304577662Y-68567985D01*
X304577662Y-68567985D02*
X304672900Y-68520366D01*
X304672900Y-68520366D02*
X304863376Y-68472747D01*
X304863376Y-68472747D02*
X304958614Y-68425128D01*
X304958614Y-68425128D02*
X305006233Y-68377509D01*
X305006233Y-68377509D02*
X305053852Y-68282271D01*
X305053852Y-68282271D02*
X305053852Y-68187033D01*
X305053852Y-68187033D02*
X305006233Y-68091795D01*
X305006233Y-68091795D02*
X304958614Y-68044176D01*
X304958614Y-68044176D02*
X304863376Y-67996556D01*
X304863376Y-67996556D02*
X304625281Y-67996556D01*
X304625281Y-67996556D02*
X304482424Y-68044176D01*
X304149090Y-67996556D02*
X303910995Y-68996556D01*
X303910995Y-68996556D02*
X303720519Y-68282271D01*
X303720519Y-68282271D02*
X303530043Y-68996556D01*
X303530043Y-68996556D02*
X303291948Y-67996556D01*
X302958614Y-68091795D02*
X302910995Y-68044176D01*
X302910995Y-68044176D02*
X302815757Y-67996556D01*
X302815757Y-67996556D02*
X302577662Y-67996556D01*
X302577662Y-67996556D02*
X302482424Y-68044176D01*
X302482424Y-68044176D02*
X302434805Y-68091795D01*
X302434805Y-68091795D02*
X302387186Y-68187033D01*
X302387186Y-68187033D02*
X302387186Y-68282271D01*
X302387186Y-68282271D02*
X302434805Y-68425128D01*
X302434805Y-68425128D02*
X303006233Y-68996556D01*
X303006233Y-68996556D02*
X302387186Y-68996556D01*
X301530043Y-68329890D02*
X301530043Y-68996556D01*
X301768138Y-67948937D02*
X302006233Y-68663223D01*
X302006233Y-68663223D02*
X301387186Y-68663223D01*
X204730285Y-62250000D02*
X204758857Y-62221428D01*
X204758857Y-62221428D02*
X204787428Y-62135714D01*
X204787428Y-62135714D02*
X204787428Y-62078571D01*
X204787428Y-62078571D02*
X204758857Y-61992857D01*
X204758857Y-61992857D02*
X204701714Y-61935714D01*
X204701714Y-61935714D02*
X204644571Y-61907143D01*
X204644571Y-61907143D02*
X204530285Y-61878571D01*
X204530285Y-61878571D02*
X204444571Y-61878571D01*
X204444571Y-61878571D02*
X204330285Y-61907143D01*
X204330285Y-61907143D02*
X204273142Y-61935714D01*
X204273142Y-61935714D02*
X204216000Y-61992857D01*
X204216000Y-61992857D02*
X204187428Y-62078571D01*
X204187428Y-62078571D02*
X204187428Y-62135714D01*
X204187428Y-62135714D02*
X204216000Y-62221428D01*
X204216000Y-62221428D02*
X204244571Y-62250000D01*
X204387428Y-62764286D02*
X204787428Y-62764286D01*
X204158857Y-62621428D02*
X204587428Y-62478571D01*
X204587428Y-62478571D02*
X204587428Y-62850000D01*
X206600285Y-75498571D02*
X206628857Y-75469999D01*
X206628857Y-75469999D02*
X206657428Y-75384285D01*
X206657428Y-75384285D02*
X206657428Y-75327142D01*
X206657428Y-75327142D02*
X206628857Y-75241428D01*
X206628857Y-75241428D02*
X206571714Y-75184285D01*
X206571714Y-75184285D02*
X206514571Y-75155714D01*
X206514571Y-75155714D02*
X206400285Y-75127142D01*
X206400285Y-75127142D02*
X206314571Y-75127142D01*
X206314571Y-75127142D02*
X206200285Y-75155714D01*
X206200285Y-75155714D02*
X206143142Y-75184285D01*
X206143142Y-75184285D02*
X206086000Y-75241428D01*
X206086000Y-75241428D02*
X206057428Y-75327142D01*
X206057428Y-75327142D02*
X206057428Y-75384285D01*
X206057428Y-75384285D02*
X206086000Y-75469999D01*
X206086000Y-75469999D02*
X206114571Y-75498571D01*
X206657428Y-76069999D02*
X206657428Y-75727142D01*
X206657428Y-75898571D02*
X206057428Y-75898571D01*
X206057428Y-75898571D02*
X206143142Y-75841428D01*
X206143142Y-75841428D02*
X206200285Y-75784285D01*
X206200285Y-75784285D02*
X206228857Y-75727142D01*
X206257428Y-76584286D02*
X206657428Y-76584286D01*
X206028857Y-76441428D02*
X206457428Y-76298571D01*
X206457428Y-76298571D02*
X206457428Y-76670000D01*
X298175196Y-42249094D02*
X298032339Y-42296713D01*
X298032339Y-42296713D02*
X297794244Y-42296713D01*
X297794244Y-42296713D02*
X297699006Y-42249094D01*
X297699006Y-42249094D02*
X297651387Y-42201475D01*
X297651387Y-42201475D02*
X297603768Y-42106237D01*
X297603768Y-42106237D02*
X297603768Y-42010999D01*
X297603768Y-42010999D02*
X297651387Y-41915761D01*
X297651387Y-41915761D02*
X297699006Y-41868142D01*
X297699006Y-41868142D02*
X297794244Y-41820523D01*
X297794244Y-41820523D02*
X297984720Y-41772904D01*
X297984720Y-41772904D02*
X298079958Y-41725285D01*
X298079958Y-41725285D02*
X298127577Y-41677666D01*
X298127577Y-41677666D02*
X298175196Y-41582428D01*
X298175196Y-41582428D02*
X298175196Y-41487190D01*
X298175196Y-41487190D02*
X298127577Y-41391952D01*
X298127577Y-41391952D02*
X298079958Y-41344333D01*
X298079958Y-41344333D02*
X297984720Y-41296713D01*
X297984720Y-41296713D02*
X297746625Y-41296713D01*
X297746625Y-41296713D02*
X297603768Y-41344333D01*
X297270434Y-41296713D02*
X297032339Y-42296713D01*
X297032339Y-42296713D02*
X296841863Y-41582428D01*
X296841863Y-41582428D02*
X296651387Y-42296713D01*
X296651387Y-42296713D02*
X296413292Y-41296713D01*
X295508530Y-42296713D02*
X296079958Y-42296713D01*
X295794244Y-42296713D02*
X295794244Y-41296713D01*
X295794244Y-41296713D02*
X295889482Y-41439571D01*
X295889482Y-41439571D02*
X295984720Y-41534809D01*
X295984720Y-41534809D02*
X296079958Y-41582428D01*
X294651387Y-41296713D02*
X294841863Y-41296713D01*
X294841863Y-41296713D02*
X294937101Y-41344333D01*
X294937101Y-41344333D02*
X294984720Y-41391952D01*
X294984720Y-41391952D02*
X295079958Y-41534809D01*
X295079958Y-41534809D02*
X295127577Y-41725285D01*
X295127577Y-41725285D02*
X295127577Y-42106237D01*
X295127577Y-42106237D02*
X295079958Y-42201475D01*
X295079958Y-42201475D02*
X295032339Y-42249094D01*
X295032339Y-42249094D02*
X294937101Y-42296713D01*
X294937101Y-42296713D02*
X294746625Y-42296713D01*
X294746625Y-42296713D02*
X294651387Y-42249094D01*
X294651387Y-42249094D02*
X294603768Y-42201475D01*
X294603768Y-42201475D02*
X294556149Y-42106237D01*
X294556149Y-42106237D02*
X294556149Y-41868142D01*
X294556149Y-41868142D02*
X294603768Y-41772904D01*
X294603768Y-41772904D02*
X294651387Y-41725285D01*
X294651387Y-41725285D02*
X294746625Y-41677666D01*
X294746625Y-41677666D02*
X294937101Y-41677666D01*
X294937101Y-41677666D02*
X295032339Y-41725285D01*
X295032339Y-41725285D02*
X295079958Y-41772904D01*
X295079958Y-41772904D02*
X295127577Y-41868142D01*
X219243285Y-56925000D02*
X219271857Y-56896428D01*
X219271857Y-56896428D02*
X219300428Y-56810714D01*
X219300428Y-56810714D02*
X219300428Y-56753571D01*
X219300428Y-56753571D02*
X219271857Y-56667857D01*
X219271857Y-56667857D02*
X219214714Y-56610714D01*
X219214714Y-56610714D02*
X219157571Y-56582143D01*
X219157571Y-56582143D02*
X219043285Y-56553571D01*
X219043285Y-56553571D02*
X218957571Y-56553571D01*
X218957571Y-56553571D02*
X218843285Y-56582143D01*
X218843285Y-56582143D02*
X218786142Y-56610714D01*
X218786142Y-56610714D02*
X218729000Y-56667857D01*
X218729000Y-56667857D02*
X218700428Y-56753571D01*
X218700428Y-56753571D02*
X218700428Y-56810714D01*
X218700428Y-56810714D02*
X218729000Y-56896428D01*
X218729000Y-56896428D02*
X218757571Y-56925000D01*
X218700428Y-57125000D02*
X218700428Y-57496428D01*
X218700428Y-57496428D02*
X218929000Y-57296428D01*
X218929000Y-57296428D02*
X218929000Y-57382143D01*
X218929000Y-57382143D02*
X218957571Y-57439286D01*
X218957571Y-57439286D02*
X218986142Y-57467857D01*
X218986142Y-57467857D02*
X219043285Y-57496428D01*
X219043285Y-57496428D02*
X219186142Y-57496428D01*
X219186142Y-57496428D02*
X219243285Y-57467857D01*
X219243285Y-57467857D02*
X219271857Y-57439286D01*
X219271857Y-57439286D02*
X219300428Y-57382143D01*
X219300428Y-57382143D02*
X219300428Y-57210714D01*
X219300428Y-57210714D02*
X219271857Y-57153571D01*
X219271857Y-57153571D02*
X219243285Y-57125000D01*
X189872356Y-70590428D02*
X189872356Y-69990428D01*
X189872356Y-69990428D02*
X189729499Y-69990428D01*
X189729499Y-69990428D02*
X189643785Y-70019000D01*
X189643785Y-70019000D02*
X189586642Y-70076142D01*
X189586642Y-70076142D02*
X189558071Y-70133285D01*
X189558071Y-70133285D02*
X189529499Y-70247571D01*
X189529499Y-70247571D02*
X189529499Y-70333285D01*
X189529499Y-70333285D02*
X189558071Y-70447571D01*
X189558071Y-70447571D02*
X189586642Y-70504714D01*
X189586642Y-70504714D02*
X189643785Y-70561857D01*
X189643785Y-70561857D02*
X189729499Y-70590428D01*
X189729499Y-70590428D02*
X189872356Y-70590428D01*
X189329499Y-69990428D02*
X188958071Y-69990428D01*
X188958071Y-69990428D02*
X189158071Y-70219000D01*
X189158071Y-70219000D02*
X189072356Y-70219000D01*
X189072356Y-70219000D02*
X189015214Y-70247571D01*
X189015214Y-70247571D02*
X188986642Y-70276142D01*
X188986642Y-70276142D02*
X188958071Y-70333285D01*
X188958071Y-70333285D02*
X188958071Y-70476142D01*
X188958071Y-70476142D02*
X188986642Y-70533285D01*
X188986642Y-70533285D02*
X189015214Y-70561857D01*
X189015214Y-70561857D02*
X189072356Y-70590428D01*
X189072356Y-70590428D02*
X189243785Y-70590428D01*
X189243785Y-70590428D02*
X189300928Y-70561857D01*
X189300928Y-70561857D02*
X189329499Y-70533285D01*
X201726999Y-61633285D02*
X201755571Y-61661857D01*
X201755571Y-61661857D02*
X201841285Y-61690428D01*
X201841285Y-61690428D02*
X201898428Y-61690428D01*
X201898428Y-61690428D02*
X201984142Y-61661857D01*
X201984142Y-61661857D02*
X202041285Y-61604714D01*
X202041285Y-61604714D02*
X202069856Y-61547571D01*
X202069856Y-61547571D02*
X202098428Y-61433285D01*
X202098428Y-61433285D02*
X202098428Y-61347571D01*
X202098428Y-61347571D02*
X202069856Y-61233285D01*
X202069856Y-61233285D02*
X202041285Y-61176142D01*
X202041285Y-61176142D02*
X201984142Y-61119000D01*
X201984142Y-61119000D02*
X201898428Y-61090428D01*
X201898428Y-61090428D02*
X201841285Y-61090428D01*
X201841285Y-61090428D02*
X201755571Y-61119000D01*
X201755571Y-61119000D02*
X201726999Y-61147571D01*
X201441285Y-61690428D02*
X201326999Y-61690428D01*
X201326999Y-61690428D02*
X201269856Y-61661857D01*
X201269856Y-61661857D02*
X201241285Y-61633285D01*
X201241285Y-61633285D02*
X201184142Y-61547571D01*
X201184142Y-61547571D02*
X201155571Y-61433285D01*
X201155571Y-61433285D02*
X201155571Y-61204714D01*
X201155571Y-61204714D02*
X201184142Y-61147571D01*
X201184142Y-61147571D02*
X201212714Y-61119000D01*
X201212714Y-61119000D02*
X201269856Y-61090428D01*
X201269856Y-61090428D02*
X201384142Y-61090428D01*
X201384142Y-61090428D02*
X201441285Y-61119000D01*
X201441285Y-61119000D02*
X201469856Y-61147571D01*
X201469856Y-61147571D02*
X201498428Y-61204714D01*
X201498428Y-61204714D02*
X201498428Y-61347571D01*
X201498428Y-61347571D02*
X201469856Y-61404714D01*
X201469856Y-61404714D02*
X201441285Y-61433285D01*
X201441285Y-61433285D02*
X201384142Y-61461857D01*
X201384142Y-61461857D02*
X201269856Y-61461857D01*
X201269856Y-61461857D02*
X201212714Y-61433285D01*
X201212714Y-61433285D02*
X201184142Y-61404714D01*
X201184142Y-61404714D02*
X201155571Y-61347571D01*
X206520285Y-83510000D02*
X206548857Y-83481428D01*
X206548857Y-83481428D02*
X206577428Y-83395714D01*
X206577428Y-83395714D02*
X206577428Y-83338571D01*
X206577428Y-83338571D02*
X206548857Y-83252857D01*
X206548857Y-83252857D02*
X206491714Y-83195714D01*
X206491714Y-83195714D02*
X206434571Y-83167143D01*
X206434571Y-83167143D02*
X206320285Y-83138571D01*
X206320285Y-83138571D02*
X206234571Y-83138571D01*
X206234571Y-83138571D02*
X206120285Y-83167143D01*
X206120285Y-83167143D02*
X206063142Y-83195714D01*
X206063142Y-83195714D02*
X206006000Y-83252857D01*
X206006000Y-83252857D02*
X205977428Y-83338571D01*
X205977428Y-83338571D02*
X205977428Y-83395714D01*
X205977428Y-83395714D02*
X206006000Y-83481428D01*
X206006000Y-83481428D02*
X206034571Y-83510000D01*
X206234571Y-83852857D02*
X206206000Y-83795714D01*
X206206000Y-83795714D02*
X206177428Y-83767143D01*
X206177428Y-83767143D02*
X206120285Y-83738571D01*
X206120285Y-83738571D02*
X206091714Y-83738571D01*
X206091714Y-83738571D02*
X206034571Y-83767143D01*
X206034571Y-83767143D02*
X206006000Y-83795714D01*
X206006000Y-83795714D02*
X205977428Y-83852857D01*
X205977428Y-83852857D02*
X205977428Y-83967143D01*
X205977428Y-83967143D02*
X206006000Y-84024286D01*
X206006000Y-84024286D02*
X206034571Y-84052857D01*
X206034571Y-84052857D02*
X206091714Y-84081428D01*
X206091714Y-84081428D02*
X206120285Y-84081428D01*
X206120285Y-84081428D02*
X206177428Y-84052857D01*
X206177428Y-84052857D02*
X206206000Y-84024286D01*
X206206000Y-84024286D02*
X206234571Y-83967143D01*
X206234571Y-83967143D02*
X206234571Y-83852857D01*
X206234571Y-83852857D02*
X206263142Y-83795714D01*
X206263142Y-83795714D02*
X206291714Y-83767143D01*
X206291714Y-83767143D02*
X206348857Y-83738571D01*
X206348857Y-83738571D02*
X206463142Y-83738571D01*
X206463142Y-83738571D02*
X206520285Y-83767143D01*
X206520285Y-83767143D02*
X206548857Y-83795714D01*
X206548857Y-83795714D02*
X206577428Y-83852857D01*
X206577428Y-83852857D02*
X206577428Y-83967143D01*
X206577428Y-83967143D02*
X206548857Y-84024286D01*
X206548857Y-84024286D02*
X206520285Y-84052857D01*
X206520285Y-84052857D02*
X206463142Y-84081428D01*
X206463142Y-84081428D02*
X206348857Y-84081428D01*
X206348857Y-84081428D02*
X206291714Y-84052857D01*
X206291714Y-84052857D02*
X206263142Y-84024286D01*
X206263142Y-84024286D02*
X206234571Y-83967143D01*
X208098904Y-64812380D02*
X208098904Y-65621904D01*
X208098904Y-65621904D02*
X208051285Y-65717142D01*
X208051285Y-65717142D02*
X208003666Y-65764761D01*
X208003666Y-65764761D02*
X207908428Y-65812380D01*
X207908428Y-65812380D02*
X207717952Y-65812380D01*
X207717952Y-65812380D02*
X207622714Y-65764761D01*
X207622714Y-65764761D02*
X207575095Y-65717142D01*
X207575095Y-65717142D02*
X207527476Y-65621904D01*
X207527476Y-65621904D02*
X207527476Y-64812380D01*
X207146523Y-64812380D02*
X206527476Y-64812380D01*
X206527476Y-64812380D02*
X206860809Y-65193333D01*
X206860809Y-65193333D02*
X206717952Y-65193333D01*
X206717952Y-65193333D02*
X206622714Y-65240952D01*
X206622714Y-65240952D02*
X206575095Y-65288571D01*
X206575095Y-65288571D02*
X206527476Y-65383809D01*
X206527476Y-65383809D02*
X206527476Y-65621904D01*
X206527476Y-65621904D02*
X206575095Y-65717142D01*
X206575095Y-65717142D02*
X206622714Y-65764761D01*
X206622714Y-65764761D02*
X206717952Y-65812380D01*
X206717952Y-65812380D02*
X207003666Y-65812380D01*
X207003666Y-65812380D02*
X207098904Y-65764761D01*
X207098904Y-65764761D02*
X207146523Y-65717142D01*
X206464999Y-58970428D02*
X206664999Y-58684714D01*
X206807856Y-58970428D02*
X206807856Y-58370428D01*
X206807856Y-58370428D02*
X206579285Y-58370428D01*
X206579285Y-58370428D02*
X206522142Y-58399000D01*
X206522142Y-58399000D02*
X206493571Y-58427571D01*
X206493571Y-58427571D02*
X206464999Y-58484714D01*
X206464999Y-58484714D02*
X206464999Y-58570428D01*
X206464999Y-58570428D02*
X206493571Y-58627571D01*
X206493571Y-58627571D02*
X206522142Y-58656142D01*
X206522142Y-58656142D02*
X206579285Y-58684714D01*
X206579285Y-58684714D02*
X206807856Y-58684714D01*
X206179285Y-58970428D02*
X206064999Y-58970428D01*
X206064999Y-58970428D02*
X206007856Y-58941857D01*
X206007856Y-58941857D02*
X205979285Y-58913285D01*
X205979285Y-58913285D02*
X205922142Y-58827571D01*
X205922142Y-58827571D02*
X205893571Y-58713285D01*
X205893571Y-58713285D02*
X205893571Y-58484714D01*
X205893571Y-58484714D02*
X205922142Y-58427571D01*
X205922142Y-58427571D02*
X205950714Y-58399000D01*
X205950714Y-58399000D02*
X206007856Y-58370428D01*
X206007856Y-58370428D02*
X206122142Y-58370428D01*
X206122142Y-58370428D02*
X206179285Y-58399000D01*
X206179285Y-58399000D02*
X206207856Y-58427571D01*
X206207856Y-58427571D02*
X206236428Y-58484714D01*
X206236428Y-58484714D02*
X206236428Y-58627571D01*
X206236428Y-58627571D02*
X206207856Y-58684714D01*
X206207856Y-58684714D02*
X206179285Y-58713285D01*
X206179285Y-58713285D02*
X206122142Y-58741857D01*
X206122142Y-58741857D02*
X206007856Y-58741857D01*
X206007856Y-58741857D02*
X205950714Y-58713285D01*
X205950714Y-58713285D02*
X205922142Y-58684714D01*
X205922142Y-58684714D02*
X205893571Y-58627571D01*
X209908714Y-83793964D02*
X209908714Y-84079678D01*
X210108714Y-83479678D02*
X209908714Y-83793964D01*
X209908714Y-83793964D02*
X209708714Y-83479678D01*
X209194428Y-84079678D02*
X209537285Y-84079678D01*
X209365856Y-84079678D02*
X209365856Y-83479678D01*
X209365856Y-83479678D02*
X209422999Y-83565392D01*
X209422999Y-83565392D02*
X209480142Y-83622535D01*
X209480142Y-83622535D02*
X209537285Y-83651107D01*
X276895038Y-73414121D02*
X276752181Y-73461740D01*
X276752181Y-73461740D02*
X276514086Y-73461740D01*
X276514086Y-73461740D02*
X276418848Y-73414121D01*
X276418848Y-73414121D02*
X276371229Y-73366502D01*
X276371229Y-73366502D02*
X276323610Y-73271264D01*
X276323610Y-73271264D02*
X276323610Y-73176026D01*
X276323610Y-73176026D02*
X276371229Y-73080788D01*
X276371229Y-73080788D02*
X276418848Y-73033169D01*
X276418848Y-73033169D02*
X276514086Y-72985550D01*
X276514086Y-72985550D02*
X276704562Y-72937931D01*
X276704562Y-72937931D02*
X276799800Y-72890312D01*
X276799800Y-72890312D02*
X276847419Y-72842693D01*
X276847419Y-72842693D02*
X276895038Y-72747455D01*
X276895038Y-72747455D02*
X276895038Y-72652217D01*
X276895038Y-72652217D02*
X276847419Y-72556979D01*
X276847419Y-72556979D02*
X276799800Y-72509360D01*
X276799800Y-72509360D02*
X276704562Y-72461740D01*
X276704562Y-72461740D02*
X276466467Y-72461740D01*
X276466467Y-72461740D02*
X276323610Y-72509360D01*
X275990276Y-72461740D02*
X275752181Y-73461740D01*
X275752181Y-73461740D02*
X275561705Y-72747455D01*
X275561705Y-72747455D02*
X275371229Y-73461740D01*
X275371229Y-73461740D02*
X275133134Y-72461740D01*
X274799800Y-72556979D02*
X274752181Y-72509360D01*
X274752181Y-72509360D02*
X274656943Y-72461740D01*
X274656943Y-72461740D02*
X274418848Y-72461740D01*
X274418848Y-72461740D02*
X274323610Y-72509360D01*
X274323610Y-72509360D02*
X274275991Y-72556979D01*
X274275991Y-72556979D02*
X274228372Y-72652217D01*
X274228372Y-72652217D02*
X274228372Y-72747455D01*
X274228372Y-72747455D02*
X274275991Y-72890312D01*
X274275991Y-72890312D02*
X274847419Y-73461740D01*
X274847419Y-73461740D02*
X274228372Y-73461740D01*
X273847419Y-72556979D02*
X273799800Y-72509360D01*
X273799800Y-72509360D02*
X273704562Y-72461740D01*
X273704562Y-72461740D02*
X273466467Y-72461740D01*
X273466467Y-72461740D02*
X273371229Y-72509360D01*
X273371229Y-72509360D02*
X273323610Y-72556979D01*
X273323610Y-72556979D02*
X273275991Y-72652217D01*
X273275991Y-72652217D02*
X273275991Y-72747455D01*
X273275991Y-72747455D02*
X273323610Y-72890312D01*
X273323610Y-72890312D02*
X273895038Y-73461740D01*
X273895038Y-73461740D02*
X273275991Y-73461740D01*
X207174999Y-62840428D02*
X207374999Y-62554714D01*
X207517856Y-62840428D02*
X207517856Y-62240428D01*
X207517856Y-62240428D02*
X207289285Y-62240428D01*
X207289285Y-62240428D02*
X207232142Y-62269000D01*
X207232142Y-62269000D02*
X207203571Y-62297571D01*
X207203571Y-62297571D02*
X207174999Y-62354714D01*
X207174999Y-62354714D02*
X207174999Y-62440428D01*
X207174999Y-62440428D02*
X207203571Y-62497571D01*
X207203571Y-62497571D02*
X207232142Y-62526142D01*
X207232142Y-62526142D02*
X207289285Y-62554714D01*
X207289285Y-62554714D02*
X207517856Y-62554714D01*
X206832142Y-62497571D02*
X206889285Y-62469000D01*
X206889285Y-62469000D02*
X206917856Y-62440428D01*
X206917856Y-62440428D02*
X206946428Y-62383285D01*
X206946428Y-62383285D02*
X206946428Y-62354714D01*
X206946428Y-62354714D02*
X206917856Y-62297571D01*
X206917856Y-62297571D02*
X206889285Y-62269000D01*
X206889285Y-62269000D02*
X206832142Y-62240428D01*
X206832142Y-62240428D02*
X206717856Y-62240428D01*
X206717856Y-62240428D02*
X206660714Y-62269000D01*
X206660714Y-62269000D02*
X206632142Y-62297571D01*
X206632142Y-62297571D02*
X206603571Y-62354714D01*
X206603571Y-62354714D02*
X206603571Y-62383285D01*
X206603571Y-62383285D02*
X206632142Y-62440428D01*
X206632142Y-62440428D02*
X206660714Y-62469000D01*
X206660714Y-62469000D02*
X206717856Y-62497571D01*
X206717856Y-62497571D02*
X206832142Y-62497571D01*
X206832142Y-62497571D02*
X206889285Y-62526142D01*
X206889285Y-62526142D02*
X206917856Y-62554714D01*
X206917856Y-62554714D02*
X206946428Y-62611857D01*
X206946428Y-62611857D02*
X206946428Y-62726142D01*
X206946428Y-62726142D02*
X206917856Y-62783285D01*
X206917856Y-62783285D02*
X206889285Y-62811857D01*
X206889285Y-62811857D02*
X206832142Y-62840428D01*
X206832142Y-62840428D02*
X206717856Y-62840428D01*
X206717856Y-62840428D02*
X206660714Y-62811857D01*
X206660714Y-62811857D02*
X206632142Y-62783285D01*
X206632142Y-62783285D02*
X206603571Y-62726142D01*
X206603571Y-62726142D02*
X206603571Y-62611857D01*
X206603571Y-62611857D02*
X206632142Y-62554714D01*
X206632142Y-62554714D02*
X206660714Y-62526142D01*
X206660714Y-62526142D02*
X206717856Y-62497571D01*
X196582856Y-62683089D02*
X196582856Y-62083089D01*
X196582856Y-62083089D02*
X196439999Y-62083089D01*
X196439999Y-62083089D02*
X196354285Y-62111661D01*
X196354285Y-62111661D02*
X196297142Y-62168803D01*
X196297142Y-62168803D02*
X196268571Y-62225946D01*
X196268571Y-62225946D02*
X196239999Y-62340232D01*
X196239999Y-62340232D02*
X196239999Y-62425946D01*
X196239999Y-62425946D02*
X196268571Y-62540232D01*
X196268571Y-62540232D02*
X196297142Y-62597375D01*
X196297142Y-62597375D02*
X196354285Y-62654518D01*
X196354285Y-62654518D02*
X196439999Y-62683089D01*
X196439999Y-62683089D02*
X196582856Y-62683089D01*
X195668571Y-62683089D02*
X196011428Y-62683089D01*
X195839999Y-62683089D02*
X195839999Y-62083089D01*
X195839999Y-62083089D02*
X195897142Y-62168803D01*
X195897142Y-62168803D02*
X195954285Y-62225946D01*
X195954285Y-62225946D02*
X196011428Y-62254518D01*
X196898089Y-56778018D02*
X197383803Y-56778018D01*
X197383803Y-56778018D02*
X197440946Y-56806589D01*
X197440946Y-56806589D02*
X197469518Y-56835161D01*
X197469518Y-56835161D02*
X197498089Y-56892303D01*
X197498089Y-56892303D02*
X197498089Y-57006589D01*
X197498089Y-57006589D02*
X197469518Y-57063732D01*
X197469518Y-57063732D02*
X197440946Y-57092303D01*
X197440946Y-57092303D02*
X197383803Y-57120875D01*
X197383803Y-57120875D02*
X196898089Y-57120875D01*
X197498089Y-57720874D02*
X197498089Y-57378017D01*
X197498089Y-57549446D02*
X196898089Y-57549446D01*
X196898089Y-57549446D02*
X196983803Y-57492303D01*
X196983803Y-57492303D02*
X197040946Y-57435160D01*
X197040946Y-57435160D02*
X197069518Y-57378017D01*
X236728088Y-116048721D02*
X236585231Y-116096340D01*
X236585231Y-116096340D02*
X236347136Y-116096340D01*
X236347136Y-116096340D02*
X236251898Y-116048721D01*
X236251898Y-116048721D02*
X236204279Y-116001102D01*
X236204279Y-116001102D02*
X236156660Y-115905864D01*
X236156660Y-115905864D02*
X236156660Y-115810626D01*
X236156660Y-115810626D02*
X236204279Y-115715388D01*
X236204279Y-115715388D02*
X236251898Y-115667769D01*
X236251898Y-115667769D02*
X236347136Y-115620150D01*
X236347136Y-115620150D02*
X236537612Y-115572531D01*
X236537612Y-115572531D02*
X236632850Y-115524912D01*
X236632850Y-115524912D02*
X236680469Y-115477293D01*
X236680469Y-115477293D02*
X236728088Y-115382055D01*
X236728088Y-115382055D02*
X236728088Y-115286817D01*
X236728088Y-115286817D02*
X236680469Y-115191579D01*
X236680469Y-115191579D02*
X236632850Y-115143960D01*
X236632850Y-115143960D02*
X236537612Y-115096340D01*
X236537612Y-115096340D02*
X236299517Y-115096340D01*
X236299517Y-115096340D02*
X236156660Y-115143960D01*
X235823326Y-115096340D02*
X235585231Y-116096340D01*
X235585231Y-116096340D02*
X235394755Y-115382055D01*
X235394755Y-115382055D02*
X235204279Y-116096340D01*
X235204279Y-116096340D02*
X234966184Y-115096340D01*
X234680469Y-115096340D02*
X234061422Y-115096340D01*
X234061422Y-115096340D02*
X234394755Y-115477293D01*
X234394755Y-115477293D02*
X234251898Y-115477293D01*
X234251898Y-115477293D02*
X234156660Y-115524912D01*
X234156660Y-115524912D02*
X234109041Y-115572531D01*
X234109041Y-115572531D02*
X234061422Y-115667769D01*
X234061422Y-115667769D02*
X234061422Y-115905864D01*
X234061422Y-115905864D02*
X234109041Y-116001102D01*
X234109041Y-116001102D02*
X234156660Y-116048721D01*
X234156660Y-116048721D02*
X234251898Y-116096340D01*
X234251898Y-116096340D02*
X234537612Y-116096340D01*
X234537612Y-116096340D02*
X234632850Y-116048721D01*
X234632850Y-116048721D02*
X234680469Y-116001102D01*
X233204279Y-115429674D02*
X233204279Y-116096340D01*
X233442374Y-115048721D02*
X233680469Y-115763007D01*
X233680469Y-115763007D02*
X233061422Y-115763007D01*
X192156999Y-69950428D02*
X192356999Y-69664714D01*
X192499856Y-69950428D02*
X192499856Y-69350428D01*
X192499856Y-69350428D02*
X192271285Y-69350428D01*
X192271285Y-69350428D02*
X192214142Y-69379000D01*
X192214142Y-69379000D02*
X192185571Y-69407571D01*
X192185571Y-69407571D02*
X192156999Y-69464714D01*
X192156999Y-69464714D02*
X192156999Y-69550428D01*
X192156999Y-69550428D02*
X192185571Y-69607571D01*
X192185571Y-69607571D02*
X192214142Y-69636142D01*
X192214142Y-69636142D02*
X192271285Y-69664714D01*
X192271285Y-69664714D02*
X192499856Y-69664714D01*
X191642714Y-69550428D02*
X191642714Y-69950428D01*
X191785571Y-69321857D02*
X191928428Y-69750428D01*
X191928428Y-69750428D02*
X191556999Y-69750428D01*
X208098866Y-59632380D02*
X208098866Y-60441904D01*
X208098866Y-60441904D02*
X208051247Y-60537142D01*
X208051247Y-60537142D02*
X208003628Y-60584761D01*
X208003628Y-60584761D02*
X207908390Y-60632380D01*
X207908390Y-60632380D02*
X207717914Y-60632380D01*
X207717914Y-60632380D02*
X207622676Y-60584761D01*
X207622676Y-60584761D02*
X207575057Y-60537142D01*
X207575057Y-60537142D02*
X207527438Y-60441904D01*
X207527438Y-60441904D02*
X207527438Y-59632380D01*
X207098866Y-59727619D02*
X207051247Y-59680000D01*
X207051247Y-59680000D02*
X206956009Y-59632380D01*
X206956009Y-59632380D02*
X206717914Y-59632380D01*
X206717914Y-59632380D02*
X206622676Y-59680000D01*
X206622676Y-59680000D02*
X206575057Y-59727619D01*
X206575057Y-59727619D02*
X206527438Y-59822857D01*
X206527438Y-59822857D02*
X206527438Y-59918095D01*
X206527438Y-59918095D02*
X206575057Y-60060952D01*
X206575057Y-60060952D02*
X207146485Y-60632380D01*
X207146485Y-60632380D02*
X206527438Y-60632380D01*
X191976999Y-63370428D02*
X192176999Y-63084714D01*
X192319856Y-63370428D02*
X192319856Y-62770428D01*
X192319856Y-62770428D02*
X192091285Y-62770428D01*
X192091285Y-62770428D02*
X192034142Y-62799000D01*
X192034142Y-62799000D02*
X192005571Y-62827571D01*
X192005571Y-62827571D02*
X191976999Y-62884714D01*
X191976999Y-62884714D02*
X191976999Y-62970428D01*
X191976999Y-62970428D02*
X192005571Y-63027571D01*
X192005571Y-63027571D02*
X192034142Y-63056142D01*
X192034142Y-63056142D02*
X192091285Y-63084714D01*
X192091285Y-63084714D02*
X192319856Y-63084714D01*
X191434142Y-62770428D02*
X191719856Y-62770428D01*
X191719856Y-62770428D02*
X191748428Y-63056142D01*
X191748428Y-63056142D02*
X191719856Y-63027571D01*
X191719856Y-63027571D02*
X191662714Y-62999000D01*
X191662714Y-62999000D02*
X191519856Y-62999000D01*
X191519856Y-62999000D02*
X191462714Y-63027571D01*
X191462714Y-63027571D02*
X191434142Y-63056142D01*
X191434142Y-63056142D02*
X191405571Y-63113285D01*
X191405571Y-63113285D02*
X191405571Y-63256142D01*
X191405571Y-63256142D02*
X191434142Y-63313285D01*
X191434142Y-63313285D02*
X191462714Y-63341857D01*
X191462714Y-63341857D02*
X191519856Y-63370428D01*
X191519856Y-63370428D02*
X191662714Y-63370428D01*
X191662714Y-63370428D02*
X191719856Y-63341857D01*
X191719856Y-63341857D02*
X191748428Y-63313285D01*
X270016382Y-46714278D02*
X269873525Y-46761897D01*
X269873525Y-46761897D02*
X269635430Y-46761897D01*
X269635430Y-46761897D02*
X269540192Y-46714278D01*
X269540192Y-46714278D02*
X269492573Y-46666659D01*
X269492573Y-46666659D02*
X269444954Y-46571421D01*
X269444954Y-46571421D02*
X269444954Y-46476183D01*
X269444954Y-46476183D02*
X269492573Y-46380945D01*
X269492573Y-46380945D02*
X269540192Y-46333326D01*
X269540192Y-46333326D02*
X269635430Y-46285707D01*
X269635430Y-46285707D02*
X269825906Y-46238088D01*
X269825906Y-46238088D02*
X269921144Y-46190469D01*
X269921144Y-46190469D02*
X269968763Y-46142850D01*
X269968763Y-46142850D02*
X270016382Y-46047612D01*
X270016382Y-46047612D02*
X270016382Y-45952374D01*
X270016382Y-45952374D02*
X269968763Y-45857136D01*
X269968763Y-45857136D02*
X269921144Y-45809517D01*
X269921144Y-45809517D02*
X269825906Y-45761897D01*
X269825906Y-45761897D02*
X269587811Y-45761897D01*
X269587811Y-45761897D02*
X269444954Y-45809517D01*
X269111620Y-45761897D02*
X268873525Y-46761897D01*
X268873525Y-46761897D02*
X268683049Y-46047612D01*
X268683049Y-46047612D02*
X268492573Y-46761897D01*
X268492573Y-46761897D02*
X268254478Y-45761897D01*
X267349716Y-46761897D02*
X267921144Y-46761897D01*
X267635430Y-46761897D02*
X267635430Y-45761897D01*
X267635430Y-45761897D02*
X267730668Y-45904755D01*
X267730668Y-45904755D02*
X267825906Y-45999993D01*
X267825906Y-45999993D02*
X267921144Y-46047612D01*
X266492573Y-46095231D02*
X266492573Y-46761897D01*
X266730668Y-45714278D02*
X266968763Y-46428564D01*
X266968763Y-46428564D02*
X266349716Y-46428564D01*
X243799360Y-141171118D02*
X243656503Y-141218737D01*
X243656503Y-141218737D02*
X243418408Y-141218737D01*
X243418408Y-141218737D02*
X243323170Y-141171118D01*
X243323170Y-141171118D02*
X243275551Y-141123499D01*
X243275551Y-141123499D02*
X243227932Y-141028261D01*
X243227932Y-141028261D02*
X243227932Y-140933023D01*
X243227932Y-140933023D02*
X243275551Y-140837785D01*
X243275551Y-140837785D02*
X243323170Y-140790166D01*
X243323170Y-140790166D02*
X243418408Y-140742547D01*
X243418408Y-140742547D02*
X243608884Y-140694928D01*
X243608884Y-140694928D02*
X243704122Y-140647309D01*
X243704122Y-140647309D02*
X243751741Y-140599690D01*
X243751741Y-140599690D02*
X243799360Y-140504452D01*
X243799360Y-140504452D02*
X243799360Y-140409214D01*
X243799360Y-140409214D02*
X243751741Y-140313976D01*
X243751741Y-140313976D02*
X243704122Y-140266357D01*
X243704122Y-140266357D02*
X243608884Y-140218737D01*
X243608884Y-140218737D02*
X243370789Y-140218737D01*
X243370789Y-140218737D02*
X243227932Y-140266357D01*
X242894598Y-140218737D02*
X242656503Y-141218737D01*
X242656503Y-141218737D02*
X242466027Y-140504452D01*
X242466027Y-140504452D02*
X242275551Y-141218737D01*
X242275551Y-141218737D02*
X242037456Y-140218737D01*
X241751741Y-140218737D02*
X241132694Y-140218737D01*
X241132694Y-140218737D02*
X241466027Y-140599690D01*
X241466027Y-140599690D02*
X241323170Y-140599690D01*
X241323170Y-140599690D02*
X241227932Y-140647309D01*
X241227932Y-140647309D02*
X241180313Y-140694928D01*
X241180313Y-140694928D02*
X241132694Y-140790166D01*
X241132694Y-140790166D02*
X241132694Y-141028261D01*
X241132694Y-141028261D02*
X241180313Y-141123499D01*
X241180313Y-141123499D02*
X241227932Y-141171118D01*
X241227932Y-141171118D02*
X241323170Y-141218737D01*
X241323170Y-141218737D02*
X241608884Y-141218737D01*
X241608884Y-141218737D02*
X241704122Y-141171118D01*
X241704122Y-141171118D02*
X241751741Y-141123499D01*
X240656503Y-141218737D02*
X240466027Y-141218737D01*
X240466027Y-141218737D02*
X240370789Y-141171118D01*
X240370789Y-141171118D02*
X240323170Y-141123499D01*
X240323170Y-141123499D02*
X240227932Y-140980642D01*
X240227932Y-140980642D02*
X240180313Y-140790166D01*
X240180313Y-140790166D02*
X240180313Y-140409214D01*
X240180313Y-140409214D02*
X240227932Y-140313976D01*
X240227932Y-140313976D02*
X240275551Y-140266357D01*
X240275551Y-140266357D02*
X240370789Y-140218737D01*
X240370789Y-140218737D02*
X240561265Y-140218737D01*
X240561265Y-140218737D02*
X240656503Y-140266357D01*
X240656503Y-140266357D02*
X240704122Y-140313976D01*
X240704122Y-140313976D02*
X240751741Y-140409214D01*
X240751741Y-140409214D02*
X240751741Y-140647309D01*
X240751741Y-140647309D02*
X240704122Y-140742547D01*
X240704122Y-140742547D02*
X240656503Y-140790166D01*
X240656503Y-140790166D02*
X240561265Y-140837785D01*
X240561265Y-140837785D02*
X240370789Y-140837785D01*
X240370789Y-140837785D02*
X240275551Y-140790166D01*
X240275551Y-140790166D02*
X240227932Y-140742547D01*
X240227932Y-140742547D02*
X240180313Y-140647309D01*
X254402490Y-90833134D02*
X254259633Y-90880753D01*
X254259633Y-90880753D02*
X254021538Y-90880753D01*
X254021538Y-90880753D02*
X253926300Y-90833134D01*
X253926300Y-90833134D02*
X253878681Y-90785515D01*
X253878681Y-90785515D02*
X253831062Y-90690277D01*
X253831062Y-90690277D02*
X253831062Y-90595039D01*
X253831062Y-90595039D02*
X253878681Y-90499801D01*
X253878681Y-90499801D02*
X253926300Y-90452182D01*
X253926300Y-90452182D02*
X254021538Y-90404563D01*
X254021538Y-90404563D02*
X254212014Y-90356944D01*
X254212014Y-90356944D02*
X254307252Y-90309325D01*
X254307252Y-90309325D02*
X254354871Y-90261706D01*
X254354871Y-90261706D02*
X254402490Y-90166468D01*
X254402490Y-90166468D02*
X254402490Y-90071230D01*
X254402490Y-90071230D02*
X254354871Y-89975992D01*
X254354871Y-89975992D02*
X254307252Y-89928373D01*
X254307252Y-89928373D02*
X254212014Y-89880753D01*
X254212014Y-89880753D02*
X253973919Y-89880753D01*
X253973919Y-89880753D02*
X253831062Y-89928373D01*
X253497728Y-89880753D02*
X253259633Y-90880753D01*
X253259633Y-90880753D02*
X253069157Y-90166468D01*
X253069157Y-90166468D02*
X252878681Y-90880753D01*
X252878681Y-90880753D02*
X252640586Y-89880753D01*
X252307252Y-89975992D02*
X252259633Y-89928373D01*
X252259633Y-89928373D02*
X252164395Y-89880753D01*
X252164395Y-89880753D02*
X251926300Y-89880753D01*
X251926300Y-89880753D02*
X251831062Y-89928373D01*
X251831062Y-89928373D02*
X251783443Y-89975992D01*
X251783443Y-89975992D02*
X251735824Y-90071230D01*
X251735824Y-90071230D02*
X251735824Y-90166468D01*
X251735824Y-90166468D02*
X251783443Y-90309325D01*
X251783443Y-90309325D02*
X252354871Y-90880753D01*
X252354871Y-90880753D02*
X251735824Y-90880753D01*
X250783443Y-90880753D02*
X251354871Y-90880753D01*
X251069157Y-90880753D02*
X251069157Y-89880753D01*
X251069157Y-89880753D02*
X251164395Y-90023611D01*
X251164395Y-90023611D02*
X251259633Y-90118849D01*
X251259633Y-90118849D02*
X251354871Y-90166468D01*
X220966977Y-159275596D02*
X220824120Y-159323215D01*
X220824120Y-159323215D02*
X220586025Y-159323215D01*
X220586025Y-159323215D02*
X220490787Y-159275596D01*
X220490787Y-159275596D02*
X220443168Y-159227977D01*
X220443168Y-159227977D02*
X220395549Y-159132739D01*
X220395549Y-159132739D02*
X220395549Y-159037501D01*
X220395549Y-159037501D02*
X220443168Y-158942263D01*
X220443168Y-158942263D02*
X220490787Y-158894644D01*
X220490787Y-158894644D02*
X220586025Y-158847025D01*
X220586025Y-158847025D02*
X220776501Y-158799406D01*
X220776501Y-158799406D02*
X220871739Y-158751787D01*
X220871739Y-158751787D02*
X220919358Y-158704168D01*
X220919358Y-158704168D02*
X220966977Y-158608930D01*
X220966977Y-158608930D02*
X220966977Y-158513692D01*
X220966977Y-158513692D02*
X220919358Y-158418454D01*
X220919358Y-158418454D02*
X220871739Y-158370835D01*
X220871739Y-158370835D02*
X220776501Y-158323215D01*
X220776501Y-158323215D02*
X220538406Y-158323215D01*
X220538406Y-158323215D02*
X220395549Y-158370835D01*
X220062215Y-158323215D02*
X219824120Y-159323215D01*
X219824120Y-159323215D02*
X219633644Y-158608930D01*
X219633644Y-158608930D02*
X219443168Y-159323215D01*
X219443168Y-159323215D02*
X219205073Y-158323215D01*
X218919358Y-158323215D02*
X218300311Y-158323215D01*
X218300311Y-158323215D02*
X218633644Y-158704168D01*
X218633644Y-158704168D02*
X218490787Y-158704168D01*
X218490787Y-158704168D02*
X218395549Y-158751787D01*
X218395549Y-158751787D02*
X218347930Y-158799406D01*
X218347930Y-158799406D02*
X218300311Y-158894644D01*
X218300311Y-158894644D02*
X218300311Y-159132739D01*
X218300311Y-159132739D02*
X218347930Y-159227977D01*
X218347930Y-159227977D02*
X218395549Y-159275596D01*
X218395549Y-159275596D02*
X218490787Y-159323215D01*
X218490787Y-159323215D02*
X218776501Y-159323215D01*
X218776501Y-159323215D02*
X218871739Y-159275596D01*
X218871739Y-159275596D02*
X218919358Y-159227977D01*
X217443168Y-158323215D02*
X217633644Y-158323215D01*
X217633644Y-158323215D02*
X217728882Y-158370835D01*
X217728882Y-158370835D02*
X217776501Y-158418454D01*
X217776501Y-158418454D02*
X217871739Y-158561311D01*
X217871739Y-158561311D02*
X217919358Y-158751787D01*
X217919358Y-158751787D02*
X217919358Y-159132739D01*
X217919358Y-159132739D02*
X217871739Y-159227977D01*
X217871739Y-159227977D02*
X217824120Y-159275596D01*
X217824120Y-159275596D02*
X217728882Y-159323215D01*
X217728882Y-159323215D02*
X217538406Y-159323215D01*
X217538406Y-159323215D02*
X217443168Y-159275596D01*
X217443168Y-159275596D02*
X217395549Y-159227977D01*
X217395549Y-159227977D02*
X217347930Y-159132739D01*
X217347930Y-159132739D02*
X217347930Y-158894644D01*
X217347930Y-158894644D02*
X217395549Y-158799406D01*
X217395549Y-158799406D02*
X217443168Y-158751787D01*
X217443168Y-158751787D02*
X217538406Y-158704168D01*
X217538406Y-158704168D02*
X217728882Y-158704168D01*
X217728882Y-158704168D02*
X217824120Y-158751787D01*
X217824120Y-158751787D02*
X217871739Y-158799406D01*
X217871739Y-158799406D02*
X217919358Y-158894644D01*
X195179999Y-55763285D02*
X195208571Y-55791857D01*
X195208571Y-55791857D02*
X195294285Y-55820428D01*
X195294285Y-55820428D02*
X195351428Y-55820428D01*
X195351428Y-55820428D02*
X195437142Y-55791857D01*
X195437142Y-55791857D02*
X195494285Y-55734714D01*
X195494285Y-55734714D02*
X195522856Y-55677571D01*
X195522856Y-55677571D02*
X195551428Y-55563285D01*
X195551428Y-55563285D02*
X195551428Y-55477571D01*
X195551428Y-55477571D02*
X195522856Y-55363285D01*
X195522856Y-55363285D02*
X195494285Y-55306142D01*
X195494285Y-55306142D02*
X195437142Y-55249000D01*
X195437142Y-55249000D02*
X195351428Y-55220428D01*
X195351428Y-55220428D02*
X195294285Y-55220428D01*
X195294285Y-55220428D02*
X195208571Y-55249000D01*
X195208571Y-55249000D02*
X195179999Y-55277571D01*
X194951428Y-55277571D02*
X194922856Y-55249000D01*
X194922856Y-55249000D02*
X194865714Y-55220428D01*
X194865714Y-55220428D02*
X194722856Y-55220428D01*
X194722856Y-55220428D02*
X194665714Y-55249000D01*
X194665714Y-55249000D02*
X194637142Y-55277571D01*
X194637142Y-55277571D02*
X194608571Y-55334714D01*
X194608571Y-55334714D02*
X194608571Y-55391857D01*
X194608571Y-55391857D02*
X194637142Y-55477571D01*
X194637142Y-55477571D02*
X194979999Y-55820428D01*
X194979999Y-55820428D02*
X194608571Y-55820428D01*
X334551085Y-76620880D02*
X334408228Y-76668499D01*
X334408228Y-76668499D02*
X334170133Y-76668499D01*
X334170133Y-76668499D02*
X334074895Y-76620880D01*
X334074895Y-76620880D02*
X334027276Y-76573261D01*
X334027276Y-76573261D02*
X333979657Y-76478023D01*
X333979657Y-76478023D02*
X333979657Y-76382785D01*
X333979657Y-76382785D02*
X334027276Y-76287547D01*
X334027276Y-76287547D02*
X334074895Y-76239928D01*
X334074895Y-76239928D02*
X334170133Y-76192309D01*
X334170133Y-76192309D02*
X334360609Y-76144690D01*
X334360609Y-76144690D02*
X334455847Y-76097071D01*
X334455847Y-76097071D02*
X334503466Y-76049452D01*
X334503466Y-76049452D02*
X334551085Y-75954214D01*
X334551085Y-75954214D02*
X334551085Y-75858976D01*
X334551085Y-75858976D02*
X334503466Y-75763738D01*
X334503466Y-75763738D02*
X334455847Y-75716119D01*
X334455847Y-75716119D02*
X334360609Y-75668499D01*
X334360609Y-75668499D02*
X334122514Y-75668499D01*
X334122514Y-75668499D02*
X333979657Y-75716119D01*
X333646323Y-75668499D02*
X333408228Y-76668499D01*
X333408228Y-76668499D02*
X333217752Y-75954214D01*
X333217752Y-75954214D02*
X333027276Y-76668499D01*
X333027276Y-76668499D02*
X332789181Y-75668499D01*
X332455847Y-75763738D02*
X332408228Y-75716119D01*
X332408228Y-75716119D02*
X332312990Y-75668499D01*
X332312990Y-75668499D02*
X332074895Y-75668499D01*
X332074895Y-75668499D02*
X331979657Y-75716119D01*
X331979657Y-75716119D02*
X331932038Y-75763738D01*
X331932038Y-75763738D02*
X331884419Y-75858976D01*
X331884419Y-75858976D02*
X331884419Y-75954214D01*
X331884419Y-75954214D02*
X331932038Y-76097071D01*
X331932038Y-76097071D02*
X332503466Y-76668499D01*
X332503466Y-76668499D02*
X331884419Y-76668499D01*
X331027276Y-75668499D02*
X331217752Y-75668499D01*
X331217752Y-75668499D02*
X331312990Y-75716119D01*
X331312990Y-75716119D02*
X331360609Y-75763738D01*
X331360609Y-75763738D02*
X331455847Y-75906595D01*
X331455847Y-75906595D02*
X331503466Y-76097071D01*
X331503466Y-76097071D02*
X331503466Y-76478023D01*
X331503466Y-76478023D02*
X331455847Y-76573261D01*
X331455847Y-76573261D02*
X331408228Y-76620880D01*
X331408228Y-76620880D02*
X331312990Y-76668499D01*
X331312990Y-76668499D02*
X331122514Y-76668499D01*
X331122514Y-76668499D02*
X331027276Y-76620880D01*
X331027276Y-76620880D02*
X330979657Y-76573261D01*
X330979657Y-76573261D02*
X330932038Y-76478023D01*
X330932038Y-76478023D02*
X330932038Y-76239928D01*
X330932038Y-76239928D02*
X330979657Y-76144690D01*
X330979657Y-76144690D02*
X331027276Y-76097071D01*
X331027276Y-76097071D02*
X331122514Y-76049452D01*
X331122514Y-76049452D02*
X331312990Y-76049452D01*
X331312990Y-76049452D02*
X331408228Y-76097071D01*
X331408228Y-76097071D02*
X331455847Y-76144690D01*
X331455847Y-76144690D02*
X331503466Y-76239928D01*
X198486999Y-62833285D02*
X198515571Y-62861857D01*
X198515571Y-62861857D02*
X198601285Y-62890428D01*
X198601285Y-62890428D02*
X198658428Y-62890428D01*
X198658428Y-62890428D02*
X198744142Y-62861857D01*
X198744142Y-62861857D02*
X198801285Y-62804714D01*
X198801285Y-62804714D02*
X198829856Y-62747571D01*
X198829856Y-62747571D02*
X198858428Y-62633285D01*
X198858428Y-62633285D02*
X198858428Y-62547571D01*
X198858428Y-62547571D02*
X198829856Y-62433285D01*
X198829856Y-62433285D02*
X198801285Y-62376142D01*
X198801285Y-62376142D02*
X198744142Y-62319000D01*
X198744142Y-62319000D02*
X198658428Y-62290428D01*
X198658428Y-62290428D02*
X198601285Y-62290428D01*
X198601285Y-62290428D02*
X198515571Y-62319000D01*
X198515571Y-62319000D02*
X198486999Y-62347571D01*
X197915571Y-62890428D02*
X198258428Y-62890428D01*
X198086999Y-62890428D02*
X198086999Y-62290428D01*
X198086999Y-62290428D02*
X198144142Y-62376142D01*
X198144142Y-62376142D02*
X198201285Y-62433285D01*
X198201285Y-62433285D02*
X198258428Y-62461857D01*
X216020285Y-60560000D02*
X216048857Y-60531428D01*
X216048857Y-60531428D02*
X216077428Y-60445714D01*
X216077428Y-60445714D02*
X216077428Y-60388571D01*
X216077428Y-60388571D02*
X216048857Y-60302857D01*
X216048857Y-60302857D02*
X215991714Y-60245714D01*
X215991714Y-60245714D02*
X215934571Y-60217143D01*
X215934571Y-60217143D02*
X215820285Y-60188571D01*
X215820285Y-60188571D02*
X215734571Y-60188571D01*
X215734571Y-60188571D02*
X215620285Y-60217143D01*
X215620285Y-60217143D02*
X215563142Y-60245714D01*
X215563142Y-60245714D02*
X215506000Y-60302857D01*
X215506000Y-60302857D02*
X215477428Y-60388571D01*
X215477428Y-60388571D02*
X215477428Y-60445714D01*
X215477428Y-60445714D02*
X215506000Y-60531428D01*
X215506000Y-60531428D02*
X215534571Y-60560000D01*
X215477428Y-61102857D02*
X215477428Y-60817143D01*
X215477428Y-60817143D02*
X215763142Y-60788571D01*
X215763142Y-60788571D02*
X215734571Y-60817143D01*
X215734571Y-60817143D02*
X215706000Y-60874286D01*
X215706000Y-60874286D02*
X215706000Y-61017143D01*
X215706000Y-61017143D02*
X215734571Y-61074286D01*
X215734571Y-61074286D02*
X215763142Y-61102857D01*
X215763142Y-61102857D02*
X215820285Y-61131428D01*
X215820285Y-61131428D02*
X215963142Y-61131428D01*
X215963142Y-61131428D02*
X216020285Y-61102857D01*
X216020285Y-61102857D02*
X216048857Y-61074286D01*
X216048857Y-61074286D02*
X216077428Y-61017143D01*
X216077428Y-61017143D02*
X216077428Y-60874286D01*
X216077428Y-60874286D02*
X216048857Y-60817143D01*
X216048857Y-60817143D02*
X216020285Y-60788571D01*
X199362714Y-66963285D02*
X199391286Y-66991857D01*
X199391286Y-66991857D02*
X199477000Y-67020428D01*
X199477000Y-67020428D02*
X199534143Y-67020428D01*
X199534143Y-67020428D02*
X199619857Y-66991857D01*
X199619857Y-66991857D02*
X199677000Y-66934714D01*
X199677000Y-66934714D02*
X199705571Y-66877571D01*
X199705571Y-66877571D02*
X199734143Y-66763285D01*
X199734143Y-66763285D02*
X199734143Y-66677571D01*
X199734143Y-66677571D02*
X199705571Y-66563285D01*
X199705571Y-66563285D02*
X199677000Y-66506142D01*
X199677000Y-66506142D02*
X199619857Y-66449000D01*
X199619857Y-66449000D02*
X199534143Y-66420428D01*
X199534143Y-66420428D02*
X199477000Y-66420428D01*
X199477000Y-66420428D02*
X199391286Y-66449000D01*
X199391286Y-66449000D02*
X199362714Y-66477571D01*
X198791286Y-67020428D02*
X199134143Y-67020428D01*
X198962714Y-67020428D02*
X198962714Y-66420428D01*
X198962714Y-66420428D02*
X199019857Y-66506142D01*
X199019857Y-66506142D02*
X199077000Y-66563285D01*
X199077000Y-66563285D02*
X199134143Y-66591857D01*
X198591285Y-66420428D02*
X198191285Y-66420428D01*
X198191285Y-66420428D02*
X198448428Y-67020428D01*
X224115714Y-67865428D02*
X224315714Y-67579714D01*
X224458571Y-67865428D02*
X224458571Y-67265428D01*
X224458571Y-67265428D02*
X224230000Y-67265428D01*
X224230000Y-67265428D02*
X224172857Y-67294000D01*
X224172857Y-67294000D02*
X224144286Y-67322571D01*
X224144286Y-67322571D02*
X224115714Y-67379714D01*
X224115714Y-67379714D02*
X224115714Y-67465428D01*
X224115714Y-67465428D02*
X224144286Y-67522571D01*
X224144286Y-67522571D02*
X224172857Y-67551142D01*
X224172857Y-67551142D02*
X224230000Y-67579714D01*
X224230000Y-67579714D02*
X224458571Y-67579714D01*
X223544286Y-67865428D02*
X223887143Y-67865428D01*
X223715714Y-67865428D02*
X223715714Y-67265428D01*
X223715714Y-67265428D02*
X223772857Y-67351142D01*
X223772857Y-67351142D02*
X223830000Y-67408285D01*
X223830000Y-67408285D02*
X223887143Y-67436857D01*
X223172857Y-67265428D02*
X223115714Y-67265428D01*
X223115714Y-67265428D02*
X223058571Y-67294000D01*
X223058571Y-67294000D02*
X223030000Y-67322571D01*
X223030000Y-67322571D02*
X223001428Y-67379714D01*
X223001428Y-67379714D02*
X222972857Y-67494000D01*
X222972857Y-67494000D02*
X222972857Y-67636857D01*
X222972857Y-67636857D02*
X223001428Y-67751142D01*
X223001428Y-67751142D02*
X223030000Y-67808285D01*
X223030000Y-67808285D02*
X223058571Y-67836857D01*
X223058571Y-67836857D02*
X223115714Y-67865428D01*
X223115714Y-67865428D02*
X223172857Y-67865428D01*
X223172857Y-67865428D02*
X223230000Y-67836857D01*
X223230000Y-67836857D02*
X223258571Y-67808285D01*
X223258571Y-67808285D02*
X223287142Y-67751142D01*
X223287142Y-67751142D02*
X223315714Y-67636857D01*
X223315714Y-67636857D02*
X223315714Y-67494000D01*
X223315714Y-67494000D02*
X223287142Y-67379714D01*
X223287142Y-67379714D02*
X223258571Y-67322571D01*
X223258571Y-67322571D02*
X223230000Y-67294000D01*
X223230000Y-67294000D02*
X223172857Y-67265428D01*
X213210285Y-83520000D02*
X213238857Y-83491428D01*
X213238857Y-83491428D02*
X213267428Y-83405714D01*
X213267428Y-83405714D02*
X213267428Y-83348571D01*
X213267428Y-83348571D02*
X213238857Y-83262857D01*
X213238857Y-83262857D02*
X213181714Y-83205714D01*
X213181714Y-83205714D02*
X213124571Y-83177143D01*
X213124571Y-83177143D02*
X213010285Y-83148571D01*
X213010285Y-83148571D02*
X212924571Y-83148571D01*
X212924571Y-83148571D02*
X212810285Y-83177143D01*
X212810285Y-83177143D02*
X212753142Y-83205714D01*
X212753142Y-83205714D02*
X212696000Y-83262857D01*
X212696000Y-83262857D02*
X212667428Y-83348571D01*
X212667428Y-83348571D02*
X212667428Y-83405714D01*
X212667428Y-83405714D02*
X212696000Y-83491428D01*
X212696000Y-83491428D02*
X212724571Y-83520000D01*
X212667428Y-83720000D02*
X212667428Y-84120000D01*
X212667428Y-84120000D02*
X213267428Y-83862857D01*
X223924142Y-54980428D02*
X223924142Y-55466142D01*
X223924142Y-55466142D02*
X223895571Y-55523285D01*
X223895571Y-55523285D02*
X223867000Y-55551857D01*
X223867000Y-55551857D02*
X223809857Y-55580428D01*
X223809857Y-55580428D02*
X223695571Y-55580428D01*
X223695571Y-55580428D02*
X223638428Y-55551857D01*
X223638428Y-55551857D02*
X223609857Y-55523285D01*
X223609857Y-55523285D02*
X223581285Y-55466142D01*
X223581285Y-55466142D02*
X223581285Y-54980428D01*
X223038429Y-55180428D02*
X223038429Y-55580428D01*
X223181286Y-54951857D02*
X223324143Y-55380428D01*
X223324143Y-55380428D02*
X222952714Y-55380428D01*
X208697428Y-75784285D02*
X208411714Y-75584285D01*
X208697428Y-75441428D02*
X208097428Y-75441428D01*
X208097428Y-75441428D02*
X208097428Y-75669999D01*
X208097428Y-75669999D02*
X208126000Y-75727142D01*
X208126000Y-75727142D02*
X208154571Y-75755713D01*
X208154571Y-75755713D02*
X208211714Y-75784285D01*
X208211714Y-75784285D02*
X208297428Y-75784285D01*
X208297428Y-75784285D02*
X208354571Y-75755713D01*
X208354571Y-75755713D02*
X208383142Y-75727142D01*
X208383142Y-75727142D02*
X208411714Y-75669999D01*
X208411714Y-75669999D02*
X208411714Y-75441428D01*
X208697428Y-76355713D02*
X208697428Y-76012856D01*
X208697428Y-76184285D02*
X208097428Y-76184285D01*
X208097428Y-76184285D02*
X208183142Y-76127142D01*
X208183142Y-76127142D02*
X208240285Y-76069999D01*
X208240285Y-76069999D02*
X208268857Y-76012856D01*
X208697428Y-76927142D02*
X208697428Y-76584285D01*
X208697428Y-76755714D02*
X208097428Y-76755714D01*
X208097428Y-76755714D02*
X208183142Y-76698571D01*
X208183142Y-76698571D02*
X208240285Y-76641428D01*
X208240285Y-76641428D02*
X208268857Y-76584285D01*
X199869698Y-71808732D02*
X199910105Y-71808732D01*
X199910105Y-71808732D02*
X199990917Y-71768326D01*
X199990917Y-71768326D02*
X200031323Y-71727920D01*
X200031323Y-71727920D02*
X200071729Y-71647108D01*
X200071729Y-71647108D02*
X200071729Y-71566296D01*
X200071729Y-71566296D02*
X200051526Y-71505687D01*
X200051526Y-71505687D02*
X199990917Y-71404671D01*
X199990917Y-71404671D02*
X199930308Y-71344062D01*
X199930308Y-71344062D02*
X199829292Y-71283453D01*
X199829292Y-71283453D02*
X199768683Y-71263250D01*
X199768683Y-71263250D02*
X199687871Y-71263250D01*
X199687871Y-71263250D02*
X199607059Y-71303656D01*
X199607059Y-71303656D02*
X199566653Y-71344062D01*
X199566653Y-71344062D02*
X199526247Y-71424874D01*
X199526247Y-71424874D02*
X199526247Y-71465281D01*
X199506044Y-72253200D02*
X199748480Y-72010763D01*
X199627262Y-72131981D02*
X199202998Y-71707717D01*
X199202998Y-71707717D02*
X199304013Y-71727920D01*
X199304013Y-71727920D02*
X199384825Y-71727920D01*
X199384825Y-71727920D02*
X199445434Y-71707717D01*
X198697921Y-72212794D02*
X198899952Y-72010763D01*
X198899952Y-72010763D02*
X199122185Y-72192591D01*
X199122185Y-72192591D02*
X199081779Y-72192591D01*
X199081779Y-72192591D02*
X199021170Y-72212794D01*
X199021170Y-72212794D02*
X198920155Y-72313809D01*
X198920155Y-72313809D02*
X198899952Y-72374418D01*
X198899952Y-72374418D02*
X198899952Y-72414824D01*
X198899952Y-72414824D02*
X198920155Y-72475433D01*
X198920155Y-72475433D02*
X199021170Y-72576449D01*
X199021170Y-72576449D02*
X199081779Y-72596652D01*
X199081779Y-72596652D02*
X199122185Y-72596652D01*
X199122185Y-72596652D02*
X199182794Y-72576449D01*
X199182794Y-72576449D02*
X199283810Y-72475433D01*
X199283810Y-72475433D02*
X199304013Y-72414824D01*
X199304013Y-72414824D02*
X199304013Y-72374418D01*
X327655091Y-50951668D02*
X327512234Y-50999287D01*
X327512234Y-50999287D02*
X327274139Y-50999287D01*
X327274139Y-50999287D02*
X327178901Y-50951668D01*
X327178901Y-50951668D02*
X327131282Y-50904049D01*
X327131282Y-50904049D02*
X327083663Y-50808811D01*
X327083663Y-50808811D02*
X327083663Y-50713573D01*
X327083663Y-50713573D02*
X327131282Y-50618335D01*
X327131282Y-50618335D02*
X327178901Y-50570716D01*
X327178901Y-50570716D02*
X327274139Y-50523097D01*
X327274139Y-50523097D02*
X327464615Y-50475478D01*
X327464615Y-50475478D02*
X327559853Y-50427859D01*
X327559853Y-50427859D02*
X327607472Y-50380240D01*
X327607472Y-50380240D02*
X327655091Y-50285002D01*
X327655091Y-50285002D02*
X327655091Y-50189764D01*
X327655091Y-50189764D02*
X327607472Y-50094526D01*
X327607472Y-50094526D02*
X327559853Y-50046907D01*
X327559853Y-50046907D02*
X327464615Y-49999287D01*
X327464615Y-49999287D02*
X327226520Y-49999287D01*
X327226520Y-49999287D02*
X327083663Y-50046907D01*
X326750329Y-49999287D02*
X326512234Y-50999287D01*
X326512234Y-50999287D02*
X326321758Y-50285002D01*
X326321758Y-50285002D02*
X326131282Y-50999287D01*
X326131282Y-50999287D02*
X325893187Y-49999287D01*
X324988425Y-50999287D02*
X325559853Y-50999287D01*
X325274139Y-50999287D02*
X325274139Y-49999287D01*
X325274139Y-49999287D02*
X325369377Y-50142145D01*
X325369377Y-50142145D02*
X325464615Y-50237383D01*
X325464615Y-50237383D02*
X325559853Y-50285002D01*
X324416996Y-50427859D02*
X324512234Y-50380240D01*
X324512234Y-50380240D02*
X324559853Y-50332621D01*
X324559853Y-50332621D02*
X324607472Y-50237383D01*
X324607472Y-50237383D02*
X324607472Y-50189764D01*
X324607472Y-50189764D02*
X324559853Y-50094526D01*
X324559853Y-50094526D02*
X324512234Y-50046907D01*
X324512234Y-50046907D02*
X324416996Y-49999287D01*
X324416996Y-49999287D02*
X324226520Y-49999287D01*
X324226520Y-49999287D02*
X324131282Y-50046907D01*
X324131282Y-50046907D02*
X324083663Y-50094526D01*
X324083663Y-50094526D02*
X324036044Y-50189764D01*
X324036044Y-50189764D02*
X324036044Y-50237383D01*
X324036044Y-50237383D02*
X324083663Y-50332621D01*
X324083663Y-50332621D02*
X324131282Y-50380240D01*
X324131282Y-50380240D02*
X324226520Y-50427859D01*
X324226520Y-50427859D02*
X324416996Y-50427859D01*
X324416996Y-50427859D02*
X324512234Y-50475478D01*
X324512234Y-50475478D02*
X324559853Y-50523097D01*
X324559853Y-50523097D02*
X324607472Y-50618335D01*
X324607472Y-50618335D02*
X324607472Y-50808811D01*
X324607472Y-50808811D02*
X324559853Y-50904049D01*
X324559853Y-50904049D02*
X324512234Y-50951668D01*
X324512234Y-50951668D02*
X324416996Y-50999287D01*
X324416996Y-50999287D02*
X324226520Y-50999287D01*
X324226520Y-50999287D02*
X324131282Y-50951668D01*
X324131282Y-50951668D02*
X324083663Y-50904049D01*
X324083663Y-50904049D02*
X324036044Y-50808811D01*
X324036044Y-50808811D02*
X324036044Y-50618335D01*
X324036044Y-50618335D02*
X324083663Y-50523097D01*
X324083663Y-50523097D02*
X324131282Y-50475478D01*
X324131282Y-50475478D02*
X324226520Y-50427859D01*
X216701006Y-129913218D02*
X216701006Y-130383218D01*
X216701006Y-126833218D02*
X216701006Y-127063218D01*
X216201006Y-130883218D02*
X211636182Y-130883218D01*
X215151006Y-126833218D02*
X216701006Y-126833218D01*
X207751006Y-126833218D02*
X213651006Y-126833218D01*
X205751006Y-132483218D02*
X205751006Y-132723218D01*
X205751006Y-129633218D02*
X205751006Y-128833218D01*
X216201006Y-130883218D02*
G75*
G03*
X216701006Y-130383218I-1J500001D01*
G01*
X211636182Y-130883219D02*
G75*
G03*
X209341861Y-132723218I-866J-2349331D01*
G01*
X207751006Y-126833218D02*
G75*
G03*
X205751006Y-128833218I5J-2000005D01*
G01*
D11*
X203195250Y-64133854D02*
X203195250Y-63918182D01*
X203915250Y-64133854D02*
X203915250Y-63918182D01*
D10*
X246312056Y-62924907D02*
X246312056Y-63394907D01*
X246312056Y-59844907D02*
X246312056Y-60074907D01*
X245812056Y-63894907D02*
X241247232Y-63894907D01*
X244762056Y-59844907D02*
X246312056Y-59844907D01*
X237362056Y-59844907D02*
X243262056Y-59844907D01*
X235362056Y-65494907D02*
X235362056Y-65734907D01*
X235362056Y-62644907D02*
X235362056Y-61844907D01*
X245812056Y-63894907D02*
G75*
G03*
X246312056Y-63394907I-1J500001D01*
G01*
X241247232Y-63894908D02*
G75*
G03*
X238952911Y-65734907I-866J-2349331D01*
G01*
X237362056Y-59844907D02*
G75*
G03*
X235362056Y-61844907I5J-2000005D01*
G01*
D11*
X208780000Y-61777836D02*
X208780000Y-61562164D01*
X209500000Y-61777836D02*
X209500000Y-61562164D01*
D10*
X260499947Y-118177327D02*
X260499947Y-118647327D01*
X260499947Y-115097327D02*
X260499947Y-115327327D01*
X259999947Y-119147327D02*
X255435123Y-119147327D01*
X258949947Y-115097327D02*
X260499947Y-115097327D01*
X251549947Y-115097327D02*
X257449947Y-115097327D01*
X249549947Y-120747327D02*
X249549947Y-120987327D01*
X249549947Y-117897327D02*
X249549947Y-117097327D01*
X259999947Y-119147327D02*
G75*
G03*
X260499947Y-118647327I-1J500001D01*
G01*
X255435123Y-119147328D02*
G75*
G03*
X253140802Y-120987327I-866J-2349331D01*
G01*
X251549947Y-115097327D02*
G75*
G03*
X249549947Y-117097327I5J-2000005D01*
G01*
D11*
X200967836Y-65640250D02*
X200752164Y-65640250D01*
X200967836Y-64920250D02*
X200752164Y-64920250D01*
X205284000Y-77745414D02*
X205284000Y-77961086D01*
X204564000Y-77745414D02*
X204564000Y-77961086D01*
X189824500Y-65207258D02*
X189824500Y-64732742D01*
X190869500Y-65207258D02*
X190869500Y-64732742D01*
X216532164Y-67310000D02*
X216747836Y-67310000D01*
X216532164Y-68030000D02*
X216747836Y-68030000D01*
D12*
X225579981Y-72968485D02*
X225579981Y-73397364D01*
X225579981Y-72968485D02*
X235629943Y-72968485D01*
X225579981Y-76459645D02*
X225579981Y-78373514D01*
X225579981Y-78373514D02*
X227429994Y-78373514D01*
X233736166Y-78468510D02*
X235605000Y-78468510D01*
X235605000Y-73397364D02*
X235605000Y-72968485D01*
X235605000Y-78468510D02*
X235605000Y-76459645D01*
X235217954Y-77992513D02*
G75*
G03*
X235217954Y-77992513I-127000J0D01*
G01*
D13*
X235659991Y-78333509D02*
G75*
G03*
X235659991Y-78333509I-29997J0D01*
G01*
D10*
X303876491Y-65678325D02*
X303876491Y-66148325D01*
X303876491Y-62598325D02*
X303876491Y-62828325D01*
X303376491Y-66648325D02*
X298811667Y-66648325D01*
X302326491Y-62598325D02*
X303876491Y-62598325D01*
X294926491Y-62598325D02*
X300826491Y-62598325D01*
X292926491Y-68248325D02*
X292926491Y-68488325D01*
X292926491Y-65398325D02*
X292926491Y-64598325D01*
X303376491Y-66648325D02*
G75*
G03*
X303876491Y-66148325I-1J500001D01*
G01*
X298811667Y-66648326D02*
G75*
G03*
X296517346Y-68488325I-866J-2349331D01*
G01*
X294926491Y-62598325D02*
G75*
G03*
X292926491Y-64598325I5J-2000005D01*
G01*
D11*
X204211250Y-64133854D02*
X204211250Y-63918182D01*
X204931250Y-64133854D02*
X204931250Y-63918182D01*
X206808000Y-77745414D02*
X206808000Y-77961086D01*
X206088000Y-77745414D02*
X206088000Y-77961086D01*
D10*
X296980497Y-40009113D02*
X296980497Y-40479113D01*
X296980497Y-36929113D02*
X296980497Y-37159113D01*
X296480497Y-40979113D02*
X291915673Y-40979113D01*
X295430497Y-36929113D02*
X296980497Y-36929113D01*
X288030497Y-36929113D02*
X293930497Y-36929113D01*
X286030497Y-42579113D02*
X286030497Y-42819113D01*
X286030497Y-39729113D02*
X286030497Y-38929113D01*
X296480497Y-40979113D02*
G75*
G03*
X296980497Y-40479113I-1J500001D01*
G01*
X291915673Y-40979114D02*
G75*
G03*
X289621352Y-42819113I-866J-2349331D01*
G01*
X288030497Y-36929113D02*
G75*
G03*
X286030497Y-38929113I5J-2000005D01*
G01*
D11*
X217940000Y-56502836D02*
X217940000Y-56287164D01*
X218660000Y-56502836D02*
X218660000Y-56287164D01*
X187744500Y-67760000D02*
X190429500Y-67760000D01*
X187744500Y-69680000D02*
X187744500Y-67760000D01*
X190429500Y-69680000D02*
X187744500Y-69680000D01*
X199889164Y-61110000D02*
X200104836Y-61110000D01*
X199889164Y-61830000D02*
X200104836Y-61830000D01*
X205989250Y-81532854D02*
X205989250Y-81317182D01*
X206709250Y-81532854D02*
X206709250Y-81317182D01*
X210947000Y-73875000D02*
X210947000Y-73225000D01*
X210297000Y-73875000D02*
X210947000Y-73875000D01*
X210297000Y-66655000D02*
X210947000Y-66655000D01*
X204377000Y-73875000D02*
X203727000Y-73875000D01*
X204377000Y-66655000D02*
X203727000Y-66655000D01*
X203727000Y-73875000D02*
X203727000Y-73225000D01*
X203727000Y-66655000D02*
X203727000Y-67305000D01*
X206602258Y-60502500D02*
X206127742Y-60502500D01*
X206602258Y-59457500D02*
X206127742Y-59457500D01*
X207623000Y-79759250D02*
X211623000Y-79759250D01*
X207623000Y-83059250D02*
X207623000Y-79759250D01*
D10*
X275717677Y-70143509D02*
X275717677Y-70613509D01*
X275717677Y-67063509D02*
X275717677Y-67293509D01*
X275217677Y-71113509D02*
X270652853Y-71113509D01*
X274167677Y-67063509D02*
X275717677Y-67063509D01*
X266767677Y-67063509D02*
X272667677Y-67063509D01*
X264767677Y-72713509D02*
X264767677Y-72953509D01*
X264767677Y-69863509D02*
X264767677Y-69063509D01*
X275217677Y-71113509D02*
G75*
G03*
X275717677Y-70613509I-1J500001D01*
G01*
X270652853Y-71113510D02*
G75*
G03*
X268358532Y-72953509I-866J-2349331D01*
G01*
X266767677Y-67063509D02*
G75*
G03*
X264767677Y-69063509I5J-2000005D01*
G01*
D11*
X207312258Y-62002500D02*
X206837742Y-62002500D01*
X207312258Y-60957500D02*
X206837742Y-60957500D01*
X198500000Y-61670000D02*
X194490000Y-61670000D01*
X198500000Y-59670000D02*
X198500000Y-61670000D01*
X198500000Y-59670000D02*
X194490000Y-59670000D01*
X193580000Y-57107500D02*
X193580000Y-57757500D01*
X193580000Y-57107500D02*
X193580000Y-56457500D01*
X196700000Y-57107500D02*
X196700000Y-58782500D01*
X196700000Y-57107500D02*
X196700000Y-56457500D01*
D10*
X235533389Y-113808740D02*
X235533389Y-114278740D01*
X235533389Y-110728740D02*
X235533389Y-110958740D01*
X235033389Y-114778740D02*
X230468565Y-114778740D01*
X233983389Y-110728740D02*
X235533389Y-110728740D01*
X226583389Y-110728740D02*
X232483389Y-110728740D01*
X224583389Y-116378740D02*
X224583389Y-116618740D01*
X224583389Y-113528740D02*
X224583389Y-112728740D01*
X235033389Y-114778740D02*
G75*
G03*
X235533389Y-114278740I-1J500001D01*
G01*
X230468565Y-114778741D02*
G75*
G03*
X228174244Y-116618740I-866J-2349331D01*
G01*
X226583389Y-110728740D02*
G75*
G03*
X224583389Y-112728740I5J-2000005D01*
G01*
D11*
X192210641Y-69110000D02*
X191903359Y-69110000D01*
X192210641Y-68350000D02*
X191903359Y-68350000D01*
D12*
X202311981Y-52764975D02*
X202311981Y-53193854D01*
X202311981Y-52764975D02*
X212361943Y-52764975D01*
X202311981Y-56256135D02*
X202311981Y-58170004D01*
X202311981Y-58170004D02*
X204161994Y-58170004D01*
X210468166Y-58265000D02*
X212337000Y-58265000D01*
X212337000Y-53193854D02*
X212337000Y-52764975D01*
X212337000Y-58265000D02*
X212337000Y-56256135D01*
X211949954Y-57789003D02*
G75*
G03*
X211949954Y-57789003I-127000J0D01*
G01*
D13*
X212391991Y-58129999D02*
G75*
G03*
X212391991Y-58129999I-29997J0D01*
G01*
D11*
X192409500Y-64737742D02*
X192409500Y-65212258D01*
X191364500Y-64737742D02*
X191364500Y-65212258D01*
D10*
X268821683Y-44474297D02*
X268821683Y-44944297D01*
X268821683Y-41394297D02*
X268821683Y-41624297D01*
X268321683Y-45444297D02*
X263756859Y-45444297D01*
X267271683Y-41394297D02*
X268821683Y-41394297D01*
X259871683Y-41394297D02*
X265771683Y-41394297D01*
X257871683Y-47044297D02*
X257871683Y-47284297D01*
X257871683Y-44194297D02*
X257871683Y-43394297D01*
X268321683Y-45444297D02*
G75*
G03*
X268821683Y-44944297I-1J500001D01*
G01*
X263756859Y-45444298D02*
G75*
G03*
X261462538Y-47284297I-866J-2349331D01*
G01*
X259871683Y-41394297D02*
G75*
G03*
X257871683Y-43394297I5J-2000005D01*
G01*
X242604661Y-138931137D02*
X242604661Y-139401137D01*
X242604661Y-135851137D02*
X242604661Y-136081137D01*
X242104661Y-139901137D02*
X237539837Y-139901137D01*
X241054661Y-135851137D02*
X242604661Y-135851137D01*
X233654661Y-135851137D02*
X239554661Y-135851137D01*
X231654661Y-141501137D02*
X231654661Y-141741137D01*
X231654661Y-138651137D02*
X231654661Y-137851137D01*
X242104661Y-139901137D02*
G75*
G03*
X242604661Y-139401137I-1J500001D01*
G01*
X237539837Y-139901138D02*
G75*
G03*
X235245516Y-141741137I-866J-2349331D01*
G01*
X233654661Y-135851137D02*
G75*
G03*
X231654661Y-137851137I5J-2000005D01*
G01*
X253207791Y-88593153D02*
X253207791Y-89063153D01*
X253207791Y-85513153D02*
X253207791Y-85743153D01*
X252707791Y-89563153D02*
X248142967Y-89563153D01*
X251657791Y-85513153D02*
X253207791Y-85513153D01*
X244257791Y-85513153D02*
X250157791Y-85513153D01*
X242257791Y-91163153D02*
X242257791Y-91403153D01*
X242257791Y-88313153D02*
X242257791Y-87513153D01*
X252707791Y-89563153D02*
G75*
G03*
X253207791Y-89063153I-1J500001D01*
G01*
X248142967Y-89563154D02*
G75*
G03*
X245848646Y-91403153I-866J-2349331D01*
G01*
X244257791Y-85513153D02*
G75*
G03*
X242257791Y-87513153I5J-2000005D01*
G01*
X219772278Y-157035615D02*
X219772278Y-157505615D01*
X219772278Y-153955615D02*
X219772278Y-154185615D01*
X219272278Y-158005615D02*
X214707454Y-158005615D01*
X218222278Y-153955615D02*
X219772278Y-153955615D01*
X210822278Y-153955615D02*
X216722278Y-153955615D01*
X208822278Y-159605615D02*
X208822278Y-159845615D01*
X208822278Y-156755615D02*
X208822278Y-155955615D01*
X219272278Y-158005615D02*
G75*
G03*
X219772278Y-157505615I-1J500001D01*
G01*
X214707454Y-158005616D02*
G75*
G03*
X212413133Y-159845615I-866J-2349331D01*
G01*
X210822278Y-153955615D02*
G75*
G03*
X208822278Y-155955615I5J-2000005D01*
G01*
D11*
X195747836Y-55030000D02*
X195532164Y-55030000D01*
X195747836Y-54310000D02*
X195532164Y-54310000D01*
D10*
X333356386Y-74380899D02*
X333356386Y-74850899D01*
X333356386Y-71300899D02*
X333356386Y-71530899D01*
X332856386Y-75350899D02*
X328291562Y-75350899D01*
X331806386Y-71300899D02*
X333356386Y-71300899D01*
X324406386Y-71300899D02*
X330306386Y-71300899D01*
X322406386Y-76950899D02*
X322406386Y-77190899D01*
X322406386Y-74100899D02*
X322406386Y-73300899D01*
X332856386Y-75350899D02*
G75*
G03*
X333356386Y-74850899I-1J500001D01*
G01*
X328291562Y-75350900D02*
G75*
G03*
X325997241Y-77190899I-866J-2349331D01*
G01*
X324406386Y-71300899D02*
G75*
G03*
X322406386Y-73300899I5J-2000005D01*
G01*
D11*
X200104836Y-63030000D02*
X199889164Y-63030000D01*
X200104836Y-62310000D02*
X199889164Y-62310000D01*
X215501000Y-62340086D02*
X215501000Y-62124414D01*
X216221000Y-62340086D02*
X216221000Y-62124414D01*
X200967836Y-67164250D02*
X200752164Y-67164250D01*
X200967836Y-66444250D02*
X200752164Y-66444250D01*
X223576359Y-66095000D02*
X223883641Y-66095000D01*
X223576359Y-66855000D02*
X223883641Y-66855000D01*
X213412000Y-81571182D02*
X213412000Y-81786854D01*
X212692000Y-81571182D02*
X212692000Y-81786854D01*
X226192000Y-61645000D02*
X226192000Y-61385000D01*
X226192000Y-56455000D02*
X227867000Y-56455000D01*
X226192000Y-56195000D02*
X226192000Y-56455000D01*
X223467000Y-61645000D02*
X226192000Y-61645000D01*
X223467000Y-61645000D02*
X220742000Y-61645000D01*
X223467000Y-56195000D02*
X226192000Y-56195000D01*
X223467000Y-56195000D02*
X220742000Y-56195000D01*
X220742000Y-61645000D02*
X220742000Y-61385000D01*
X220742000Y-56195000D02*
X220742000Y-56455000D01*
X208100000Y-78006891D02*
X208100000Y-77699609D01*
X208860000Y-78006891D02*
X208860000Y-77699609D01*
X200632551Y-72964565D02*
X200480048Y-73117068D01*
X200123434Y-72455448D02*
X199970931Y-72607951D01*
D10*
X326460392Y-48711687D02*
X326460392Y-49181687D01*
X326460392Y-45631687D02*
X326460392Y-45861687D01*
X325960392Y-49681687D02*
X321395568Y-49681687D01*
X324910392Y-45631687D02*
X326460392Y-45631687D01*
X317510392Y-45631687D02*
X323410392Y-45631687D01*
X315510392Y-51281687D02*
X315510392Y-51521687D01*
X315510392Y-48431687D02*
X315510392Y-47631687D01*
X325960392Y-49681687D02*
G75*
G03*
X326460392Y-49181687I-1J500001D01*
G01*
X321395568Y-49681688D02*
G75*
G03*
X319101247Y-51521687I-866J-2349331D01*
G01*
X317510392Y-45631687D02*
G75*
G03*
X315510392Y-47631687I5J-2000005D01*
G01*
%LPC*%
D14*
X253422967Y-92263373D03*
D15*
X248342967Y-92263373D03*
D14*
X243262967Y-92263373D03*
D16*
X252152967Y-94803373D03*
X245802967Y-97343373D03*
D17*
X303755000Y-152170000D03*
X278035000Y-107130000D03*
D14*
X235748565Y-117478960D03*
D15*
X230668565Y-117478960D03*
D14*
X225588565Y-117478960D03*
D16*
X234478565Y-120018960D03*
X228128565Y-122558960D03*
D17*
X190860000Y-161150000D03*
D14*
X242819837Y-142601357D03*
D15*
X237739837Y-142601357D03*
D14*
X232659837Y-142601357D03*
D16*
X241549837Y-145141357D03*
X235199837Y-147681357D03*
D18*
X216140000Y-37670000D03*
D14*
X269036859Y-48144517D03*
D15*
X263956859Y-48144517D03*
D14*
X258876859Y-48144517D03*
D16*
X267766859Y-50684517D03*
X261416859Y-53224517D03*
D14*
X304091667Y-69348545D03*
D15*
X299011667Y-69348545D03*
D14*
X293931667Y-69348545D03*
D16*
X302821667Y-71888545D03*
X296471667Y-74428545D03*
D14*
X216916182Y-133583438D03*
D15*
X211836182Y-133583438D03*
D14*
X206756182Y-133583438D03*
D16*
X215646182Y-136123438D03*
X209296182Y-138663438D03*
D14*
X275932853Y-73813729D03*
D15*
X270852853Y-73813729D03*
D14*
X265772853Y-73813729D03*
D16*
X274662853Y-76353729D03*
X268312853Y-78893729D03*
D14*
X297195673Y-43679333D03*
D15*
X292115673Y-43679333D03*
D14*
X287035673Y-43679333D03*
D16*
X295925673Y-46219333D03*
X289575673Y-48759333D03*
D14*
X260715123Y-121847547D03*
D15*
X255635123Y-121847547D03*
D14*
X250555123Y-121847547D03*
D16*
X259445123Y-124387547D03*
X253095123Y-126927547D03*
D14*
X219987454Y-160705835D03*
D15*
X214907454Y-160705835D03*
D14*
X209827454Y-160705835D03*
D16*
X218717454Y-163245835D03*
X212367454Y-165785835D03*
D19*
X221299999Y-69004999D03*
D20*
X221299999Y-66464999D03*
D17*
X303820000Y-55683383D03*
X190860000Y-42610000D03*
D14*
X246527232Y-66595127D03*
D15*
X241447232Y-66595127D03*
D14*
X236367232Y-66595127D03*
D16*
X245257232Y-69135127D03*
X238907232Y-71675127D03*
D14*
X333571562Y-78051119D03*
D15*
X328491562Y-78051119D03*
D14*
X323411562Y-78051119D03*
D16*
X332301562Y-80591119D03*
X325951562Y-83131119D03*
D14*
X326675568Y-52381907D03*
D15*
X321595568Y-52381907D03*
D14*
X316515568Y-52381907D03*
D16*
X325405568Y-54921907D03*
X319055568Y-57461907D03*
D18*
X198140000Y-37670000D03*
D14*
X216916182Y-133583438D03*
D15*
X211836182Y-133583438D03*
D14*
X206756182Y-133583438D03*
D21*
X208026182Y-131043438D03*
D22*
X204176182Y-131043438D03*
X218226182Y-128503438D03*
D21*
X214376182Y-128503438D03*
D23*
X203555250Y-64506018D03*
X203555250Y-63546018D03*
D14*
X246527232Y-66595127D03*
D15*
X241447232Y-66595127D03*
D14*
X236367232Y-66595127D03*
D21*
X237637232Y-64055127D03*
D22*
X233787232Y-64055127D03*
X247837232Y-61515127D03*
D21*
X243987232Y-61515127D03*
D23*
X209140000Y-62150000D03*
X209140000Y-61190000D03*
D14*
X260715123Y-121847547D03*
D15*
X255635123Y-121847547D03*
D14*
X250555123Y-121847547D03*
D21*
X251825123Y-119307547D03*
D22*
X247975123Y-119307547D03*
X262025123Y-116767547D03*
D21*
X258175123Y-116767547D03*
D24*
X201340000Y-65280250D03*
X200380000Y-65280250D03*
D25*
X204924000Y-77373250D03*
X204924000Y-78333250D03*
D26*
X190347000Y-65795000D03*
X190347000Y-64145000D03*
D27*
X216160000Y-67670000D03*
X217120000Y-67670000D03*
D28*
X233355113Y-78008514D03*
X232854986Y-78008514D03*
X232355113Y-78008514D03*
X231854986Y-78008514D03*
X231355113Y-78008514D03*
X230854986Y-78008514D03*
X230355113Y-78008514D03*
X229854986Y-78008514D03*
X229355113Y-78008514D03*
X228854986Y-78008514D03*
X228355113Y-78008514D03*
X227854986Y-78008514D03*
D29*
X225920010Y-74928504D03*
X235290089Y-74928504D03*
D14*
X304091667Y-69348545D03*
D15*
X299011667Y-69348545D03*
D14*
X293931667Y-69348545D03*
D21*
X295201667Y-66808545D03*
D22*
X291351667Y-66808545D03*
X305401667Y-64268545D03*
D21*
X301551667Y-64268545D03*
D23*
X204571250Y-64506018D03*
X204571250Y-63546018D03*
D25*
X206448000Y-77373250D03*
X206448000Y-78333250D03*
D14*
X297195673Y-43679333D03*
D15*
X292115673Y-43679333D03*
D14*
X287035673Y-43679333D03*
D21*
X288305673Y-41139333D03*
D22*
X284455673Y-41139333D03*
X298505673Y-38599333D03*
D21*
X294655673Y-38599333D03*
D23*
X218300000Y-56875000D03*
X218300000Y-55915000D03*
D30*
X188492000Y-68720000D03*
X190367000Y-68720000D03*
D27*
X199517000Y-61470000D03*
X200477000Y-61470000D03*
D23*
X206349250Y-81905018D03*
X206349250Y-80945018D03*
D31*
X210774500Y-67665000D03*
X210774500Y-68065000D03*
X210774500Y-68465000D03*
X210774500Y-68865000D03*
X210774500Y-69265000D03*
X210774500Y-69665000D03*
X210774500Y-70065000D03*
X210774500Y-70465000D03*
X210774500Y-70865000D03*
X210774500Y-71265000D03*
X210774500Y-71665000D03*
X210774500Y-72065000D03*
X210774500Y-72465000D03*
X210774500Y-72865000D03*
D32*
X209937000Y-73702500D03*
X209537000Y-73702500D03*
X209137000Y-73702500D03*
X208737000Y-73702500D03*
X208337000Y-73702500D03*
X207937000Y-73702500D03*
X207537000Y-73702500D03*
X207137000Y-73702500D03*
X206737000Y-73702500D03*
X206337000Y-73702500D03*
X205937000Y-73702500D03*
X205537000Y-73702500D03*
X205137000Y-73702500D03*
X204737000Y-73702500D03*
D31*
X203899500Y-72865000D03*
X203899500Y-72465000D03*
X203899500Y-72065000D03*
X203899500Y-71665000D03*
X203899500Y-71265000D03*
X203899500Y-70865000D03*
X203899500Y-70465000D03*
X203899500Y-70065000D03*
X203899500Y-69665000D03*
X203899500Y-69265000D03*
X203899500Y-68865000D03*
X203899500Y-68465000D03*
X203899500Y-68065000D03*
X203899500Y-67665000D03*
D32*
X204737000Y-66827500D03*
X205137000Y-66827500D03*
X205537000Y-66827500D03*
X205937000Y-66827500D03*
X206337000Y-66827500D03*
X206737000Y-66827500D03*
X207137000Y-66827500D03*
X207537000Y-66827500D03*
X207937000Y-66827500D03*
X208337000Y-66827500D03*
X208737000Y-66827500D03*
X209137000Y-66827500D03*
X209537000Y-66827500D03*
X209937000Y-66827500D03*
D33*
X207337000Y-70265000D03*
D34*
X207190000Y-59980000D03*
X205540000Y-59980000D03*
D35*
X208522999Y-80559249D03*
X210722999Y-80559249D03*
X210722999Y-82259249D03*
X208522999Y-82259249D03*
D14*
X275932853Y-73813729D03*
D15*
X270852853Y-73813729D03*
D14*
X265772853Y-73813729D03*
D21*
X267042853Y-71273729D03*
D22*
X263192853Y-71273729D03*
X277242853Y-68733729D03*
D21*
X273392853Y-68733729D03*
D34*
X207900000Y-61480000D03*
X206250000Y-61480000D03*
D36*
X197790000Y-60670000D03*
X194490000Y-60670000D03*
D37*
X196090000Y-58045000D03*
X194190000Y-58045000D03*
X195140000Y-56170000D03*
D14*
X235748565Y-117478960D03*
D15*
X230668565Y-117478960D03*
D14*
X225588565Y-117478960D03*
D21*
X226858565Y-114938960D03*
D22*
X223008565Y-114938960D03*
X237058565Y-112398960D03*
D21*
X233208565Y-112398960D03*
D38*
X192567000Y-68730000D03*
X191547000Y-68730000D03*
D28*
X210087113Y-57805004D03*
X209586986Y-57805004D03*
X209087113Y-57805004D03*
X208586986Y-57805004D03*
X208087113Y-57805004D03*
X207586986Y-57805004D03*
X207087113Y-57805004D03*
X206586986Y-57805004D03*
X206087113Y-57805004D03*
X205586986Y-57805004D03*
X205087113Y-57805004D03*
X204586986Y-57805004D03*
D29*
X202652010Y-54724994D03*
X212022089Y-54724994D03*
D39*
X191887000Y-64150000D03*
X191887000Y-65800000D03*
D14*
X269036859Y-48144517D03*
D15*
X263956859Y-48144517D03*
D14*
X258876859Y-48144517D03*
D21*
X260146859Y-45604517D03*
D22*
X256296859Y-45604517D03*
X270346859Y-43064517D03*
D21*
X266496859Y-43064517D03*
D14*
X242819837Y-142601357D03*
D15*
X237739837Y-142601357D03*
D14*
X232659837Y-142601357D03*
D21*
X233929837Y-140061357D03*
D22*
X230079837Y-140061357D03*
X244129837Y-137521357D03*
D21*
X240279837Y-137521357D03*
D14*
X253422967Y-92263373D03*
D15*
X248342967Y-92263373D03*
D14*
X243262967Y-92263373D03*
D21*
X244532967Y-89723373D03*
D22*
X240682967Y-89723373D03*
X254732967Y-87183373D03*
D21*
X250882967Y-87183373D03*
D14*
X219987454Y-160705835D03*
D15*
X214907454Y-160705835D03*
D14*
X209827454Y-160705835D03*
D21*
X211097454Y-158165835D03*
D22*
X207247454Y-158165835D03*
X221297454Y-155625835D03*
D21*
X217447454Y-155625835D03*
D24*
X196120000Y-54670000D03*
X195160000Y-54670000D03*
D14*
X333571562Y-78051119D03*
D15*
X328491562Y-78051119D03*
D14*
X323411562Y-78051119D03*
D21*
X324681562Y-75511119D03*
D22*
X320831562Y-75511119D03*
X334881562Y-72971119D03*
D21*
X331031562Y-72971119D03*
D24*
X200477000Y-62670000D03*
X199517000Y-62670000D03*
D23*
X215861000Y-62712250D03*
X215861000Y-61752250D03*
D24*
X201340000Y-66804250D03*
X200380000Y-66804250D03*
D40*
X223220000Y-66475000D03*
X224240000Y-66475000D03*
D25*
X213052000Y-81199018D03*
X213052000Y-82159018D03*
D41*
X227067000Y-57015000D03*
X227067000Y-58285000D03*
X227067000Y-59555000D03*
X227067000Y-60825000D03*
X219867000Y-60825000D03*
X219867000Y-59555000D03*
X219867000Y-58285000D03*
X219867000Y-57015000D03*
D42*
X208480000Y-78363250D03*
X208480000Y-77343250D03*
D43*
X200641152Y-72446847D03*
X199962330Y-73125669D03*
D14*
X326675568Y-52381907D03*
D15*
X321595568Y-52381907D03*
D14*
X316515568Y-52381907D03*
D21*
X317785568Y-49841907D03*
D22*
X313935568Y-49841907D03*
X327985568Y-47301907D03*
D21*
X324135568Y-47301907D03*
M02*
