<?xml version="1.0" standalone="no"?>
 <!DOCTYPE svg PUBLIC "-//W3C//DTD SVG 1.1//EN" 
 "http://www.w3.org/Graphics/SVG/1.1/DTD/svg11.dtd"> 
<svg
  xmlns:svg="http://www.w3.org/2000/svg"
  xmlns="http://www.w3.org/2000/svg"
  xmlns:xlink="http://www.w3.org/1999/xlink"
  version="1.1"
  width="419.9890mm" height="297.0022mm" viewBox="0.0000 0.0000 419.9890 297.0022">
<title>SVG Image created as HybridBoxNew-F_Courtyard.svg date 2025/09/22 11:12:14 </title>
  <desc>Image generated by PCBNEW </desc>
<g style="fill:#000000; fill-opacity:1.0000;stroke:#000000; stroke-opacity:1.0000;
stroke-linecap:round; stroke-linejoin:round;"
 transform="translate(0 0) scale(1 1)">
</g>
<g style="fill:#000000; fill-opacity:0.0; 
stroke:#000000; stroke-width:0.0000; stroke-opacity:1; 
stroke-linecap:round; stroke-linejoin:round;">
</g>
<g style="fill:#000000; fill-opacity:0.0; 
stroke:#000000; stroke-width:0.0212; stroke-opacity:1; 
stroke-linecap:round; stroke-linejoin:round;">
</g>
<g style="fill:#000000; fill-opacity:0.0; 
stroke:#000000; stroke-width:0.1500; stroke-opacity:1; 
stroke-linecap:round; stroke-linejoin:round;">
<path d="M299.9890 253.0022
L407.9890 253.0022
L407.9890 285.0022
L299.9890 285.0022
L299.9890 253.0022
" />
</g>
<g style="fill:#000000; fill-opacity:0.0; 
stroke:#000000; stroke-width:0.0212; stroke-opacity:1; 
stroke-linecap:round; stroke-linejoin:round;">
</g>
<g style="fill:#000000; fill-opacity:0.0; 
stroke:#000000; stroke-width:0.1500; stroke-opacity:1; 
stroke-linecap:round; stroke-linejoin:round;">
<path d="M10.0000 10.0000
L409.9890 10.0000
L409.9890 287.0022
L10.0000 287.0022
L10.0000 10.0000
" />
</g>
<g style="fill:#000000; fill-opacity:0.0; 
stroke:#000000; stroke-width:0.0212; stroke-opacity:1; 
stroke-linecap:round; stroke-linejoin:round;">
</g>
<g style="fill:#000000; fill-opacity:0.0; 
stroke:#000000; stroke-width:0.1500; stroke-opacity:1; 
stroke-linecap:round; stroke-linejoin:round;">
<path d="M12.0000 12.0000
L407.9890 12.0000
L407.9890 285.0022
L12.0000 285.0022
L12.0000 12.0000
" />
</g>
<g style="fill:#000000; fill-opacity:0.0; 
stroke:#000000; stroke-width:0.0212; stroke-opacity:1; 
stroke-linecap:round; stroke-linejoin:round;">
</g>
<g style="fill:#000000; fill-opacity:0.0; 
stroke:#000000; stroke-width:0.1500; stroke-opacity:1; 
stroke-linecap:round; stroke-linejoin:round;">
<path d="M60.0000 12.0000
L60.0000 10.0000
" />
</g>
<g style="fill:#000000; fill-opacity:0.0; 
stroke:#000000; stroke-width:0.0212; stroke-opacity:1; 
stroke-linecap:round; stroke-linejoin:round;">
</g>
<g style="fill:#000000; fill-opacity:0.0; 
stroke:#000000; stroke-width:0.1500; stroke-opacity:1; 
stroke-linecap:round; stroke-linejoin:round;">
<path d="M110.0000 12.0000
L110.0000 10.0000
" />
</g>
<g style="fill:#000000; fill-opacity:0.0; 
stroke:#000000; stroke-width:0.0212; stroke-opacity:1; 
stroke-linecap:round; stroke-linejoin:round;">
</g>
<g style="fill:#000000; fill-opacity:0.0; 
stroke:#000000; stroke-width:0.1500; stroke-opacity:1; 
stroke-linecap:round; stroke-linejoin:round;">
<path d="M160.0000 12.0000
L160.0000 10.0000
" />
</g>
<g style="fill:#000000; fill-opacity:0.0; 
stroke:#000000; stroke-width:0.0212; stroke-opacity:1; 
stroke-linecap:round; stroke-linejoin:round;">
</g>
<g style="fill:#000000; fill-opacity:0.0; 
stroke:#000000; stroke-width:0.1500; stroke-opacity:1; 
stroke-linecap:round; stroke-linejoin:round;">
<path d="M210.0000 12.0000
L210.0000 10.0000
" />
</g>
<g style="fill:#000000; fill-opacity:0.0; 
stroke:#000000; stroke-width:0.0212; stroke-opacity:1; 
stroke-linecap:round; stroke-linejoin:round;">
</g>
<g style="fill:#000000; fill-opacity:0.0; 
stroke:#000000; stroke-width:0.1500; stroke-opacity:1; 
stroke-linecap:round; stroke-linejoin:round;">
<path d="M260.0000 12.0000
L260.0000 10.0000
" />
</g>
<g style="fill:#000000; fill-opacity:0.0; 
stroke:#000000; stroke-width:0.0212; stroke-opacity:1; 
stroke-linecap:round; stroke-linejoin:round;">
</g>
<g style="fill:#000000; fill-opacity:0.0; 
stroke:#000000; stroke-width:0.1500; stroke-opacity:1; 
stroke-linecap:round; stroke-linejoin:round;">
<path d="M310.0000 12.0000
L310.0000 10.0000
" />
</g>
<g style="fill:#000000; fill-opacity:0.0; 
stroke:#000000; stroke-width:0.0212; stroke-opacity:1; 
stroke-linecap:round; stroke-linejoin:round;">
</g>
<g style="fill:#000000; fill-opacity:0.0; 
stroke:#000000; stroke-width:0.1500; stroke-opacity:1; 
stroke-linecap:round; stroke-linejoin:round;">
<path d="M360.0000 12.0000
L360.0000 10.0000
" />
</g>
<g style="fill:#000000; fill-opacity:0.0; 
stroke:#000000; stroke-width:0.0212; stroke-opacity:1; 
stroke-linecap:round; stroke-linejoin:round;">
</g>
<g style="fill:#000000; fill-opacity:0.0; 
stroke:#000000; stroke-width:0.1500; stroke-opacity:1; 
stroke-linecap:round; stroke-linejoin:round;">
<text x="35.0000" y="11.6500"
textLength="1.3531" font-size="1.7333" lengthAdjust="spacingAndGlyphs"
text-anchor="start" opacity="0">1</text>
<g class="stroked-text"><desc>1</desc>
<path d="M35.9905 11.4776
L35.2476 11.4776
" />
<path d="M35.6190 11.4776
L35.6190 10.1776
" />
<path d="M35.6190 10.1776
L35.4952 10.3633
" />
<path d="M35.4952 10.3633
L35.3714 10.4871
" />
<path d="M35.3714 10.4871
L35.2476 10.5490
" />
</g></g>
<g style="fill:#000000; fill-opacity:0.0; 
stroke:#000000; stroke-width:0.0212; stroke-opacity:1; 
stroke-linecap:round; stroke-linejoin:round;">
</g>
<g style="fill:#000000; fill-opacity:0.0; 
stroke:#000000; stroke-width:0.1500; stroke-opacity:1; 
stroke-linecap:round; stroke-linejoin:round;">
<text x="85.0000" y="11.6500"
textLength="1.3531" font-size="1.7333" lengthAdjust="spacingAndGlyphs"
text-anchor="start" opacity="0">2</text>
<g class="stroked-text"><desc>2</desc>
<path d="M85.2476 10.3014
L85.3095 10.2395
" />
<path d="M85.3095 10.2395
L85.4333 10.1776
" />
<path d="M85.4333 10.1776
L85.7429 10.1776
" />
<path d="M85.7429 10.1776
L85.8667 10.2395
" />
<path d="M85.8667 10.2395
L85.9286 10.3014
" />
<path d="M85.9286 10.3014
L85.9905 10.4252
" />
<path d="M85.9905 10.4252
L85.9905 10.5490
" />
<path d="M85.9905 10.5490
L85.9286 10.7347
" />
<path d="M85.9286 10.7347
L85.1857 11.4776
" />
<path d="M85.1857 11.4776
L85.9905 11.4776
" />
</g></g>
<g style="fill:#000000; fill-opacity:0.0; 
stroke:#000000; stroke-width:0.0212; stroke-opacity:1; 
stroke-linecap:round; stroke-linejoin:round;">
</g>
<g style="fill:#000000; fill-opacity:0.0; 
stroke:#000000; stroke-width:0.1500; stroke-opacity:1; 
stroke-linecap:round; stroke-linejoin:round;">
<text x="135.0000" y="11.6500"
textLength="1.3531" font-size="1.7333" lengthAdjust="spacingAndGlyphs"
text-anchor="start" opacity="0">3</text>
<g class="stroked-text"><desc>3</desc>
<path d="M135.1857 10.1776
L135.9905 10.1776
" />
<path d="M135.9905 10.1776
L135.5571 10.6728
" />
<path d="M135.5571 10.6728
L135.7429 10.6728
" />
<path d="M135.7429 10.6728
L135.8667 10.7347
" />
<path d="M135.8667 10.7347
L135.9286 10.7966
" />
<path d="M135.9286 10.7966
L135.9905 10.9205
" />
<path d="M135.9905 10.9205
L135.9905 11.2300
" />
<path d="M135.9905 11.2300
L135.9286 11.3538
" />
<path d="M135.9286 11.3538
L135.8667 11.4157
" />
<path d="M135.8667 11.4157
L135.7429 11.4776
" />
<path d="M135.7429 11.4776
L135.3714 11.4776
" />
<path d="M135.3714 11.4776
L135.2476 11.4157
" />
<path d="M135.2476 11.4157
L135.1857 11.3538
" />
</g></g>
<g style="fill:#000000; fill-opacity:0.0; 
stroke:#000000; stroke-width:0.0212; stroke-opacity:1; 
stroke-linecap:round; stroke-linejoin:round;">
</g>
<g style="fill:#000000; fill-opacity:0.0; 
stroke:#000000; stroke-width:0.1500; stroke-opacity:1; 
stroke-linecap:round; stroke-linejoin:round;">
<text x="185.0000" y="11.6500"
textLength="1.3531" font-size="1.7333" lengthAdjust="spacingAndGlyphs"
text-anchor="start" opacity="0">4</text>
<g class="stroked-text"><desc>4</desc>
<path d="M185.8667 10.6109
L185.8667 11.4776
" />
<path d="M185.5571 10.1157
L185.2476 11.0443
" />
<path d="M185.2476 11.0443
L186.0524 11.0443
" />
</g></g>
<g style="fill:#000000; fill-opacity:0.0; 
stroke:#000000; stroke-width:0.0212; stroke-opacity:1; 
stroke-linecap:round; stroke-linejoin:round;">
</g>
<g style="fill:#000000; fill-opacity:0.0; 
stroke:#000000; stroke-width:0.1500; stroke-opacity:1; 
stroke-linecap:round; stroke-linejoin:round;">
<text x="235.0000" y="11.6500"
textLength="1.3531" font-size="1.7333" lengthAdjust="spacingAndGlyphs"
text-anchor="start" opacity="0">5</text>
<g class="stroked-text"><desc>5</desc>
<path d="M235.9286 10.1776
L235.3095 10.1776
" />
<path d="M235.3095 10.1776
L235.2476 10.7966
" />
<path d="M235.2476 10.7966
L235.3095 10.7347
" />
<path d="M235.3095 10.7347
L235.4333 10.6728
" />
<path d="M235.4333 10.6728
L235.7429 10.6728
" />
<path d="M235.7429 10.6728
L235.8667 10.7347
" />
<path d="M235.8667 10.7347
L235.9286 10.7966
" />
<path d="M235.9286 10.7966
L235.9905 10.9205
" />
<path d="M235.9905 10.9205
L235.9905 11.2300
" />
<path d="M235.9905 11.2300
L235.9286 11.3538
" />
<path d="M235.9286 11.3538
L235.8667 11.4157
" />
<path d="M235.8667 11.4157
L235.7429 11.4776
" />
<path d="M235.7429 11.4776
L235.4333 11.4776
" />
<path d="M235.4333 11.4776
L235.3095 11.4157
" />
<path d="M235.3095 11.4157
L235.2476 11.3538
" />
</g></g>
<g style="fill:#000000; fill-opacity:0.0; 
stroke:#000000; stroke-width:0.0212; stroke-opacity:1; 
stroke-linecap:round; stroke-linejoin:round;">
</g>
<g style="fill:#000000; fill-opacity:0.0; 
stroke:#000000; stroke-width:0.1500; stroke-opacity:1; 
stroke-linecap:round; stroke-linejoin:round;">
<text x="285.0000" y="11.6500"
textLength="1.3531" font-size="1.7333" lengthAdjust="spacingAndGlyphs"
text-anchor="start" opacity="0">6</text>
<g class="stroked-text"><desc>6</desc>
<path d="M285.8667 10.1776
L285.6190 10.1776
" />
<path d="M285.6190 10.1776
L285.4952 10.2395
" />
<path d="M285.4952 10.2395
L285.4333 10.3014
" />
<path d="M285.4333 10.3014
L285.3095 10.4871
" />
<path d="M285.3095 10.4871
L285.2476 10.7347
" />
<path d="M285.2476 10.7347
L285.2476 11.2300
" />
<path d="M285.2476 11.2300
L285.3095 11.3538
" />
<path d="M285.3095 11.3538
L285.3714 11.4157
" />
<path d="M285.3714 11.4157
L285.4952 11.4776
" />
<path d="M285.4952 11.4776
L285.7429 11.4776
" />
<path d="M285.7429 11.4776
L285.8667 11.4157
" />
<path d="M285.8667 11.4157
L285.9286 11.3538
" />
<path d="M285.9286 11.3538
L285.9905 11.2300
" />
<path d="M285.9905 11.2300
L285.9905 10.9205
" />
<path d="M285.9905 10.9205
L285.9286 10.7966
" />
<path d="M285.9286 10.7966
L285.8667 10.7347
" />
<path d="M285.8667 10.7347
L285.7429 10.6728
" />
<path d="M285.7429 10.6728
L285.4952 10.6728
" />
<path d="M285.4952 10.6728
L285.3714 10.7347
" />
<path d="M285.3714 10.7347
L285.3095 10.7966
" />
<path d="M285.3095 10.7966
L285.2476 10.9205
" />
</g></g>
<g style="fill:#000000; fill-opacity:0.0; 
stroke:#000000; stroke-width:0.0212; stroke-opacity:1; 
stroke-linecap:round; stroke-linejoin:round;">
</g>
<g style="fill:#000000; fill-opacity:0.0; 
stroke:#000000; stroke-width:0.1500; stroke-opacity:1; 
stroke-linecap:round; stroke-linejoin:round;">
<text x="335.0000" y="11.6500"
textLength="1.3531" font-size="1.7333" lengthAdjust="spacingAndGlyphs"
text-anchor="start" opacity="0">7</text>
<g class="stroked-text"><desc>7</desc>
<path d="M335.1857 10.1776
L336.0524 10.1776
" />
<path d="M336.0524 10.1776
L335.4952 11.4776
" />
</g></g>
<g style="fill:#000000; fill-opacity:0.0; 
stroke:#000000; stroke-width:0.0212; stroke-opacity:1; 
stroke-linecap:round; stroke-linejoin:round;">
</g>
<g style="fill:#000000; fill-opacity:0.0; 
stroke:#000000; stroke-width:0.1500; stroke-opacity:1; 
stroke-linecap:round; stroke-linejoin:round;">
<text x="385.0000" y="11.6500"
textLength="1.3531" font-size="1.7333" lengthAdjust="spacingAndGlyphs"
text-anchor="start" opacity="0">8</text>
<g class="stroked-text"><desc>8</desc>
<path d="M385.4952 10.7347
L385.3714 10.6728
" />
<path d="M385.3714 10.6728
L385.3095 10.6109
" />
<path d="M385.3095 10.6109
L385.2476 10.4871
" />
<path d="M385.2476 10.4871
L385.2476 10.4252
" />
<path d="M385.2476 10.4252
L385.3095 10.3014
" />
<path d="M385.3095 10.3014
L385.3714 10.2395
" />
<path d="M385.3714 10.2395
L385.4952 10.1776
" />
<path d="M385.4952 10.1776
L385.7429 10.1776
" />
<path d="M385.7429 10.1776
L385.8667 10.2395
" />
<path d="M385.8667 10.2395
L385.9286 10.3014
" />
<path d="M385.9286 10.3014
L385.9905 10.4252
" />
<path d="M385.9905 10.4252
L385.9905 10.4871
" />
<path d="M385.9905 10.4871
L385.9286 10.6109
" />
<path d="M385.9286 10.6109
L385.8667 10.6728
" />
<path d="M385.8667 10.6728
L385.7429 10.7347
" />
<path d="M385.7429 10.7347
L385.4952 10.7347
" />
<path d="M385.4952 10.7347
L385.3714 10.7966
" />
<path d="M385.3714 10.7966
L385.3095 10.8585
" />
<path d="M385.3095 10.8585
L385.2476 10.9824
" />
<path d="M385.2476 10.9824
L385.2476 11.2300
" />
<path d="M385.2476 11.2300
L385.3095 11.3538
" />
<path d="M385.3095 11.3538
L385.3714 11.4157
" />
<path d="M385.3714 11.4157
L385.4952 11.4776
" />
<path d="M385.4952 11.4776
L385.7429 11.4776
" />
<path d="M385.7429 11.4776
L385.8667 11.4157
" />
<path d="M385.8667 11.4157
L385.9286 11.3538
" />
<path d="M385.9286 11.3538
L385.9905 11.2300
" />
<path d="M385.9905 11.2300
L385.9905 10.9824
" />
<path d="M385.9905 10.9824
L385.9286 10.8585
" />
<path d="M385.9286 10.8585
L385.8667 10.7966
" />
<path d="M385.8667 10.7966
L385.7429 10.7347
" />
</g></g>
<g style="fill:#000000; fill-opacity:0.0; 
stroke:#000000; stroke-width:0.0212; stroke-opacity:1; 
stroke-linecap:round; stroke-linejoin:round;">
</g>
<g style="fill:#000000; fill-opacity:0.0; 
stroke:#000000; stroke-width:0.1500; stroke-opacity:1; 
stroke-linecap:round; stroke-linejoin:round;">
<path d="M60.0000 285.0022
L60.0000 287.0022
" />
</g>
<g style="fill:#000000; fill-opacity:0.0; 
stroke:#000000; stroke-width:0.0212; stroke-opacity:1; 
stroke-linecap:round; stroke-linejoin:round;">
</g>
<g style="fill:#000000; fill-opacity:0.0; 
stroke:#000000; stroke-width:0.1500; stroke-opacity:1; 
stroke-linecap:round; stroke-linejoin:round;">
<path d="M110.0000 285.0022
L110.0000 287.0022
" />
</g>
<g style="fill:#000000; fill-opacity:0.0; 
stroke:#000000; stroke-width:0.0212; stroke-opacity:1; 
stroke-linecap:round; stroke-linejoin:round;">
</g>
<g style="fill:#000000; fill-opacity:0.0; 
stroke:#000000; stroke-width:0.1500; stroke-opacity:1; 
stroke-linecap:round; stroke-linejoin:round;">
<path d="M160.0000 285.0022
L160.0000 287.0022
" />
</g>
<g style="fill:#000000; fill-opacity:0.0; 
stroke:#000000; stroke-width:0.0212; stroke-opacity:1; 
stroke-linecap:round; stroke-linejoin:round;">
</g>
<g style="fill:#000000; fill-opacity:0.0; 
stroke:#000000; stroke-width:0.1500; stroke-opacity:1; 
stroke-linecap:round; stroke-linejoin:round;">
<path d="M210.0000 285.0022
L210.0000 287.0022
" />
</g>
<g style="fill:#000000; fill-opacity:0.0; 
stroke:#000000; stroke-width:0.0212; stroke-opacity:1; 
stroke-linecap:round; stroke-linejoin:round;">
</g>
<g style="fill:#000000; fill-opacity:0.0; 
stroke:#000000; stroke-width:0.1500; stroke-opacity:1; 
stroke-linecap:round; stroke-linejoin:round;">
<path d="M260.0000 285.0022
L260.0000 287.0022
" />
</g>
<g style="fill:#000000; fill-opacity:0.0; 
stroke:#000000; stroke-width:0.0212; stroke-opacity:1; 
stroke-linecap:round; stroke-linejoin:round;">
</g>
<g style="fill:#000000; fill-opacity:0.0; 
stroke:#000000; stroke-width:0.1500; stroke-opacity:1; 
stroke-linecap:round; stroke-linejoin:round;">
<path d="M310.0000 285.0022
L310.0000 287.0022
" />
</g>
<g style="fill:#000000; fill-opacity:0.0; 
stroke:#000000; stroke-width:0.0212; stroke-opacity:1; 
stroke-linecap:round; stroke-linejoin:round;">
</g>
<g style="fill:#000000; fill-opacity:0.0; 
stroke:#000000; stroke-width:0.1500; stroke-opacity:1; 
stroke-linecap:round; stroke-linejoin:round;">
<path d="M360.0000 285.0022
L360.0000 287.0022
" />
</g>
<g style="fill:#000000; fill-opacity:0.0; 
stroke:#000000; stroke-width:0.0212; stroke-opacity:1; 
stroke-linecap:round; stroke-linejoin:round;">
</g>
<g style="fill:#000000; fill-opacity:0.0; 
stroke:#000000; stroke-width:0.1500; stroke-opacity:1; 
stroke-linecap:round; stroke-linejoin:round;">
<text x="35.0000" y="286.6522"
textLength="1.3531" font-size="1.7333" lengthAdjust="spacingAndGlyphs"
text-anchor="start" opacity="0">1</text>
<g class="stroked-text"><desc>1</desc>
<path d="M35.9905 286.4798
L35.2476 286.4798
" />
<path d="M35.6190 286.4798
L35.6190 285.1798
" />
<path d="M35.6190 285.1798
L35.4952 285.3655
" />
<path d="M35.4952 285.3655
L35.3714 285.4893
" />
<path d="M35.3714 285.4893
L35.2476 285.5512
" />
</g></g>
<g style="fill:#000000; fill-opacity:0.0; 
stroke:#000000; stroke-width:0.0212; stroke-opacity:1; 
stroke-linecap:round; stroke-linejoin:round;">
</g>
<g style="fill:#000000; fill-opacity:0.0; 
stroke:#000000; stroke-width:0.1500; stroke-opacity:1; 
stroke-linecap:round; stroke-linejoin:round;">
<text x="85.0000" y="286.6522"
textLength="1.3531" font-size="1.7333" lengthAdjust="spacingAndGlyphs"
text-anchor="start" opacity="0">2</text>
<g class="stroked-text"><desc>2</desc>
<path d="M85.2476 285.3036
L85.3095 285.2417
" />
<path d="M85.3095 285.2417
L85.4333 285.1798
" />
<path d="M85.4333 285.1798
L85.7429 285.1798
" />
<path d="M85.7429 285.1798
L85.8667 285.2417
" />
<path d="M85.8667 285.2417
L85.9286 285.3036
" />
<path d="M85.9286 285.3036
L85.9905 285.4274
" />
<path d="M85.9905 285.4274
L85.9905 285.5512
" />
<path d="M85.9905 285.5512
L85.9286 285.7369
" />
<path d="M85.9286 285.7369
L85.1857 286.4798
" />
<path d="M85.1857 286.4798
L85.9905 286.4798
" />
</g></g>
<g style="fill:#000000; fill-opacity:0.0; 
stroke:#000000; stroke-width:0.0212; stroke-opacity:1; 
stroke-linecap:round; stroke-linejoin:round;">
</g>
<g style="fill:#000000; fill-opacity:0.0; 
stroke:#000000; stroke-width:0.1500; stroke-opacity:1; 
stroke-linecap:round; stroke-linejoin:round;">
<text x="135.0000" y="286.6522"
textLength="1.3531" font-size="1.7333" lengthAdjust="spacingAndGlyphs"
text-anchor="start" opacity="0">3</text>
<g class="stroked-text"><desc>3</desc>
<path d="M135.1857 285.1798
L135.9905 285.1798
" />
<path d="M135.9905 285.1798
L135.5571 285.6750
" />
<path d="M135.5571 285.6750
L135.7429 285.6750
" />
<path d="M135.7429 285.6750
L135.8667 285.7369
" />
<path d="M135.8667 285.7369
L135.9286 285.7988
" />
<path d="M135.9286 285.7988
L135.9905 285.9227
" />
<path d="M135.9905 285.9227
L135.9905 286.2322
" />
<path d="M135.9905 286.2322
L135.9286 286.3560
" />
<path d="M135.9286 286.3560
L135.8667 286.4179
" />
<path d="M135.8667 286.4179
L135.7429 286.4798
" />
<path d="M135.7429 286.4798
L135.3714 286.4798
" />
<path d="M135.3714 286.4798
L135.2476 286.4179
" />
<path d="M135.2476 286.4179
L135.1857 286.3560
" />
</g></g>
<g style="fill:#000000; fill-opacity:0.0; 
stroke:#000000; stroke-width:0.0212; stroke-opacity:1; 
stroke-linecap:round; stroke-linejoin:round;">
</g>
<g style="fill:#000000; fill-opacity:0.0; 
stroke:#000000; stroke-width:0.1500; stroke-opacity:1; 
stroke-linecap:round; stroke-linejoin:round;">
<text x="185.0000" y="286.6522"
textLength="1.3531" font-size="1.7333" lengthAdjust="spacingAndGlyphs"
text-anchor="start" opacity="0">4</text>
<g class="stroked-text"><desc>4</desc>
<path d="M185.8667 285.6131
L185.8667 286.4798
" />
<path d="M185.5571 285.1179
L185.2476 286.0465
" />
<path d="M185.2476 286.0465
L186.0524 286.0465
" />
</g></g>
<g style="fill:#000000; fill-opacity:0.0; 
stroke:#000000; stroke-width:0.0212; stroke-opacity:1; 
stroke-linecap:round; stroke-linejoin:round;">
</g>
<g style="fill:#000000; fill-opacity:0.0; 
stroke:#000000; stroke-width:0.1500; stroke-opacity:1; 
stroke-linecap:round; stroke-linejoin:round;">
<text x="235.0000" y="286.6522"
textLength="1.3531" font-size="1.7333" lengthAdjust="spacingAndGlyphs"
text-anchor="start" opacity="0">5</text>
<g class="stroked-text"><desc>5</desc>
<path d="M235.9286 285.1798
L235.3095 285.1798
" />
<path d="M235.3095 285.1798
L235.2476 285.7988
" />
<path d="M235.2476 285.7988
L235.3095 285.7369
" />
<path d="M235.3095 285.7369
L235.4333 285.6750
" />
<path d="M235.4333 285.6750
L235.7429 285.6750
" />
<path d="M235.7429 285.6750
L235.8667 285.7369
" />
<path d="M235.8667 285.7369
L235.9286 285.7988
" />
<path d="M235.9286 285.7988
L235.9905 285.9227
" />
<path d="M235.9905 285.9227
L235.9905 286.2322
" />
<path d="M235.9905 286.2322
L235.9286 286.3560
" />
<path d="M235.9286 286.3560
L235.8667 286.4179
" />
<path d="M235.8667 286.4179
L235.7429 286.4798
" />
<path d="M235.7429 286.4798
L235.4333 286.4798
" />
<path d="M235.4333 286.4798
L235.3095 286.4179
" />
<path d="M235.3095 286.4179
L235.2476 286.3560
" />
</g></g>
<g style="fill:#000000; fill-opacity:0.0; 
stroke:#000000; stroke-width:0.0212; stroke-opacity:1; 
stroke-linecap:round; stroke-linejoin:round;">
</g>
<g style="fill:#000000; fill-opacity:0.0; 
stroke:#000000; stroke-width:0.1500; stroke-opacity:1; 
stroke-linecap:round; stroke-linejoin:round;">
<text x="285.0000" y="286.6522"
textLength="1.3531" font-size="1.7333" lengthAdjust="spacingAndGlyphs"
text-anchor="start" opacity="0">6</text>
<g class="stroked-text"><desc>6</desc>
<path d="M285.8667 285.1798
L285.6190 285.1798
" />
<path d="M285.6190 285.1798
L285.4952 285.2417
" />
<path d="M285.4952 285.2417
L285.4333 285.3036
" />
<path d="M285.4333 285.3036
L285.3095 285.4893
" />
<path d="M285.3095 285.4893
L285.2476 285.7369
" />
<path d="M285.2476 285.7369
L285.2476 286.2322
" />
<path d="M285.2476 286.2322
L285.3095 286.3560
" />
<path d="M285.3095 286.3560
L285.3714 286.4179
" />
<path d="M285.3714 286.4179
L285.4952 286.4798
" />
<path d="M285.4952 286.4798
L285.7429 286.4798
" />
<path d="M285.7429 286.4798
L285.8667 286.4179
" />
<path d="M285.8667 286.4179
L285.9286 286.3560
" />
<path d="M285.9286 286.3560
L285.9905 286.2322
" />
<path d="M285.9905 286.2322
L285.9905 285.9227
" />
<path d="M285.9905 285.9227
L285.9286 285.7988
" />
<path d="M285.9286 285.7988
L285.8667 285.7369
" />
<path d="M285.8667 285.7369
L285.7429 285.6750
" />
<path d="M285.7429 285.6750
L285.4952 285.6750
" />
<path d="M285.4952 285.6750
L285.3714 285.7369
" />
<path d="M285.3714 285.7369
L285.3095 285.7988
" />
<path d="M285.3095 285.7988
L285.2476 285.9227
" />
</g></g>
<g style="fill:#000000; fill-opacity:0.0; 
stroke:#000000; stroke-width:0.0212; stroke-opacity:1; 
stroke-linecap:round; stroke-linejoin:round;">
</g>
<g style="fill:#000000; fill-opacity:0.0; 
stroke:#000000; stroke-width:0.1500; stroke-opacity:1; 
stroke-linecap:round; stroke-linejoin:round;">
<text x="335.0000" y="286.6522"
textLength="1.3531" font-size="1.7333" lengthAdjust="spacingAndGlyphs"
text-anchor="start" opacity="0">7</text>
<g class="stroked-text"><desc>7</desc>
<path d="M335.1857 285.1798
L336.0524 285.1798
" />
<path d="M336.0524 285.1798
L335.4952 286.4798
" />
</g></g>
<g style="fill:#000000; fill-opacity:0.0; 
stroke:#000000; stroke-width:0.0212; stroke-opacity:1; 
stroke-linecap:round; stroke-linejoin:round;">
</g>
<g style="fill:#000000; fill-opacity:0.0; 
stroke:#000000; stroke-width:0.1500; stroke-opacity:1; 
stroke-linecap:round; stroke-linejoin:round;">
<text x="385.0000" y="286.6522"
textLength="1.3531" font-size="1.7333" lengthAdjust="spacingAndGlyphs"
text-anchor="start" opacity="0">8</text>
<g class="stroked-text"><desc>8</desc>
<path d="M385.4952 285.7369
L385.3714 285.6750
" />
<path d="M385.3714 285.6750
L385.3095 285.6131
" />
<path d="M385.3095 285.6131
L385.2476 285.4893
" />
<path d="M385.2476 285.4893
L385.2476 285.4274
" />
<path d="M385.2476 285.4274
L385.3095 285.3036
" />
<path d="M385.3095 285.3036
L385.3714 285.2417
" />
<path d="M385.3714 285.2417
L385.4952 285.1798
" />
<path d="M385.4952 285.1798
L385.7429 285.1798
" />
<path d="M385.7429 285.1798
L385.8667 285.2417
" />
<path d="M385.8667 285.2417
L385.9286 285.3036
" />
<path d="M385.9286 285.3036
L385.9905 285.4274
" />
<path d="M385.9905 285.4274
L385.9905 285.4893
" />
<path d="M385.9905 285.4893
L385.9286 285.6131
" />
<path d="M385.9286 285.6131
L385.8667 285.6750
" />
<path d="M385.8667 285.6750
L385.7429 285.7369
" />
<path d="M385.7429 285.7369
L385.4952 285.7369
" />
<path d="M385.4952 285.7369
L385.3714 285.7988
" />
<path d="M385.3714 285.7988
L385.3095 285.8607
" />
<path d="M385.3095 285.8607
L385.2476 285.9846
" />
<path d="M385.2476 285.9846
L385.2476 286.2322
" />
<path d="M385.2476 286.2322
L385.3095 286.3560
" />
<path d="M385.3095 286.3560
L385.3714 286.4179
" />
<path d="M385.3714 286.4179
L385.4952 286.4798
" />
<path d="M385.4952 286.4798
L385.7429 286.4798
" />
<path d="M385.7429 286.4798
L385.8667 286.4179
" />
<path d="M385.8667 286.4179
L385.9286 286.3560
" />
<path d="M385.9286 286.3560
L385.9905 286.2322
" />
<path d="M385.9905 286.2322
L385.9905 285.9846
" />
<path d="M385.9905 285.9846
L385.9286 285.8607
" />
<path d="M385.9286 285.8607
L385.8667 285.7988
" />
<path d="M385.8667 285.7988
L385.7429 285.7369
" />
</g></g>
<g style="fill:#000000; fill-opacity:0.0; 
stroke:#000000; stroke-width:0.0212; stroke-opacity:1; 
stroke-linecap:round; stroke-linejoin:round;">
</g>
<g style="fill:#000000; fill-opacity:0.0; 
stroke:#000000; stroke-width:0.1500; stroke-opacity:1; 
stroke-linecap:round; stroke-linejoin:round;">
<path d="M10.0000 60.0000
L12.0000 60.0000
" />
</g>
<g style="fill:#000000; fill-opacity:0.0; 
stroke:#000000; stroke-width:0.0212; stroke-opacity:1; 
stroke-linecap:round; stroke-linejoin:round;">
</g>
<g style="fill:#000000; fill-opacity:0.0; 
stroke:#000000; stroke-width:0.1500; stroke-opacity:1; 
stroke-linecap:round; stroke-linejoin:round;">
<path d="M10.0000 110.0000
L12.0000 110.0000
" />
</g>
<g style="fill:#000000; fill-opacity:0.0; 
stroke:#000000; stroke-width:0.0212; stroke-opacity:1; 
stroke-linecap:round; stroke-linejoin:round;">
</g>
<g style="fill:#000000; fill-opacity:0.0; 
stroke:#000000; stroke-width:0.1500; stroke-opacity:1; 
stroke-linecap:round; stroke-linejoin:round;">
<path d="M10.0000 160.0000
L12.0000 160.0000
" />
</g>
<g style="fill:#000000; fill-opacity:0.0; 
stroke:#000000; stroke-width:0.0212; stroke-opacity:1; 
stroke-linecap:round; stroke-linejoin:round;">
</g>
<g style="fill:#000000; fill-opacity:0.0; 
stroke:#000000; stroke-width:0.1500; stroke-opacity:1; 
stroke-linecap:round; stroke-linejoin:round;">
<path d="M10.0000 210.0000
L12.0000 210.0000
" />
</g>
<g style="fill:#000000; fill-opacity:0.0; 
stroke:#000000; stroke-width:0.0212; stroke-opacity:1; 
stroke-linecap:round; stroke-linejoin:round;">
</g>
<g style="fill:#000000; fill-opacity:0.0; 
stroke:#000000; stroke-width:0.1500; stroke-opacity:1; 
stroke-linecap:round; stroke-linejoin:round;">
<path d="M10.0000 260.0000
L12.0000 260.0000
" />
</g>
<g style="fill:#000000; fill-opacity:0.0; 
stroke:#000000; stroke-width:0.0212; stroke-opacity:1; 
stroke-linecap:round; stroke-linejoin:round;">
</g>
<g style="fill:#000000; fill-opacity:0.0; 
stroke:#000000; stroke-width:0.1500; stroke-opacity:1; 
stroke-linecap:round; stroke-linejoin:round;">
<text x="11.0000" y="35.6500"
textLength="1.2293" font-size="1.7333" lengthAdjust="spacingAndGlyphs"
text-anchor="middle" opacity="0">A</text>
<g class="stroked-text"><desc>A</desc>
<path d="M10.6905 35.1062
L11.3095 35.1062
" />
<path d="M10.5667 35.4776
L11.0000 34.1776
" />
<path d="M11.0000 34.1776
L11.4333 35.4776
" />
</g></g>
<g style="fill:#000000; fill-opacity:0.0; 
stroke:#000000; stroke-width:0.0212; stroke-opacity:1; 
stroke-linecap:round; stroke-linejoin:round;">
</g>
<g style="fill:#000000; fill-opacity:0.0; 
stroke:#000000; stroke-width:0.1500; stroke-opacity:1; 
stroke-linecap:round; stroke-linejoin:round;">
<text x="11.0000" y="85.6500"
textLength="1.4150" font-size="1.7333" lengthAdjust="spacingAndGlyphs"
text-anchor="middle" opacity="0">B</text>
<g class="stroked-text"><desc>B</desc>
<path d="M11.0929 84.7966
L11.2786 84.8585
" />
<path d="M11.2786 84.8585
L11.3405 84.9205
" />
<path d="M11.3405 84.9205
L11.4024 85.0443
" />
<path d="M11.4024 85.0443
L11.4024 85.2300
" />
<path d="M11.4024 85.2300
L11.3405 85.3538
" />
<path d="M11.3405 85.3538
L11.2786 85.4157
" />
<path d="M11.2786 85.4157
L11.1548 85.4776
" />
<path d="M11.1548 85.4776
L10.6595 85.4776
" />
<path d="M10.6595 85.4776
L10.6595 84.1776
" />
<path d="M10.6595 84.1776
L11.0929 84.1776
" />
<path d="M11.0929 84.1776
L11.2167 84.2395
" />
<path d="M11.2167 84.2395
L11.2786 84.3014
" />
<path d="M11.2786 84.3014
L11.3405 84.4252
" />
<path d="M11.3405 84.4252
L11.3405 84.5490
" />
<path d="M11.3405 84.5490
L11.2786 84.6728
" />
<path d="M11.2786 84.6728
L11.2167 84.7347
" />
<path d="M11.2167 84.7347
L11.0929 84.7966
" />
<path d="M11.0929 84.7966
L10.6595 84.7966
" />
</g></g>
<g style="fill:#000000; fill-opacity:0.0; 
stroke:#000000; stroke-width:0.0212; stroke-opacity:1; 
stroke-linecap:round; stroke-linejoin:round;">
</g>
<g style="fill:#000000; fill-opacity:0.0; 
stroke:#000000; stroke-width:0.1500; stroke-opacity:1; 
stroke-linecap:round; stroke-linejoin:round;">
<text x="11.0000" y="135.6500"
textLength="1.4150" font-size="1.7333" lengthAdjust="spacingAndGlyphs"
text-anchor="middle" opacity="0">C</text>
<g class="stroked-text"><desc>C</desc>
<path d="M11.4024 135.3538
L11.3405 135.4157
" />
<path d="M11.3405 135.4157
L11.1548 135.4776
" />
<path d="M11.1548 135.4776
L11.0310 135.4776
" />
<path d="M11.0310 135.4776
L10.8452 135.4157
" />
<path d="M10.8452 135.4157
L10.7214 135.2919
" />
<path d="M10.7214 135.2919
L10.6595 135.1681
" />
<path d="M10.6595 135.1681
L10.5976 134.9205
" />
<path d="M10.5976 134.9205
L10.5976 134.7347
" />
<path d="M10.5976 134.7347
L10.6595 134.4871
" />
<path d="M10.6595 134.4871
L10.7214 134.3633
" />
<path d="M10.7214 134.3633
L10.8452 134.2395
" />
<path d="M10.8452 134.2395
L11.0310 134.1776
" />
<path d="M11.0310 134.1776
L11.1548 134.1776
" />
<path d="M11.1548 134.1776
L11.3405 134.2395
" />
<path d="M11.3405 134.2395
L11.4024 134.3014
" />
</g></g>
<g style="fill:#000000; fill-opacity:0.0; 
stroke:#000000; stroke-width:0.0212; stroke-opacity:1; 
stroke-linecap:round; stroke-linejoin:round;">
</g>
<g style="fill:#000000; fill-opacity:0.0; 
stroke:#000000; stroke-width:0.1500; stroke-opacity:1; 
stroke-linecap:round; stroke-linejoin:round;">
<text x="11.0000" y="185.6500"
textLength="1.4150" font-size="1.7333" lengthAdjust="spacingAndGlyphs"
text-anchor="middle" opacity="0">D</text>
<g class="stroked-text"><desc>D</desc>
<path d="M10.6595 185.4776
L10.6595 184.1776
" />
<path d="M10.6595 184.1776
L10.9690 184.1776
" />
<path d="M10.9690 184.1776
L11.1548 184.2395
" />
<path d="M11.1548 184.2395
L11.2786 184.3633
" />
<path d="M11.2786 184.3633
L11.3405 184.4871
" />
<path d="M11.3405 184.4871
L11.4024 184.7347
" />
<path d="M11.4024 184.7347
L11.4024 184.9205
" />
<path d="M11.4024 184.9205
L11.3405 185.1681
" />
<path d="M11.3405 185.1681
L11.2786 185.2919
" />
<path d="M11.2786 185.2919
L11.1548 185.4157
" />
<path d="M11.1548 185.4157
L10.9690 185.4776
" />
<path d="M10.9690 185.4776
L10.6595 185.4776
" />
</g></g>
<g style="fill:#000000; fill-opacity:0.0; 
stroke:#000000; stroke-width:0.0212; stroke-opacity:1; 
stroke-linecap:round; stroke-linejoin:round;">
</g>
<g style="fill:#000000; fill-opacity:0.0; 
stroke:#000000; stroke-width:0.1500; stroke-opacity:1; 
stroke-linecap:round; stroke-linejoin:round;">
<text x="11.0000" y="235.6500"
textLength="1.2912" font-size="1.7333" lengthAdjust="spacingAndGlyphs"
text-anchor="middle" opacity="0">E</text>
<g class="stroked-text"><desc>E</desc>
<path d="M10.7214 234.7966
L11.1548 234.7966
" />
<path d="M11.3405 235.4776
L10.7214 235.4776
" />
<path d="M10.7214 235.4776
L10.7214 234.1776
" />
<path d="M10.7214 234.1776
L11.3405 234.1776
" />
</g></g>
<g style="fill:#000000; fill-opacity:0.0; 
stroke:#000000; stroke-width:0.0212; stroke-opacity:1; 
stroke-linecap:round; stroke-linejoin:round;">
</g>
<g style="fill:#000000; fill-opacity:0.0; 
stroke:#000000; stroke-width:0.1500; stroke-opacity:1; 
stroke-linecap:round; stroke-linejoin:round;">
<text x="11.0000" y="285.6500"
textLength="1.2293" font-size="1.7333" lengthAdjust="spacingAndGlyphs"
text-anchor="middle" opacity="0">F</text>
<g class="stroked-text"><desc>F</desc>
<path d="M11.1857 284.7966
L10.7524 284.7966
" />
<path d="M10.7524 285.4776
L10.7524 284.1776
" />
<path d="M10.7524 284.1776
L11.3714 284.1776
" />
</g></g>
<g style="fill:#000000; fill-opacity:0.0; 
stroke:#000000; stroke-width:0.0212; stroke-opacity:1; 
stroke-linecap:round; stroke-linejoin:round;">
</g>
<g style="fill:#000000; fill-opacity:0.0; 
stroke:#000000; stroke-width:0.1500; stroke-opacity:1; 
stroke-linecap:round; stroke-linejoin:round;">
<path d="M409.9890 60.0000
L407.9890 60.0000
" />
</g>
<g style="fill:#000000; fill-opacity:0.0; 
stroke:#000000; stroke-width:0.0212; stroke-opacity:1; 
stroke-linecap:round; stroke-linejoin:round;">
</g>
<g style="fill:#000000; fill-opacity:0.0; 
stroke:#000000; stroke-width:0.1500; stroke-opacity:1; 
stroke-linecap:round; stroke-linejoin:round;">
<path d="M409.9890 110.0000
L407.9890 110.0000
" />
</g>
<g style="fill:#000000; fill-opacity:0.0; 
stroke:#000000; stroke-width:0.0212; stroke-opacity:1; 
stroke-linecap:round; stroke-linejoin:round;">
</g>
<g style="fill:#000000; fill-opacity:0.0; 
stroke:#000000; stroke-width:0.1500; stroke-opacity:1; 
stroke-linecap:round; stroke-linejoin:round;">
<path d="M409.9890 160.0000
L407.9890 160.0000
" />
</g>
<g style="fill:#000000; fill-opacity:0.0; 
stroke:#000000; stroke-width:0.0212; stroke-opacity:1; 
stroke-linecap:round; stroke-linejoin:round;">
</g>
<g style="fill:#000000; fill-opacity:0.0; 
stroke:#000000; stroke-width:0.1500; stroke-opacity:1; 
stroke-linecap:round; stroke-linejoin:round;">
<path d="M409.9890 210.0000
L407.9890 210.0000
" />
</g>
<g style="fill:#000000; fill-opacity:0.0; 
stroke:#000000; stroke-width:0.0212; stroke-opacity:1; 
stroke-linecap:round; stroke-linejoin:round;">
</g>
<g style="fill:#000000; fill-opacity:0.0; 
stroke:#000000; stroke-width:0.1500; stroke-opacity:1; 
stroke-linecap:round; stroke-linejoin:round;">
<path d="M409.9890 260.0000
L407.9890 260.0000
" />
</g>
<g style="fill:#000000; fill-opacity:0.0; 
stroke:#000000; stroke-width:0.0212; stroke-opacity:1; 
stroke-linecap:round; stroke-linejoin:round;">
</g>
<g style="fill:#000000; fill-opacity:0.0; 
stroke:#000000; stroke-width:0.1500; stroke-opacity:1; 
stroke-linecap:round; stroke-linejoin:round;">
<text x="408.9890" y="35.6500"
textLength="1.2293" font-size="1.7333" lengthAdjust="spacingAndGlyphs"
text-anchor="middle" opacity="0">A</text>
<g class="stroked-text"><desc>A</desc>
<path d="M408.6795 35.1062
L409.2985 35.1062
" />
<path d="M408.5557 35.4776
L408.9890 34.1776
" />
<path d="M408.9890 34.1776
L409.4223 35.4776
" />
</g></g>
<g style="fill:#000000; fill-opacity:0.0; 
stroke:#000000; stroke-width:0.0212; stroke-opacity:1; 
stroke-linecap:round; stroke-linejoin:round;">
</g>
<g style="fill:#000000; fill-opacity:0.0; 
stroke:#000000; stroke-width:0.1500; stroke-opacity:1; 
stroke-linecap:round; stroke-linejoin:round;">
<text x="408.9890" y="85.6500"
textLength="1.4150" font-size="1.7333" lengthAdjust="spacingAndGlyphs"
text-anchor="middle" opacity="0">B</text>
<g class="stroked-text"><desc>B</desc>
<path d="M409.0819 84.7966
L409.2676 84.8585
" />
<path d="M409.2676 84.8585
L409.3295 84.9205
" />
<path d="M409.3295 84.9205
L409.3914 85.0443
" />
<path d="M409.3914 85.0443
L409.3914 85.2300
" />
<path d="M409.3914 85.2300
L409.3295 85.3538
" />
<path d="M409.3295 85.3538
L409.2676 85.4157
" />
<path d="M409.2676 85.4157
L409.1438 85.4776
" />
<path d="M409.1438 85.4776
L408.6485 85.4776
" />
<path d="M408.6485 85.4776
L408.6485 84.1776
" />
<path d="M408.6485 84.1776
L409.0819 84.1776
" />
<path d="M409.0819 84.1776
L409.2057 84.2395
" />
<path d="M409.2057 84.2395
L409.2676 84.3014
" />
<path d="M409.2676 84.3014
L409.3295 84.4252
" />
<path d="M409.3295 84.4252
L409.3295 84.5490
" />
<path d="M409.3295 84.5490
L409.2676 84.6728
" />
<path d="M409.2676 84.6728
L409.2057 84.7347
" />
<path d="M409.2057 84.7347
L409.0819 84.7966
" />
<path d="M409.0819 84.7966
L408.6485 84.7966
" />
</g></g>
<g style="fill:#000000; fill-opacity:0.0; 
stroke:#000000; stroke-width:0.0212; stroke-opacity:1; 
stroke-linecap:round; stroke-linejoin:round;">
</g>
<g style="fill:#000000; fill-opacity:0.0; 
stroke:#000000; stroke-width:0.1500; stroke-opacity:1; 
stroke-linecap:round; stroke-linejoin:round;">
<text x="408.9890" y="135.6500"
textLength="1.4150" font-size="1.7333" lengthAdjust="spacingAndGlyphs"
text-anchor="middle" opacity="0">C</text>
<g class="stroked-text"><desc>C</desc>
<path d="M409.3914 135.3538
L409.3295 135.4157
" />
<path d="M409.3295 135.4157
L409.1438 135.4776
" />
<path d="M409.1438 135.4776
L409.0200 135.4776
" />
<path d="M409.0200 135.4776
L408.8342 135.4157
" />
<path d="M408.8342 135.4157
L408.7104 135.2919
" />
<path d="M408.7104 135.2919
L408.6485 135.1681
" />
<path d="M408.6485 135.1681
L408.5866 134.9205
" />
<path d="M408.5866 134.9205
L408.5866 134.7347
" />
<path d="M408.5866 134.7347
L408.6485 134.4871
" />
<path d="M408.6485 134.4871
L408.7104 134.3633
" />
<path d="M408.7104 134.3633
L408.8342 134.2395
" />
<path d="M408.8342 134.2395
L409.0200 134.1776
" />
<path d="M409.0200 134.1776
L409.1438 134.1776
" />
<path d="M409.1438 134.1776
L409.3295 134.2395
" />
<path d="M409.3295 134.2395
L409.3914 134.3014
" />
</g></g>
<g style="fill:#000000; fill-opacity:0.0; 
stroke:#000000; stroke-width:0.0212; stroke-opacity:1; 
stroke-linecap:round; stroke-linejoin:round;">
</g>
<g style="fill:#000000; fill-opacity:0.0; 
stroke:#000000; stroke-width:0.1500; stroke-opacity:1; 
stroke-linecap:round; stroke-linejoin:round;">
<text x="408.9890" y="185.6500"
textLength="1.4150" font-size="1.7333" lengthAdjust="spacingAndGlyphs"
text-anchor="middle" opacity="0">D</text>
<g class="stroked-text"><desc>D</desc>
<path d="M408.6485 185.4776
L408.6485 184.1776
" />
<path d="M408.6485 184.1776
L408.9580 184.1776
" />
<path d="M408.9580 184.1776
L409.1438 184.2395
" />
<path d="M409.1438 184.2395
L409.2676 184.3633
" />
<path d="M409.2676 184.3633
L409.3295 184.4871
" />
<path d="M409.3295 184.4871
L409.3914 184.7347
" />
<path d="M409.3914 184.7347
L409.3914 184.9205
" />
<path d="M409.3914 184.9205
L409.3295 185.1681
" />
<path d="M409.3295 185.1681
L409.2676 185.2919
" />
<path d="M409.2676 185.2919
L409.1438 185.4157
" />
<path d="M409.1438 185.4157
L408.9580 185.4776
" />
<path d="M408.9580 185.4776
L408.6485 185.4776
" />
</g></g>
<g style="fill:#000000; fill-opacity:0.0; 
stroke:#000000; stroke-width:0.0212; stroke-opacity:1; 
stroke-linecap:round; stroke-linejoin:round;">
</g>
<g style="fill:#000000; fill-opacity:0.0; 
stroke:#000000; stroke-width:0.1500; stroke-opacity:1; 
stroke-linecap:round; stroke-linejoin:round;">
<text x="408.9890" y="235.6500"
textLength="1.2912" font-size="1.7333" lengthAdjust="spacingAndGlyphs"
text-anchor="middle" opacity="0">E</text>
<g class="stroked-text"><desc>E</desc>
<path d="M408.7104 234.7966
L409.1438 234.7966
" />
<path d="M409.3295 235.4776
L408.7104 235.4776
" />
<path d="M408.7104 235.4776
L408.7104 234.1776
" />
<path d="M408.7104 234.1776
L409.3295 234.1776
" />
</g></g>
<g style="fill:#000000; fill-opacity:0.0; 
stroke:#000000; stroke-width:0.0212; stroke-opacity:1; 
stroke-linecap:round; stroke-linejoin:round;">
</g>
<g style="fill:#000000; fill-opacity:0.0; 
stroke:#000000; stroke-width:0.1500; stroke-opacity:1; 
stroke-linecap:round; stroke-linejoin:round;">
<text x="408.9890" y="285.6500"
textLength="1.2293" font-size="1.7333" lengthAdjust="spacingAndGlyphs"
text-anchor="middle" opacity="0">F</text>
<g class="stroked-text"><desc>F</desc>
<path d="M409.1747 284.7966
L408.7414 284.7966
" />
<path d="M408.7414 285.4776
L408.7414 284.1776
" />
<path d="M408.7414 284.1776
L409.3604 284.1776
" />
</g></g>
<g style="fill:#000000; fill-opacity:0.0; 
stroke:#000000; stroke-width:0.0212; stroke-opacity:1; 
stroke-linecap:round; stroke-linejoin:round;">
</g>
<g style="fill:#000000; fill-opacity:0.0; 
stroke:#000000; stroke-width:0.1500; stroke-opacity:1; 
stroke-linecap:round; stroke-linejoin:round;">
<text x="322.9890" y="280.8522"
textLength="6.6893" font-size="2.0000" lengthAdjust="spacingAndGlyphs"
text-anchor="start" opacity="0">Date: </text>
<g class="stroked-text"><desc>Date: </desc>
<path d="M323.3461 280.6533
L323.3461 279.1533
" />
<path d="M323.3461 279.1533
L323.7033 279.1533
" />
<path d="M323.7033 279.1533
L323.9176 279.2247
" />
<path d="M323.9176 279.2247
L324.0604 279.3676
" />
<path d="M324.0604 279.3676
L324.1319 279.5104
" />
<path d="M324.1319 279.5104
L324.2033 279.7961
" />
<path d="M324.2033 279.7961
L324.2033 280.0104
" />
<path d="M324.2033 280.0104
L324.1319 280.2961
" />
<path d="M324.1319 280.2961
L324.0604 280.4390
" />
<path d="M324.0604 280.4390
L323.9176 280.5818
" />
<path d="M323.9176 280.5818
L323.7033 280.6533
" />
<path d="M323.7033 280.6533
L323.3461 280.6533
" />
<path d="M325.4890 280.6533
L325.4890 279.8676
" />
<path d="M325.4890 279.8676
L325.4176 279.7247
" />
<path d="M325.4176 279.7247
L325.2747 279.6533
" />
<path d="M325.2747 279.6533
L324.9890 279.6533
" />
<path d="M324.9890 279.6533
L324.8461 279.7247
" />
<path d="M325.4890 280.5818
L325.3461 280.6533
" />
<path d="M325.3461 280.6533
L324.9890 280.6533
" />
<path d="M324.9890 280.6533
L324.8461 280.5818
" />
<path d="M324.8461 280.5818
L324.7747 280.4390
" />
<path d="M324.7747 280.4390
L324.7747 280.2961
" />
<path d="M324.7747 280.2961
L324.8461 280.1533
" />
<path d="M324.8461 280.1533
L324.9890 280.0818
" />
<path d="M324.9890 280.0818
L325.3461 280.0818
" />
<path d="M325.3461 280.0818
L325.4890 280.0104
" />
<path d="M325.9890 279.6533
L326.5604 279.6533
" />
<path d="M326.2033 279.1533
L326.2033 280.4390
" />
<path d="M326.2033 280.4390
L326.2747 280.5818
" />
<path d="M326.2747 280.5818
L326.4176 280.6533
" />
<path d="M326.4176 280.6533
L326.5604 280.6533
" />
<path d="M327.6319 280.5818
L327.4890 280.6533
" />
<path d="M327.4890 280.6533
L327.2033 280.6533
" />
<path d="M327.2033 280.6533
L327.0604 280.5818
" />
<path d="M327.0604 280.5818
L326.9890 280.4390
" />
<path d="M326.9890 280.4390
L326.9890 279.8676
" />
<path d="M326.9890 279.8676
L327.0604 279.7247
" />
<path d="M327.0604 279.7247
L327.2033 279.6533
" />
<path d="M327.2033 279.6533
L327.4890 279.6533
" />
<path d="M327.4890 279.6533
L327.6319 279.7247
" />
<path d="M327.6319 279.7247
L327.7033 279.8676
" />
<path d="M327.7033 279.8676
L327.7033 280.0104
" />
<path d="M327.7033 280.0104
L326.9890 280.1533
" />
<path d="M328.3461 280.5104
L328.4176 280.5818
" />
<path d="M328.4176 280.5818
L328.3461 280.6533
" />
<path d="M328.3461 280.6533
L328.2747 280.5818
" />
<path d="M328.2747 280.5818
L328.3461 280.5104
" />
<path d="M328.3461 280.5104
L328.3461 280.6533
" />
<path d="M328.3461 279.7247
L328.4176 279.7961
" />
<path d="M328.4176 279.7961
L328.3461 279.8676
" />
<path d="M328.3461 279.8676
L328.2747 279.7961
" />
<path d="M328.2747 279.7961
L328.3461 279.7247
" />
<path d="M328.3461 279.7247
L328.3461 279.8676
" />
</g></g>
<g style="fill:#000000; fill-opacity:0.0; 
stroke:#000000; stroke-width:0.0212; stroke-opacity:1; 
stroke-linecap:round; stroke-linejoin:round;">
</g>
<g style="fill:#000000; fill-opacity:0.0; 
stroke:#000000; stroke-width:0.1500; stroke-opacity:1; 
stroke-linecap:round; stroke-linejoin:round;">
<path d="M299.9890 281.5022
L407.9890 281.5022
" />
</g>
<g style="fill:#000000; fill-opacity:0.0; 
stroke:#000000; stroke-width:0.0212; stroke-opacity:1; 
stroke-linecap:round; stroke-linejoin:round;">
</g>
<g style="fill:#000000; fill-opacity:0.0; 
stroke:#000000; stroke-width:0.1500; stroke-opacity:1; 
stroke-linecap:round; stroke-linejoin:round;">
<text x="300.9890" y="283.6522"
textLength="32.3179" font-size="2.0000" lengthAdjust="spacingAndGlyphs"
text-anchor="start" opacity="0">KiCad E.D.A.  pcbnew (7.0.0)</text>
<g class="stroked-text"><desc>KiCad E.D.A.  pcbnew (7.0.0)</desc>
<path d="M301.3461 283.4533
L301.3461 281.9533
" />
<path d="M302.2033 283.4533
L301.5604 282.5961
" />
<path d="M302.2033 281.9533
L301.3461 282.8104
" />
<path d="M302.8461 283.4533
L302.8461 282.4533
" />
<path d="M302.8461 281.9533
L302.7747 282.0247
" />
<path d="M302.7747 282.0247
L302.8461 282.0961
" />
<path d="M302.8461 282.0961
L302.9176 282.0247
" />
<path d="M302.9176 282.0247
L302.8461 281.9533
" />
<path d="M302.8461 281.9533
L302.8461 282.0961
" />
<path d="M304.4176 283.3104
L304.3461 283.3818
" />
<path d="M304.3461 283.3818
L304.1319 283.4533
" />
<path d="M304.1319 283.4533
L303.9890 283.4533
" />
<path d="M303.9890 283.4533
L303.7747 283.3818
" />
<path d="M303.7747 283.3818
L303.6319 283.2390
" />
<path d="M303.6319 283.2390
L303.5604 283.0961
" />
<path d="M303.5604 283.0961
L303.4890 282.8104
" />
<path d="M303.4890 282.8104
L303.4890 282.5961
" />
<path d="M303.4890 282.5961
L303.5604 282.3104
" />
<path d="M303.5604 282.3104
L303.6319 282.1676
" />
<path d="M303.6319 282.1676
L303.7747 282.0247
" />
<path d="M303.7747 282.0247
L303.9890 281.9533
" />
<path d="M303.9890 281.9533
L304.1319 281.9533
" />
<path d="M304.1319 281.9533
L304.3461 282.0247
" />
<path d="M304.3461 282.0247
L304.4176 282.0961
" />
<path d="M305.7033 283.4533
L305.7033 282.6676
" />
<path d="M305.7033 282.6676
L305.6319 282.5247
" />
<path d="M305.6319 282.5247
L305.4890 282.4533
" />
<path d="M305.4890 282.4533
L305.2033 282.4533
" />
<path d="M305.2033 282.4533
L305.0604 282.5247
" />
<path d="M305.7033 283.3818
L305.5604 283.4533
" />
<path d="M305.5604 283.4533
L305.2033 283.4533
" />
<path d="M305.2033 283.4533
L305.0604 283.3818
" />
<path d="M305.0604 283.3818
L304.9890 283.2390
" />
<path d="M304.9890 283.2390
L304.9890 283.0961
" />
<path d="M304.9890 283.0961
L305.0604 282.9533
" />
<path d="M305.0604 282.9533
L305.2033 282.8818
" />
<path d="M305.2033 282.8818
L305.5604 282.8818
" />
<path d="M305.5604 282.8818
L305.7033 282.8104
" />
<path d="M307.0604 283.4533
L307.0604 281.9533
" />
<path d="M307.0604 283.3818
L306.9176 283.4533
" />
<path d="M306.9176 283.4533
L306.6319 283.4533
" />
<path d="M306.6319 283.4533
L306.4890 283.3818
" />
<path d="M306.4890 283.3818
L306.4176 283.3104
" />
<path d="M306.4176 283.3104
L306.3461 283.1676
" />
<path d="M306.3461 283.1676
L306.3461 282.7390
" />
<path d="M306.3461 282.7390
L306.4176 282.5961
" />
<path d="M306.4176 282.5961
L306.4890 282.5247
" />
<path d="M306.4890 282.5247
L306.6319 282.4533
" />
<path d="M306.6319 282.4533
L306.9176 282.4533
" />
<path d="M306.9176 282.4533
L307.0604 282.5247
" />
<path d="M308.6747 282.6676
L309.1747 282.6676
" />
<path d="M309.3890 283.4533
L308.6747 283.4533
" />
<path d="M308.6747 283.4533
L308.6747 281.9533
" />
<path d="M308.6747 281.9533
L309.3890 281.9533
" />
<path d="M310.0319 283.3104
L310.1033 283.3818
" />
<path d="M310.1033 283.3818
L310.0319 283.4533
" />
<path d="M310.0319 283.4533
L309.9604 283.3818
" />
<path d="M309.9604 283.3818
L310.0319 283.3104
" />
<path d="M310.0319 283.3104
L310.0319 283.4533
" />
<path d="M310.7461 283.4533
L310.7461 281.9533
" />
<path d="M310.7461 281.9533
L311.1033 281.9533
" />
<path d="M311.1033 281.9533
L311.3176 282.0247
" />
<path d="M311.3176 282.0247
L311.4604 282.1676
" />
<path d="M311.4604 282.1676
L311.5319 282.3104
" />
<path d="M311.5319 282.3104
L311.6033 282.5961
" />
<path d="M311.6033 282.5961
L311.6033 282.8104
" />
<path d="M311.6033 282.8104
L311.5319 283.0961
" />
<path d="M311.5319 283.0961
L311.4604 283.2390
" />
<path d="M311.4604 283.2390
L311.3176 283.3818
" />
<path d="M311.3176 283.3818
L311.1033 283.4533
" />
<path d="M311.1033 283.4533
L310.7461 283.4533
" />
<path d="M312.2461 283.3104
L312.3176 283.3818
" />
<path d="M312.3176 283.3818
L312.2461 283.4533
" />
<path d="M312.2461 283.4533
L312.1747 283.3818
" />
<path d="M312.1747 283.3818
L312.2461 283.3104
" />
<path d="M312.2461 283.3104
L312.2461 283.4533
" />
<path d="M312.8890 283.0247
L313.6033 283.0247
" />
<path d="M312.7461 283.4533
L313.2461 281.9533
" />
<path d="M313.2461 281.9533
L313.7461 283.4533
" />
<path d="M314.2461 283.3104
L314.3176 283.3818
" />
<path d="M314.3176 283.3818
L314.2461 283.4533
" />
<path d="M314.2461 283.4533
L314.1747 283.3818
" />
<path d="M314.1747 283.3818
L314.2461 283.3104
" />
<path d="M314.2461 283.3104
L314.2461 283.4533
" />
<path d="M316.7604 282.4533
L316.7604 283.9533
" />
<path d="M316.7604 282.5247
L316.9033 282.4533
" />
<path d="M316.9033 282.4533
L317.1890 282.4533
" />
<path d="M317.1890 282.4533
L317.3319 282.5247
" />
<path d="M317.3319 282.5247
L317.4033 282.5961
" />
<path d="M317.4033 282.5961
L317.4747 282.7390
" />
<path d="M317.4747 282.7390
L317.4747 283.1676
" />
<path d="M317.4747 283.1676
L317.4033 283.3104
" />
<path d="M317.4033 283.3104
L317.3319 283.3818
" />
<path d="M317.3319 283.3818
L317.1890 283.4533
" />
<path d="M317.1890 283.4533
L316.9033 283.4533
" />
<path d="M316.9033 283.4533
L316.7604 283.3818
" />
<path d="M318.7604 283.3818
L318.6176 283.4533
" />
<path d="M318.6176 283.4533
L318.3319 283.4533
" />
<path d="M318.3319 283.4533
L318.1890 283.3818
" />
<path d="M318.1890 283.3818
L318.1176 283.3104
" />
<path d="M318.1176 283.3104
L318.0461 283.1676
" />
<path d="M318.0461 283.1676
L318.0461 282.7390
" />
<path d="M318.0461 282.7390
L318.1176 282.5961
" />
<path d="M318.1176 282.5961
L318.1890 282.5247
" />
<path d="M318.1890 282.5247
L318.3319 282.4533
" />
<path d="M318.3319 282.4533
L318.6176 282.4533
" />
<path d="M318.6176 282.4533
L318.7604 282.5247
" />
<path d="M319.4033 283.4533
L319.4033 281.9533
" />
<path d="M319.4033 282.5247
L319.5461 282.4533
" />
<path d="M319.5461 282.4533
L319.8319 282.4533
" />
<path d="M319.8319 282.4533
L319.9747 282.5247
" />
<path d="M319.9747 282.5247
L320.0461 282.5961
" />
<path d="M320.0461 282.5961
L320.1176 282.7390
" />
<path d="M320.1176 282.7390
L320.1176 283.1676
" />
<path d="M320.1176 283.1676
L320.0461 283.3104
" />
<path d="M320.0461 283.3104
L319.9747 283.3818
" />
<path d="M319.9747 283.3818
L319.8319 283.4533
" />
<path d="M319.8319 283.4533
L319.5461 283.4533
" />
<path d="M319.5461 283.4533
L319.4033 283.3818
" />
<path d="M320.7604 282.4533
L320.7604 283.4533
" />
<path d="M320.7604 282.5961
L320.8319 282.5247
" />
<path d="M320.8319 282.5247
L320.9747 282.4533
" />
<path d="M320.9747 282.4533
L321.1890 282.4533
" />
<path d="M321.1890 282.4533
L321.3319 282.5247
" />
<path d="M321.3319 282.5247
L321.4033 282.6676
" />
<path d="M321.4033 282.6676
L321.4033 283.4533
" />
<path d="M322.6890 283.3818
L322.5461 283.4533
" />
<path d="M322.5461 283.4533
L322.2604 283.4533
" />
<path d="M322.2604 283.4533
L322.1176 283.3818
" />
<path d="M322.1176 283.3818
L322.0461 283.2390
" />
<path d="M322.0461 283.2390
L322.0461 282.6676
" />
<path d="M322.0461 282.6676
L322.1176 282.5247
" />
<path d="M322.1176 282.5247
L322.2604 282.4533
" />
<path d="M322.2604 282.4533
L322.5461 282.4533
" />
<path d="M322.5461 282.4533
L322.6890 282.5247
" />
<path d="M322.6890 282.5247
L322.7604 282.6676
" />
<path d="M322.7604 282.6676
L322.7604 282.8104
" />
<path d="M322.7604 282.8104
L322.0461 282.9533
" />
<path d="M323.2604 282.4533
L323.5461 283.4533
" />
<path d="M323.5461 283.4533
L323.8319 282.7390
" />
<path d="M323.8319 282.7390
L324.1176 283.4533
" />
<path d="M324.1176 283.4533
L324.4033 282.4533
" />
<path d="M326.3033 284.0247
L326.2319 283.9533
" />
<path d="M326.2319 283.9533
L326.0890 283.7390
" />
<path d="M326.0890 283.7390
L326.0176 283.5961
" />
<path d="M326.0176 283.5961
L325.9461 283.3818
" />
<path d="M325.9461 283.3818
L325.8747 283.0247
" />
<path d="M325.8747 283.0247
L325.8747 282.7390
" />
<path d="M325.8747 282.7390
L325.9461 282.3818
" />
<path d="M325.9461 282.3818
L326.0176 282.1676
" />
<path d="M326.0176 282.1676
L326.0890 282.0247
" />
<path d="M326.0890 282.0247
L326.2319 281.8104
" />
<path d="M326.2319 281.8104
L326.3033 281.7390
" />
<path d="M326.7319 281.9533
L327.7319 281.9533
" />
<path d="M327.7319 281.9533
L327.0890 283.4533
" />
<path d="M328.3033 283.3104
L328.3747 283.3818
" />
<path d="M328.3747 283.3818
L328.3033 283.4533
" />
<path d="M328.3033 283.4533
L328.2319 283.3818
" />
<path d="M328.2319 283.3818
L328.3033 283.3104
" />
<path d="M328.3033 283.3104
L328.3033 283.4533
" />
<path d="M329.3033 281.9533
L329.4461 281.9533
" />
<path d="M329.4461 281.9533
L329.5890 282.0247
" />
<path d="M329.5890 282.0247
L329.6604 282.0961
" />
<path d="M329.6604 282.0961
L329.7319 282.2390
" />
<path d="M329.7319 282.2390
L329.8033 282.5247
" />
<path d="M329.8033 282.5247
L329.8033 282.8818
" />
<path d="M329.8033 282.8818
L329.7319 283.1676
" />
<path d="M329.7319 283.1676
L329.6604 283.3104
" />
<path d="M329.6604 283.3104
L329.5890 283.3818
" />
<path d="M329.5890 283.3818
L329.4461 283.4533
" />
<path d="M329.4461 283.4533
L329.3033 283.4533
" />
<path d="M329.3033 283.4533
L329.1604 283.3818
" />
<path d="M329.1604 283.3818
L329.0890 283.3104
" />
<path d="M329.0890 283.3104
L329.0176 283.1676
" />
<path d="M329.0176 283.1676
L328.9461 282.8818
" />
<path d="M328.9461 282.8818
L328.9461 282.5247
" />
<path d="M328.9461 282.5247
L329.0176 282.2390
" />
<path d="M329.0176 282.2390
L329.0890 282.0961
" />
<path d="M329.0890 282.0961
L329.1604 282.0247
" />
<path d="M329.1604 282.0247
L329.3033 281.9533
" />
<path d="M330.4461 283.3104
L330.5176 283.3818
" />
<path d="M330.5176 283.3818
L330.4461 283.4533
" />
<path d="M330.4461 283.4533
L330.3747 283.3818
" />
<path d="M330.3747 283.3818
L330.4461 283.3104
" />
<path d="M330.4461 283.3104
L330.4461 283.4533
" />
<path d="M331.4461 281.9533
L331.5890 281.9533
" />
<path d="M331.5890 281.9533
L331.7319 282.0247
" />
<path d="M331.7319 282.0247
L331.8033 282.0961
" />
<path d="M331.8033 282.0961
L331.8747 282.2390
" />
<path d="M331.8747 282.2390
L331.9461 282.5247
" />
<path d="M331.9461 282.5247
L331.9461 282.8818
" />
<path d="M331.9461 282.8818
L331.8747 283.1676
" />
<path d="M331.8747 283.1676
L331.8033 283.3104
" />
<path d="M331.8033 283.3104
L331.7319 283.3818
" />
<path d="M331.7319 283.3818
L331.5890 283.4533
" />
<path d="M331.5890 283.4533
L331.4461 283.4533
" />
<path d="M331.4461 283.4533
L331.3033 283.3818
" />
<path d="M331.3033 283.3818
L331.2319 283.3104
" />
<path d="M331.2319 283.3104
L331.1604 283.1676
" />
<path d="M331.1604 283.1676
L331.0890 282.8818
" />
<path d="M331.0890 282.8818
L331.0890 282.5247
" />
<path d="M331.0890 282.5247
L331.1604 282.2390
" />
<path d="M331.1604 282.2390
L331.2319 282.0961
" />
<path d="M331.2319 282.0961
L331.3033 282.0247
" />
<path d="M331.3033 282.0247
L331.4461 281.9533
" />
<path d="M332.4461 284.0247
L332.5176 283.9533
" />
<path d="M332.5176 283.9533
L332.6604 283.7390
" />
<path d="M332.6604 283.7390
L332.7319 283.5961
" />
<path d="M332.7319 283.5961
L332.8033 283.3818
" />
<path d="M332.8033 283.3818
L332.8747 283.0247
" />
<path d="M332.8747 283.0247
L332.8747 282.7390
" />
<path d="M332.8747 282.7390
L332.8033 282.3818
" />
<path d="M332.8033 282.3818
L332.7319 282.1676
" />
<path d="M332.7319 282.1676
L332.6604 282.0247
" />
<path d="M332.6604 282.0247
L332.5176 281.8104
" />
<path d="M332.5176 281.8104
L332.4461 281.7390
" />
</g></g>
<g style="fill:#000000; fill-opacity:0.0; 
stroke:#000000; stroke-width:0.0212; stroke-opacity:1; 
stroke-linecap:round; stroke-linejoin:round;">
</g>
<g style="fill:#000000; fill-opacity:0.0; 
stroke:#000000; stroke-width:0.1500; stroke-opacity:1; 
stroke-linecap:round; stroke-linejoin:round;">
<path d="M299.9890 278.5022
L407.9890 278.5022
" />
</g>
<g style="fill:#000000; fill-opacity:0.0; 
stroke:#000000; stroke-width:0.0212; stroke-opacity:1; 
stroke-linecap:round; stroke-linejoin:round;">
</g>
<g style="fill:#000000; fill-opacity:0.0; 
stroke:#000000; stroke-width:0.3000; stroke-opacity:1; 
stroke-linecap:round; stroke-linejoin:round;">
<text x="385.9890" y="280.8522"
textLength="5.9929" font-size="2.0000" lengthAdjust="spacingAndGlyphs"
text-anchor="start" opacity="0">Rev: </text>
<g class="stroked-text"><desc>Rev: </desc>
<path d="M387.2033 280.6533
L386.7033 279.9390
" />
<path d="M386.3461 280.6533
L386.3461 279.1533
" />
<path d="M386.3461 279.1533
L386.9176 279.1533
" />
<path d="M386.9176 279.1533
L387.0604 279.2247
" />
<path d="M387.0604 279.2247
L387.1319 279.2961
" />
<path d="M387.1319 279.2961
L387.2033 279.4390
" />
<path d="M387.2033 279.4390
L387.2033 279.6533
" />
<path d="M387.2033 279.6533
L387.1319 279.7961
" />
<path d="M387.1319 279.7961
L387.0604 279.8676
" />
<path d="M387.0604 279.8676
L386.9176 279.9390
" />
<path d="M386.9176 279.9390
L386.3461 279.9390
" />
<path d="M388.4176 280.5818
L388.2747 280.6533
" />
<path d="M388.2747 280.6533
L387.9890 280.6533
" />
<path d="M387.9890 280.6533
L387.8461 280.5818
" />
<path d="M387.8461 280.5818
L387.7747 280.4390
" />
<path d="M387.7747 280.4390
L387.7747 279.8676
" />
<path d="M387.7747 279.8676
L387.8461 279.7247
" />
<path d="M387.8461 279.7247
L387.9890 279.6533
" />
<path d="M387.9890 279.6533
L388.2747 279.6533
" />
<path d="M388.2747 279.6533
L388.4176 279.7247
" />
<path d="M388.4176 279.7247
L388.4890 279.8676
" />
<path d="M388.4890 279.8676
L388.4890 280.0104
" />
<path d="M388.4890 280.0104
L387.7747 280.1533
" />
<path d="M388.9890 279.6533
L389.3461 280.6533
" />
<path d="M389.3461 280.6533
L389.7033 279.6533
" />
<path d="M390.2747 280.5104
L390.3461 280.5818
" />
<path d="M390.3461 280.5818
L390.2747 280.6533
" />
<path d="M390.2747 280.6533
L390.2033 280.5818
" />
<path d="M390.2033 280.5818
L390.2747 280.5104
" />
<path d="M390.2747 280.5104
L390.2747 280.6533
" />
<path d="M390.2747 279.7247
L390.3461 279.7961
" />
<path d="M390.3461 279.7961
L390.2747 279.8676
" />
<path d="M390.2747 279.8676
L390.2033 279.7961
" />
<path d="M390.2033 279.7961
L390.2747 279.7247
" />
<path d="M390.2747 279.7247
L390.2747 279.8676
" />
</g></g>
<g style="fill:#000000; fill-opacity:0.0; 
stroke:#000000; stroke-width:0.0212; stroke-opacity:1; 
stroke-linecap:round; stroke-linejoin:round;">
</g>
<g style="fill:#000000; fill-opacity:0.0; 
stroke:#000000; stroke-width:0.1500; stroke-opacity:1; 
stroke-linecap:round; stroke-linejoin:round;">
<text x="300.9890" y="280.8522"
textLength="9.0464" font-size="2.0000" lengthAdjust="spacingAndGlyphs"
text-anchor="start" opacity="0">Size: A3</text>
<g class="stroked-text"><desc>Size: A3</desc>
<path d="M301.2747 280.5818
L301.4890 280.6533
" />
<path d="M301.4890 280.6533
L301.8461 280.6533
" />
<path d="M301.8461 280.6533
L301.9890 280.5818
" />
<path d="M301.9890 280.5818
L302.0604 280.5104
" />
<path d="M302.0604 280.5104
L302.1319 280.3676
" />
<path d="M302.1319 280.3676
L302.1319 280.2247
" />
<path d="M302.1319 280.2247
L302.0604 280.0818
" />
<path d="M302.0604 280.0818
L301.9890 280.0104
" />
<path d="M301.9890 280.0104
L301.8461 279.9390
" />
<path d="M301.8461 279.9390
L301.5604 279.8676
" />
<path d="M301.5604 279.8676
L301.4176 279.7961
" />
<path d="M301.4176 279.7961
L301.3461 279.7247
" />
<path d="M301.3461 279.7247
L301.2747 279.5818
" />
<path d="M301.2747 279.5818
L301.2747 279.4390
" />
<path d="M301.2747 279.4390
L301.3461 279.2961
" />
<path d="M301.3461 279.2961
L301.4176 279.2247
" />
<path d="M301.4176 279.2247
L301.5604 279.1533
" />
<path d="M301.5604 279.1533
L301.9176 279.1533
" />
<path d="M301.9176 279.1533
L302.1319 279.2247
" />
<path d="M302.7747 280.6533
L302.7747 279.6533
" />
<path d="M302.7747 279.1533
L302.7033 279.2247
" />
<path d="M302.7033 279.2247
L302.7747 279.2961
" />
<path d="M302.7747 279.2961
L302.8461 279.2247
" />
<path d="M302.8461 279.2247
L302.7747 279.1533
" />
<path d="M302.7747 279.1533
L302.7747 279.2961
" />
<path d="M303.3461 279.6533
L304.1319 279.6533
" />
<path d="M304.1319 279.6533
L303.3461 280.6533
" />
<path d="M303.3461 280.6533
L304.1319 280.6533
" />
<path d="M305.2747 280.5818
L305.1319 280.6533
" />
<path d="M305.1319 280.6533
L304.8461 280.6533
" />
<path d="M304.8461 280.6533
L304.7033 280.5818
" />
<path d="M304.7033 280.5818
L304.6319 280.4390
" />
<path d="M304.6319 280.4390
L304.6319 279.8676
" />
<path d="M304.6319 279.8676
L304.7033 279.7247
" />
<path d="M304.7033 279.7247
L304.8461 279.6533
" />
<path d="M304.8461 279.6533
L305.1319 279.6533
" />
<path d="M305.1319 279.6533
L305.2747 279.7247
" />
<path d="M305.2747 279.7247
L305.3461 279.8676
" />
<path d="M305.3461 279.8676
L305.3461 280.0104
" />
<path d="M305.3461 280.0104
L304.6319 280.1533
" />
<path d="M305.9890 280.5104
L306.0604 280.5818
" />
<path d="M306.0604 280.5818
L305.9890 280.6533
" />
<path d="M305.9890 280.6533
L305.9176 280.5818
" />
<path d="M305.9176 280.5818
L305.9890 280.5104
" />
<path d="M305.9890 280.5104
L305.9890 280.6533
" />
<path d="M305.9890 279.7247
L306.0604 279.7961
" />
<path d="M306.0604 279.7961
L305.9890 279.8676
" />
<path d="M305.9890 279.8676
L305.9176 279.7961
" />
<path d="M305.9176 279.7961
L305.9890 279.7247
" />
<path d="M305.9890 279.7247
L305.9890 279.8676
" />
<path d="M307.5319 280.2247
L308.2461 280.2247
" />
<path d="M307.3890 280.6533
L307.8890 279.1533
" />
<path d="M307.8890 279.1533
L308.3890 280.6533
" />
<path d="M308.7461 279.1533
L309.6747 279.1533
" />
<path d="M309.6747 279.1533
L309.1747 279.7247
" />
<path d="M309.1747 279.7247
L309.3890 279.7247
" />
<path d="M309.3890 279.7247
L309.5319 279.7961
" />
<path d="M309.5319 279.7961
L309.6033 279.8676
" />
<path d="M309.6033 279.8676
L309.6747 280.0104
" />
<path d="M309.6747 280.0104
L309.6747 280.3676
" />
<path d="M309.6747 280.3676
L309.6033 280.5104
" />
<path d="M309.6033 280.5104
L309.5319 280.5818
" />
<path d="M309.5319 280.5818
L309.3890 280.6533
" />
<path d="M309.3890 280.6533
L308.9604 280.6533
" />
<path d="M308.9604 280.6533
L308.8176 280.5818
" />
<path d="M308.8176 280.5818
L308.7461 280.5104
" />
</g></g>
<g style="fill:#000000; fill-opacity:0.0; 
stroke:#000000; stroke-width:0.0212; stroke-opacity:1; 
stroke-linecap:round; stroke-linejoin:round;">
</g>
<g style="fill:#000000; fill-opacity:0.0; 
stroke:#000000; stroke-width:0.1500; stroke-opacity:1; 
stroke-linecap:round; stroke-linejoin:round;">
<text x="385.9890" y="283.6522"
textLength="8.1893" font-size="2.0000" lengthAdjust="spacingAndGlyphs"
text-anchor="start" opacity="0">Id: 1/1</text>
<g class="stroked-text"><desc>Id: 1/1</desc>
<path d="M386.3461 283.4533
L386.3461 281.9533
" />
<path d="M387.7033 283.4533
L387.7033 281.9533
" />
<path d="M387.7033 283.3818
L387.5604 283.4533
" />
<path d="M387.5604 283.4533
L387.2747 283.4533
" />
<path d="M387.2747 283.4533
L387.1319 283.3818
" />
<path d="M387.1319 283.3818
L387.0604 283.3104
" />
<path d="M387.0604 283.3104
L386.9890 283.1676
" />
<path d="M386.9890 283.1676
L386.9890 282.7390
" />
<path d="M386.9890 282.7390
L387.0604 282.5961
" />
<path d="M387.0604 282.5961
L387.1319 282.5247
" />
<path d="M387.1319 282.5247
L387.2747 282.4533
" />
<path d="M387.2747 282.4533
L387.5604 282.4533
" />
<path d="M387.5604 282.4533
L387.7033 282.5247
" />
<path d="M388.4176 283.3104
L388.4890 283.3818
" />
<path d="M388.4890 283.3818
L388.4176 283.4533
" />
<path d="M388.4176 283.4533
L388.3461 283.3818
" />
<path d="M388.3461 283.3818
L388.4176 283.3104
" />
<path d="M388.4176 283.3104
L388.4176 283.4533
" />
<path d="M388.4176 282.5247
L388.4890 282.5961
" />
<path d="M388.4890 282.5961
L388.4176 282.6676
" />
<path d="M388.4176 282.6676
L388.3461 282.5961
" />
<path d="M388.3461 282.5961
L388.4176 282.5247
" />
<path d="M388.4176 282.5247
L388.4176 282.6676
" />
<path d="M390.8176 283.4533
L389.9604 283.4533
" />
<path d="M390.3890 283.4533
L390.3890 281.9533
" />
<path d="M390.3890 281.9533
L390.2461 282.1676
" />
<path d="M390.2461 282.1676
L390.1033 282.3104
" />
<path d="M390.1033 282.3104
L389.9604 282.3818
" />
<path d="M392.5319 281.8818
L391.2461 283.8104
" />
<path d="M393.8176 283.4533
L392.9604 283.4533
" />
<path d="M393.3890 283.4533
L393.3890 281.9533
" />
<path d="M393.3890 281.9533
L393.2461 282.1676
" />
<path d="M393.2461 282.1676
L393.1033 282.3104
" />
<path d="M393.1033 282.3104
L392.9604 282.3818
" />
</g></g>
<g style="fill:#000000; fill-opacity:0.0; 
stroke:#000000; stroke-width:0.0212; stroke-opacity:1; 
stroke-linecap:round; stroke-linejoin:round;">
</g>
<g style="fill:#000000; fill-opacity:0.0; 
stroke:#000000; stroke-width:0.1500; stroke-opacity:1; 
stroke-linecap:round; stroke-linejoin:round;">
<path d="M299.9890 274.5022
L407.9890 274.5022
" />
</g>
<g style="fill:#000000; fill-opacity:0.0; 
stroke:#000000; stroke-width:0.0212; stroke-opacity:1; 
stroke-linecap:round; stroke-linejoin:round;">
</g>
<g style="fill:#000000; fill-opacity:0.0; 
stroke:#000000; stroke-width:0.4000; stroke-opacity:1; 
stroke-linecap:round; stroke-linejoin:round;">
<text x="300.9890" y="277.3022"
textLength="9.1333" font-size="2.6667" lengthAdjust="spacingAndGlyphs"
text-anchor="start" opacity="0">Title: </text>
<g class="stroked-text"><desc>Title: </desc>
<path d="M301.4414 275.0370
L302.5842 275.0370
" />
<path d="M301.7628 277.0370
L302.0128 275.0370
" />
<path d="M303.0009 277.0370
L303.1676 275.7036
" />
<path d="M303.2509 275.0370
L303.1438 275.1322
" />
<path d="M303.1438 275.1322
L303.2271 275.2274
" />
<path d="M303.2271 275.2274
L303.3342 275.1322
" />
<path d="M303.3342 275.1322
L303.2509 275.0370
" />
<path d="M303.2509 275.0370
L303.2271 275.2274
" />
<path d="M303.8342 275.7036
L304.5961 275.7036
" />
<path d="M304.2033 275.0370
L303.9890 276.7512
" />
<path d="M303.9890 276.7512
L304.0604 276.9417
" />
<path d="M304.0604 276.9417
L304.2390 277.0370
" />
<path d="M304.2390 277.0370
L304.4295 277.0370
" />
<path d="M305.3819 277.0370
L305.2033 276.9417
" />
<path d="M305.2033 276.9417
L305.1319 276.7512
" />
<path d="M305.1319 276.7512
L305.3461 275.0370
" />
<path d="M306.9176 276.9417
L306.7152 277.0370
" />
<path d="M306.7152 277.0370
L306.3342 277.0370
" />
<path d="M306.3342 277.0370
L306.1557 276.9417
" />
<path d="M306.1557 276.9417
L306.0842 276.7512
" />
<path d="M306.0842 276.7512
L306.1795 275.9893
" />
<path d="M306.1795 275.9893
L306.2985 275.7989
" />
<path d="M306.2985 275.7989
L306.5009 275.7036
" />
<path d="M306.5009 275.7036
L306.8819 275.7036
" />
<path d="M306.8819 275.7036
L307.0604 275.7989
" />
<path d="M307.0604 275.7989
L307.1319 275.9893
" />
<path d="M307.1319 275.9893
L307.1080 276.1798
" />
<path d="M307.1080 276.1798
L306.1319 276.3703
" />
<path d="M307.8819 276.8465
L307.9652 276.9417
" />
<path d="M307.9652 276.9417
L307.8580 277.0370
" />
<path d="M307.8580 277.0370
L307.7747 276.9417
" />
<path d="M307.7747 276.9417
L307.8819 276.8465
" />
<path d="M307.8819 276.8465
L307.8580 277.0370
" />
<path d="M308.0128 275.7989
L308.0961 275.8941
" />
<path d="M308.0961 275.8941
L307.9890 275.9893
" />
<path d="M307.9890 275.9893
L307.9057 275.8941
" />
<path d="M307.9057 275.8941
L308.0128 275.7989
" />
<path d="M308.0128 275.7989
L307.9890 275.9893
" />
</g></g>
<g style="fill:#000000; fill-opacity:0.0; 
stroke:#000000; stroke-width:0.0212; stroke-opacity:1; 
stroke-linecap:round; stroke-linejoin:round;">
</g>
<g style="fill:#000000; fill-opacity:0.0; 
stroke:#000000; stroke-width:0.1500; stroke-opacity:1; 
stroke-linecap:round; stroke-linejoin:round;">
<text x="300.9890" y="273.4522"
textLength="33.1179" font-size="2.0000" lengthAdjust="spacingAndGlyphs"
text-anchor="start" opacity="0">File: HybridBoxNew.kicad_pcb</text>
<g class="stroked-text"><desc>File: HybridBoxNew.kicad_pcb</desc>
<path d="M301.8461 272.4676
L301.3461 272.4676
" />
<path d="M301.3461 273.2533
L301.3461 271.7533
" />
<path d="M301.3461 271.7533
L302.0604 271.7533
" />
<path d="M302.6319 273.2533
L302.6319 272.2533
" />
<path d="M302.6319 271.7533
L302.5604 271.8247
" />
<path d="M302.5604 271.8247
L302.6319 271.8961
" />
<path d="M302.6319 271.8961
L302.7033 271.8247
" />
<path d="M302.7033 271.8247
L302.6319 271.7533
" />
<path d="M302.6319 271.7533
L302.6319 271.8961
" />
<path d="M303.5604 273.2533
L303.4176 273.1818
" />
<path d="M303.4176 273.1818
L303.3461 273.0390
" />
<path d="M303.3461 273.0390
L303.3461 271.7533
" />
<path d="M304.7033 273.1818
L304.5604 273.2533
" />
<path d="M304.5604 273.2533
L304.2747 273.2533
" />
<path d="M304.2747 273.2533
L304.1319 273.1818
" />
<path d="M304.1319 273.1818
L304.0604 273.0390
" />
<path d="M304.0604 273.0390
L304.0604 272.4676
" />
<path d="M304.0604 272.4676
L304.1319 272.3247
" />
<path d="M304.1319 272.3247
L304.2747 272.2533
" />
<path d="M304.2747 272.2533
L304.5604 272.2533
" />
<path d="M304.5604 272.2533
L304.7033 272.3247
" />
<path d="M304.7033 272.3247
L304.7747 272.4676
" />
<path d="M304.7747 272.4676
L304.7747 272.6104
" />
<path d="M304.7747 272.6104
L304.0604 272.7533
" />
<path d="M305.4176 273.1104
L305.4890 273.1818
" />
<path d="M305.4890 273.1818
L305.4176 273.2533
" />
<path d="M305.4176 273.2533
L305.3461 273.1818
" />
<path d="M305.3461 273.1818
L305.4176 273.1104
" />
<path d="M305.4176 273.1104
L305.4176 273.2533
" />
<path d="M305.4176 272.3247
L305.4890 272.3961
" />
<path d="M305.4890 272.3961
L305.4176 272.4676
" />
<path d="M305.4176 272.4676
L305.3461 272.3961
" />
<path d="M305.3461 272.3961
L305.4176 272.3247
" />
<path d="M305.4176 272.3247
L305.4176 272.4676
" />
<path d="M307.0319 273.2533
L307.0319 271.7533
" />
<path d="M307.0319 272.4676
L307.8890 272.4676
" />
<path d="M307.8890 273.2533
L307.8890 271.7533
" />
<path d="M308.4604 272.2533
L308.8176 273.2533
" />
<path d="M309.1747 272.2533
L308.8176 273.2533
" />
<path d="M308.8176 273.2533
L308.6747 273.6104
" />
<path d="M308.6747 273.6104
L308.6033 273.6818
" />
<path d="M308.6033 273.6818
L308.4604 273.7533
" />
<path d="M309.7461 273.2533
L309.7461 271.7533
" />
<path d="M309.7461 272.3247
L309.8890 272.2533
" />
<path d="M309.8890 272.2533
L310.1747 272.2533
" />
<path d="M310.1747 272.2533
L310.3176 272.3247
" />
<path d="M310.3176 272.3247
L310.3890 272.3961
" />
<path d="M310.3890 272.3961
L310.4604 272.5390
" />
<path d="M310.4604 272.5390
L310.4604 272.9676
" />
<path d="M310.4604 272.9676
L310.3890 273.1104
" />
<path d="M310.3890 273.1104
L310.3176 273.1818
" />
<path d="M310.3176 273.1818
L310.1747 273.2533
" />
<path d="M310.1747 273.2533
L309.8890 273.2533
" />
<path d="M309.8890 273.2533
L309.7461 273.1818
" />
<path d="M311.1033 273.2533
L311.1033 272.2533
" />
<path d="M311.1033 272.5390
L311.1747 272.3961
" />
<path d="M311.1747 272.3961
L311.2461 272.3247
" />
<path d="M311.2461 272.3247
L311.3890 272.2533
" />
<path d="M311.3890 272.2533
L311.5319 272.2533
" />
<path d="M312.0319 273.2533
L312.0319 272.2533
" />
<path d="M312.0319 271.7533
L311.9604 271.8247
" />
<path d="M311.9604 271.8247
L312.0319 271.8961
" />
<path d="M312.0319 271.8961
L312.1033 271.8247
" />
<path d="M312.1033 271.8247
L312.0319 271.7533
" />
<path d="M312.0319 271.7533
L312.0319 271.8961
" />
<path d="M313.3890 273.2533
L313.3890 271.7533
" />
<path d="M313.3890 273.1818
L313.2461 273.2533
" />
<path d="M313.2461 273.2533
L312.9604 273.2533
" />
<path d="M312.9604 273.2533
L312.8176 273.1818
" />
<path d="M312.8176 273.1818
L312.7461 273.1104
" />
<path d="M312.7461 273.1104
L312.6747 272.9676
" />
<path d="M312.6747 272.9676
L312.6747 272.5390
" />
<path d="M312.6747 272.5390
L312.7461 272.3961
" />
<path d="M312.7461 272.3961
L312.8176 272.3247
" />
<path d="M312.8176 272.3247
L312.9604 272.2533
" />
<path d="M312.9604 272.2533
L313.2461 272.2533
" />
<path d="M313.2461 272.2533
L313.3890 272.3247
" />
<path d="M314.6033 272.4676
L314.8176 272.5390
" />
<path d="M314.8176 272.5390
L314.8890 272.6104
" />
<path d="M314.8890 272.6104
L314.9604 272.7533
" />
<path d="M314.9604 272.7533
L314.9604 272.9676
" />
<path d="M314.9604 272.9676
L314.8890 273.1104
" />
<path d="M314.8890 273.1104
L314.8176 273.1818
" />
<path d="M314.8176 273.1818
L314.6747 273.2533
" />
<path d="M314.6747 273.2533
L314.1033 273.2533
" />
<path d="M314.1033 273.2533
L314.1033 271.7533
" />
<path d="M314.1033 271.7533
L314.6033 271.7533
" />
<path d="M314.6033 271.7533
L314.7461 271.8247
" />
<path d="M314.7461 271.8247
L314.8176 271.8961
" />
<path d="M314.8176 271.8961
L314.8890 272.0390
" />
<path d="M314.8890 272.0390
L314.8890 272.1818
" />
<path d="M314.8890 272.1818
L314.8176 272.3247
" />
<path d="M314.8176 272.3247
L314.7461 272.3961
" />
<path d="M314.7461 272.3961
L314.6033 272.4676
" />
<path d="M314.6033 272.4676
L314.1033 272.4676
" />
<path d="M315.8176 273.2533
L315.6747 273.1818
" />
<path d="M315.6747 273.1818
L315.6033 273.1104
" />
<path d="M315.6033 273.1104
L315.5319 272.9676
" />
<path d="M315.5319 272.9676
L315.5319 272.5390
" />
<path d="M315.5319 272.5390
L315.6033 272.3961
" />
<path d="M315.6033 272.3961
L315.6747 272.3247
" />
<path d="M315.6747 272.3247
L315.8176 272.2533
" />
<path d="M315.8176 272.2533
L316.0319 272.2533
" />
<path d="M316.0319 272.2533
L316.1747 272.3247
" />
<path d="M316.1747 272.3247
L316.2461 272.3961
" />
<path d="M316.2461 272.3961
L316.3176 272.5390
" />
<path d="M316.3176 272.5390
L316.3176 272.9676
" />
<path d="M316.3176 272.9676
L316.2461 273.1104
" />
<path d="M316.2461 273.1104
L316.1747 273.1818
" />
<path d="M316.1747 273.1818
L316.0319 273.2533
" />
<path d="M316.0319 273.2533
L315.8176 273.2533
" />
<path d="M316.8176 273.2533
L317.6033 272.2533
" />
<path d="M316.8176 272.2533
L317.6033 273.2533
" />
<path d="M318.1747 273.2533
L318.1747 271.7533
" />
<path d="M318.1747 271.7533
L319.0319 273.2533
" />
<path d="M319.0319 273.2533
L319.0319 271.7533
" />
<path d="M320.3176 273.1818
L320.1747 273.2533
" />
<path d="M320.1747 273.2533
L319.8890 273.2533
" />
<path d="M319.8890 273.2533
L319.7461 273.1818
" />
<path d="M319.7461 273.1818
L319.6747 273.0390
" />
<path d="M319.6747 273.0390
L319.6747 272.4676
" />
<path d="M319.6747 272.4676
L319.7461 272.3247
" />
<path d="M319.7461 272.3247
L319.8890 272.2533
" />
<path d="M319.8890 272.2533
L320.1747 272.2533
" />
<path d="M320.1747 272.2533
L320.3176 272.3247
" />
<path d="M320.3176 272.3247
L320.3890 272.4676
" />
<path d="M320.3890 272.4676
L320.3890 272.6104
" />
<path d="M320.3890 272.6104
L319.6747 272.7533
" />
<path d="M320.8890 272.2533
L321.1747 273.2533
" />
<path d="M321.1747 273.2533
L321.4604 272.5390
" />
<path d="M321.4604 272.5390
L321.7461 273.2533
" />
<path d="M321.7461 273.2533
L322.0319 272.2533
" />
<path d="M322.6033 273.1104
L322.6747 273.1818
" />
<path d="M322.6747 273.1818
L322.6033 273.2533
" />
<path d="M322.6033 273.2533
L322.5319 273.1818
" />
<path d="M322.5319 273.1818
L322.6033 273.1104
" />
<path d="M322.6033 273.1104
L322.6033 273.2533
" />
<path d="M323.3176 273.2533
L323.3176 271.7533
" />
<path d="M323.4604 272.6818
L323.8890 273.2533
" />
<path d="M323.8890 272.2533
L323.3176 272.8247
" />
<path d="M324.5319 273.2533
L324.5319 272.2533
" />
<path d="M324.5319 271.7533
L324.4604 271.8247
" />
<path d="M324.4604 271.8247
L324.5319 271.8961
" />
<path d="M324.5319 271.8961
L324.6033 271.8247
" />
<path d="M324.6033 271.8247
L324.5319 271.7533
" />
<path d="M324.5319 271.7533
L324.5319 271.8961
" />
<path d="M325.8890 273.1818
L325.7461 273.2533
" />
<path d="M325.7461 273.2533
L325.4604 273.2533
" />
<path d="M325.4604 273.2533
L325.3176 273.1818
" />
<path d="M325.3176 273.1818
L325.2461 273.1104
" />
<path d="M325.2461 273.1104
L325.1747 272.9676
" />
<path d="M325.1747 272.9676
L325.1747 272.5390
" />
<path d="M325.1747 272.5390
L325.2461 272.3961
" />
<path d="M325.2461 272.3961
L325.3176 272.3247
" />
<path d="M325.3176 272.3247
L325.4604 272.2533
" />
<path d="M325.4604 272.2533
L325.7461 272.2533
" />
<path d="M325.7461 272.2533
L325.8890 272.3247
" />
<path d="M327.1747 273.2533
L327.1747 272.4676
" />
<path d="M327.1747 272.4676
L327.1033 272.3247
" />
<path d="M327.1033 272.3247
L326.9604 272.2533
" />
<path d="M326.9604 272.2533
L326.6747 272.2533
" />
<path d="M326.6747 272.2533
L326.5319 272.3247
" />
<path d="M327.1747 273.1818
L327.0319 273.2533
" />
<path d="M327.0319 273.2533
L326.6747 273.2533
" />
<path d="M326.6747 273.2533
L326.5319 273.1818
" />
<path d="M326.5319 273.1818
L326.4604 273.0390
" />
<path d="M326.4604 273.0390
L326.4604 272.8961
" />
<path d="M326.4604 272.8961
L326.5319 272.7533
" />
<path d="M326.5319 272.7533
L326.6747 272.6818
" />
<path d="M326.6747 272.6818
L327.0319 272.6818
" />
<path d="M327.0319 272.6818
L327.1747 272.6104
" />
<path d="M328.5319 273.2533
L328.5319 271.7533
" />
<path d="M328.5319 273.1818
L328.3890 273.2533
" />
<path d="M328.3890 273.2533
L328.1033 273.2533
" />
<path d="M328.1033 273.2533
L327.9604 273.1818
" />
<path d="M327.9604 273.1818
L327.8890 273.1104
" />
<path d="M327.8890 273.1104
L327.8176 272.9676
" />
<path d="M327.8176 272.9676
L327.8176 272.5390
" />
<path d="M327.8176 272.5390
L327.8890 272.3961
" />
<path d="M327.8890 272.3961
L327.9604 272.3247
" />
<path d="M327.9604 272.3247
L328.1033 272.2533
" />
<path d="M328.1033 272.2533
L328.3890 272.2533
" />
<path d="M328.3890 272.2533
L328.5319 272.3247
" />
<path d="M328.8890 273.3961
L330.0319 273.3961
" />
<path d="M330.3890 272.2533
L330.3890 273.7533
" />
<path d="M330.3890 272.3247
L330.5319 272.2533
" />
<path d="M330.5319 272.2533
L330.8176 272.2533
" />
<path d="M330.8176 272.2533
L330.9604 272.3247
" />
<path d="M330.9604 272.3247
L331.0319 272.3961
" />
<path d="M331.0319 272.3961
L331.1033 272.5390
" />
<path d="M331.1033 272.5390
L331.1033 272.9676
" />
<path d="M331.1033 272.9676
L331.0319 273.1104
" />
<path d="M331.0319 273.1104
L330.9604 273.1818
" />
<path d="M330.9604 273.1818
L330.8176 273.2533
" />
<path d="M330.8176 273.2533
L330.5319 273.2533
" />
<path d="M330.5319 273.2533
L330.3890 273.1818
" />
<path d="M332.3890 273.1818
L332.2461 273.2533
" />
<path d="M332.2461 273.2533
L331.9604 273.2533
" />
<path d="M331.9604 273.2533
L331.8176 273.1818
" />
<path d="M331.8176 273.1818
L331.7461 273.1104
" />
<path d="M331.7461 273.1104
L331.6747 272.9676
" />
<path d="M331.6747 272.9676
L331.6747 272.5390
" />
<path d="M331.6747 272.5390
L331.7461 272.3961
" />
<path d="M331.7461 272.3961
L331.8176 272.3247
" />
<path d="M331.8176 272.3247
L331.9604 272.2533
" />
<path d="M331.9604 272.2533
L332.2461 272.2533
" />
<path d="M332.2461 272.2533
L332.3890 272.3247
" />
<path d="M333.0319 273.2533
L333.0319 271.7533
" />
<path d="M333.0319 272.3247
L333.1747 272.2533
" />
<path d="M333.1747 272.2533
L333.4604 272.2533
" />
<path d="M333.4604 272.2533
L333.6033 272.3247
" />
<path d="M333.6033 272.3247
L333.6747 272.3961
" />
<path d="M333.6747 272.3961
L333.7461 272.5390
" />
<path d="M333.7461 272.5390
L333.7461 272.9676
" />
<path d="M333.7461 272.9676
L333.6747 273.1104
" />
<path d="M333.6747 273.1104
L333.6033 273.1818
" />
<path d="M333.6033 273.1818
L333.4604 273.2533
" />
<path d="M333.4604 273.2533
L333.1747 273.2533
" />
<path d="M333.1747 273.2533
L333.0319 273.1818
" />
</g></g>
<g style="fill:#000000; fill-opacity:0.0; 
stroke:#000000; stroke-width:0.0212; stroke-opacity:1; 
stroke-linecap:round; stroke-linejoin:round;">
</g>
<g style="fill:#000000; fill-opacity:0.0; 
stroke:#000000; stroke-width:0.1500; stroke-opacity:1; 
stroke-linecap:round; stroke-linejoin:round;">
<path d="M299.9890 268.5022
L407.9890 268.5022
" />
</g>
<g style="fill:#000000; fill-opacity:0.0; 
stroke:#000000; stroke-width:0.0212; stroke-opacity:1; 
stroke-linecap:round; stroke-linejoin:round;">
</g>
<g style="fill:#000000; fill-opacity:0.0; 
stroke:#000000; stroke-width:0.1500; stroke-opacity:1; 
stroke-linecap:round; stroke-linejoin:round;">
<text x="300.9890" y="270.7522"
textLength="7.9036" font-size="2.0000" lengthAdjust="spacingAndGlyphs"
text-anchor="start" opacity="0">Sheet: </text>
<g class="stroked-text"><desc>Sheet: </desc>
<path d="M301.2747 270.4818
L301.4890 270.5533
" />
<path d="M301.4890 270.5533
L301.8461 270.5533
" />
<path d="M301.8461 270.5533
L301.9890 270.4818
" />
<path d="M301.9890 270.4818
L302.0604 270.4104
" />
<path d="M302.0604 270.4104
L302.1319 270.2676
" />
<path d="M302.1319 270.2676
L302.1319 270.1247
" />
<path d="M302.1319 270.1247
L302.0604 269.9818
" />
<path d="M302.0604 269.9818
L301.9890 269.9104
" />
<path d="M301.9890 269.9104
L301.8461 269.8390
" />
<path d="M301.8461 269.8390
L301.5604 269.7676
" />
<path d="M301.5604 269.7676
L301.4176 269.6961
" />
<path d="M301.4176 269.6961
L301.3461 269.6247
" />
<path d="M301.3461 269.6247
L301.2747 269.4818
" />
<path d="M301.2747 269.4818
L301.2747 269.3390
" />
<path d="M301.2747 269.3390
L301.3461 269.1961
" />
<path d="M301.3461 269.1961
L301.4176 269.1247
" />
<path d="M301.4176 269.1247
L301.5604 269.0533
" />
<path d="M301.5604 269.0533
L301.9176 269.0533
" />
<path d="M301.9176 269.0533
L302.1319 269.1247
" />
<path d="M302.7747 270.5533
L302.7747 269.0533
" />
<path d="M303.4176 270.5533
L303.4176 269.7676
" />
<path d="M303.4176 269.7676
L303.3461 269.6247
" />
<path d="M303.3461 269.6247
L303.2033 269.5533
" />
<path d="M303.2033 269.5533
L302.9890 269.5533
" />
<path d="M302.9890 269.5533
L302.8461 269.6247
" />
<path d="M302.8461 269.6247
L302.7747 269.6961
" />
<path d="M304.7033 270.4818
L304.5604 270.5533
" />
<path d="M304.5604 270.5533
L304.2747 270.5533
" />
<path d="M304.2747 270.5533
L304.1319 270.4818
" />
<path d="M304.1319 270.4818
L304.0604 270.3390
" />
<path d="M304.0604 270.3390
L304.0604 269.7676
" />
<path d="M304.0604 269.7676
L304.1319 269.6247
" />
<path d="M304.1319 269.6247
L304.2747 269.5533
" />
<path d="M304.2747 269.5533
L304.5604 269.5533
" />
<path d="M304.5604 269.5533
L304.7033 269.6247
" />
<path d="M304.7033 269.6247
L304.7747 269.7676
" />
<path d="M304.7747 269.7676
L304.7747 269.9104
" />
<path d="M304.7747 269.9104
L304.0604 270.0533
" />
<path d="M305.9890 270.4818
L305.8461 270.5533
" />
<path d="M305.8461 270.5533
L305.5604 270.5533
" />
<path d="M305.5604 270.5533
L305.4176 270.4818
" />
<path d="M305.4176 270.4818
L305.3461 270.3390
" />
<path d="M305.3461 270.3390
L305.3461 269.7676
" />
<path d="M305.3461 269.7676
L305.4176 269.6247
" />
<path d="M305.4176 269.6247
L305.5604 269.5533
" />
<path d="M305.5604 269.5533
L305.8461 269.5533
" />
<path d="M305.8461 269.5533
L305.9890 269.6247
" />
<path d="M305.9890 269.6247
L306.0604 269.7676
" />
<path d="M306.0604 269.7676
L306.0604 269.9104
" />
<path d="M306.0604 269.9104
L305.3461 270.0533
" />
<path d="M306.4890 269.5533
L307.0604 269.5533
" />
<path d="M306.7033 269.0533
L306.7033 270.3390
" />
<path d="M306.7033 270.3390
L306.7747 270.4818
" />
<path d="M306.7747 270.4818
L306.9176 270.5533
" />
<path d="M306.9176 270.5533
L307.0604 270.5533
" />
<path d="M307.5604 270.4104
L307.6319 270.4818
" />
<path d="M307.6319 270.4818
L307.5604 270.5533
" />
<path d="M307.5604 270.5533
L307.4890 270.4818
" />
<path d="M307.4890 270.4818
L307.5604 270.4104
" />
<path d="M307.5604 270.4104
L307.5604 270.5533
" />
<path d="M307.5604 269.6247
L307.6319 269.6961
" />
<path d="M307.6319 269.6961
L307.5604 269.7676
" />
<path d="M307.5604 269.7676
L307.4890 269.6961
" />
<path d="M307.4890 269.6961
L307.5604 269.6247
" />
<path d="M307.5604 269.6247
L307.5604 269.7676
" />
</g></g>
<g style="fill:#000000; fill-opacity:0.0; 
stroke:#000000; stroke-width:0.0212; stroke-opacity:1; 
stroke-linecap:round; stroke-linejoin:round;">
</g>
<g style="fill:#000000; fill-opacity:0.0; 
stroke:#000000; stroke-width:0.3000; stroke-opacity:1; 
stroke-linecap:round; stroke-linejoin:round;">
<text x="300.9890" y="267.7522"
textLength="0.7500" font-size="2.0000" lengthAdjust="spacingAndGlyphs"
text-anchor="start" opacity="0"></text>
<g class="stroked-text"><desc></desc>
</g></g>
<g style="fill:#000000; fill-opacity:0.0; 
stroke:#000000; stroke-width:0.0212; stroke-opacity:1; 
stroke-linecap:round; stroke-linejoin:round;">
</g>
<g style="fill:#000000; fill-opacity:0.0; 
stroke:#000000; stroke-width:0.1500; stroke-opacity:1; 
stroke-linecap:round; stroke-linejoin:round;">
<text x="300.9890" y="264.7522"
textLength="0.3750" font-size="2.0000" lengthAdjust="spacingAndGlyphs"
text-anchor="start" opacity="0"></text>
<g class="stroked-text"><desc></desc>
</g></g>
<g style="fill:#000000; fill-opacity:0.0; 
stroke:#000000; stroke-width:0.0212; stroke-opacity:1; 
stroke-linecap:round; stroke-linejoin:round;">
</g>
<g style="fill:#000000; fill-opacity:0.0; 
stroke:#000000; stroke-width:0.1500; stroke-opacity:1; 
stroke-linecap:round; stroke-linejoin:round;">
<text x="300.9890" y="261.7522"
textLength="0.3750" font-size="2.0000" lengthAdjust="spacingAndGlyphs"
text-anchor="start" opacity="0"></text>
<g class="stroked-text"><desc></desc>
</g></g>
<g style="fill:#000000; fill-opacity:0.0; 
stroke:#000000; stroke-width:0.0212; stroke-opacity:1; 
stroke-linecap:round; stroke-linejoin:round;">
</g>
<g style="fill:#000000; fill-opacity:0.0; 
stroke:#000000; stroke-width:0.1500; stroke-opacity:1; 
stroke-linecap:round; stroke-linejoin:round;">
<text x="300.9890" y="258.7522"
textLength="0.3750" font-size="2.0000" lengthAdjust="spacingAndGlyphs"
text-anchor="start" opacity="0"></text>
<g class="stroked-text"><desc></desc>
</g></g>
<g style="fill:#000000; fill-opacity:0.0; 
stroke:#000000; stroke-width:0.0212; stroke-opacity:1; 
stroke-linecap:round; stroke-linejoin:round;">
</g>
<g style="fill:#000000; fill-opacity:0.0; 
stroke:#000000; stroke-width:0.1500; stroke-opacity:1; 
stroke-linecap:round; stroke-linejoin:round;">
<text x="300.9890" y="255.7522"
textLength="0.3750" font-size="2.0000" lengthAdjust="spacingAndGlyphs"
text-anchor="start" opacity="0"></text>
<g class="stroked-text"><desc></desc>
</g></g>
<g style="fill:#000000; fill-opacity:0.0; 
stroke:#000000; stroke-width:0.0212; stroke-opacity:1; 
stroke-linecap:round; stroke-linejoin:round;">
</g>
<g style="fill:#000000; fill-opacity:0.0; 
stroke:#000000; stroke-width:0.1500; stroke-opacity:1; 
stroke-linecap:round; stroke-linejoin:round;">
<path d="M319.9890 278.5022
L319.9890 281.5022
" />
</g>
<g style="fill:#000000; fill-opacity:0.0; 
stroke:#000000; stroke-width:0.0212; stroke-opacity:1; 
stroke-linecap:round; stroke-linejoin:round;">
</g>
<g style="fill:#000000; fill-opacity:0.0; 
stroke:#000000; stroke-width:0.1500; stroke-opacity:1; 
stroke-linecap:round; stroke-linejoin:round;">
<path d="M383.9890 278.5022
L383.9890 285.0022
" />
</g>
<g style="fill:#FF26E2; fill-opacity:0.0; 
stroke:#FF26E2; stroke-width:0.1500; stroke-opacity:1; 
stroke-linecap:round; stroke-linejoin:round;">
</g>
<g style="fill:#FF26E2; fill-opacity:0.0; 
stroke:#FF26E2; stroke-width:0.0500; stroke-opacity:1; 
stroke-linecap:round; stroke-linejoin:round;">
<path d="M255.3430 99.2634
L255.3430 85.2634
" />
<path d="M255.3430 85.2634
L241.3430 85.2634
" />
<path d="M241.3430 99.2634
L255.3430 99.2634
" />
<path d="M241.3430 85.2634
L241.3430 99.2634
" />
<circle cx="303.7550" cy="152.1700" r="2.1500" /> 
<circle cx="268.0350" cy="107.1300" r="2.1500" /> 
<path d="M237.6686 124.4790
L237.6686 110.4790
" />
<path d="M237.6686 110.4790
L223.6686 110.4790
" />
<path d="M223.6686 124.4790
L237.6686 124.4790
" />
<path d="M223.6686 110.4790
L223.6686 124.4790
" />
<circle cx="190.8600" cy="161.1500" r="2.1500" /> 
<path d="M244.7398 149.6014
L244.7398 135.6014
" />
<path d="M244.7398 135.6014
L230.7398 135.6014
" />
<path d="M230.7398 149.6014
L244.7398 149.6014
" />
<path d="M230.7398 135.6014
L230.7398 149.6014
" />
<path d="M270.9569 55.1445
L270.9569 41.1445
" />
<path d="M270.9569 41.1445
L256.9569 41.1445
" />
<path d="M256.9569 55.1445
L270.9569 55.1445
" />
<path d="M256.9569 41.1445
L256.9569 55.1445
" />
<path d="M306.0117 76.3485
L306.0117 62.3485
" />
<path d="M306.0117 62.3485
L292.0117 62.3485
" />
<path d="M292.0117 76.3485
L306.0117 76.3485
" />
<path d="M292.0117 62.3485
L292.0117 76.3485
" />
<path d="M218.8362 140.5834
L218.8362 126.5834
" />
<path d="M218.8362 126.5834
L204.8362 126.5834
" />
<path d="M204.8362 140.5834
L218.8362 140.5834
" />
<path d="M204.8362 126.5834
L204.8362 140.5834
" />
<path d="M277.8529 80.8137
L277.8529 66.8137
" />
<path d="M277.8529 66.8137
L263.8529 66.8137
" />
<path d="M263.8529 80.8137
L277.8529 80.8137
" />
<path d="M263.8529 66.8137
L263.8529 80.8137
" />
<path d="M299.1157 50.6793
L299.1157 36.6793
" />
<path d="M299.1157 36.6793
L285.1157 36.6793
" />
<path d="M285.1157 50.6793
L299.1157 50.6793
" />
<path d="M285.1157 36.6793
L285.1157 50.6793
" />
<path d="M262.6351 128.8475
L262.6351 114.8475
" />
<path d="M262.6351 114.8475
L248.6351 114.8475
" />
<path d="M248.6351 128.8475
L262.6351 128.8475
" />
<path d="M248.6351 114.8475
L248.6351 128.8475
" />
<path d="M221.9075 167.7058
L221.9075 153.7058
" />
<path d="M221.9075 153.7058
L207.9075 153.7058
" />
<path d="M207.9075 167.7058
L221.9075 167.7058
" />
<path d="M207.9075 153.7058
L207.9075 167.7058
" />
<path d="M223.1000 70.8050
L223.1000 64.6550
" />
<path d="M223.1000 64.6550
L219.5000 64.6550
" />
<path d="M219.5000 70.8050
L223.1000 70.8050
" />
<path d="M219.5000 64.6550
L219.5000 70.8050
" />
<circle cx="303.8200" cy="55.6834" r="2.1500" /> 
<circle cx="190.8600" cy="42.6100" r="2.1500" /> 
<circle cx="198.0350" cy="107.1300" r="2.1500" /> 
<path d="M248.4472 73.5951
L248.4472 59.5951
" />
<path d="M248.4472 59.5951
L234.4472 59.5951
" />
<path d="M234.4472 73.5951
L248.4472 73.5951
" />
<path d="M234.4472 59.5951
L234.4472 73.5951
" />
<circle cx="318.0350" cy="107.1300" r="2.1500" /> 
<path d="M335.4916 85.0511
L335.4916 71.0511
" />
<path d="M335.4916 71.0511
L321.4916 71.0511
" />
<path d="M321.4916 85.0511
L335.4916 85.0511
" />
<path d="M321.4916 71.0511
L321.4916 85.0511
" />
<path d="M328.5956 59.3819
L328.5956 45.3819
" />
<path d="M328.5956 45.3819
L314.5956 45.3819
" />
<path d="M314.5956 59.3819
L328.5956 59.3819
" />
<path d="M314.5956 45.3819
L314.5956 59.3819
" />
<path d="M218.8362 140.5834
L218.8362 126.5834
" />
<path d="M218.8362 126.5834
L204.8362 126.5834
" />
<path d="M204.8362 140.5834
L218.8362 140.5834
" />
<path d="M204.8362 126.5834
L204.8362 140.5834
" />
<path d="M248.4472 73.5951
L248.4472 59.5951
" />
<path d="M248.4472 59.5951
L234.4472 59.5951
" />
<path d="M234.4472 73.5951
L248.4472 73.5951
" />
<path d="M234.4472 59.5951
L234.4472 73.5951
" />
<path d="M262.6351 128.8475
L262.6351 114.8475
" />
<path d="M262.6351 114.8475
L248.6351 114.8475
" />
<path d="M248.6351 128.8475
L262.6351 128.8475
" />
<path d="M248.6351 114.8475
L248.6351 128.8475
" />
<path d="M306.0117 76.3485
L306.0117 62.3485
" />
<path d="M306.0117 62.3485
L292.0117 62.3485
" />
<path d="M292.0117 76.3485
L306.0117 76.3485
" />
<path d="M292.0117 62.3485
L292.0117 76.3485
" />
<path d="M299.1157 50.6793
L299.1157 36.6793
" />
<path d="M299.1157 36.6793
L285.1157 36.6793
" />
<path d="M285.1157 50.6793
L299.1157 50.6793
" />
<path d="M285.1157 36.6793
L285.1157 50.6793
" />
<path d="M277.8529 80.8137
L277.8529 66.8137
" />
<path d="M277.8529 66.8137
L263.8529 66.8137
" />
<path d="M263.8529 80.8137
L277.8529 80.8137
" />
<path d="M263.8529 66.8137
L263.8529 80.8137
" />
<path d="M237.6686 124.4790
L237.6686 110.4790
" />
<path d="M237.6686 110.4790
L223.6686 110.4790
" />
<path d="M223.6686 124.4790
L237.6686 124.4790
" />
<path d="M223.6686 110.4790
L223.6686 124.4790
" />
<path d="M270.9569 55.1445
L270.9569 41.1445
" />
<path d="M270.9569 41.1445
L256.9569 41.1445
" />
<path d="M256.9569 55.1445
L270.9569 55.1445
" />
<path d="M256.9569 41.1445
L256.9569 55.1445
" />
<path d="M244.7398 149.6014
L244.7398 135.6014
" />
<path d="M244.7398 135.6014
L230.7398 135.6014
" />
<path d="M230.7398 149.6014
L244.7398 149.6014
" />
<path d="M230.7398 135.6014
L230.7398 149.6014
" />
<path d="M255.3430 99.2634
L255.3430 85.2634
" />
<path d="M255.3430 85.2634
L241.3430 85.2634
" />
<path d="M241.3430 99.2634
L255.3430 99.2634
" />
<path d="M241.3430 85.2634
L241.3430 99.2634
" />
<path d="M221.9075 167.7058
L221.9075 153.7058
" />
<path d="M221.9075 153.7058
L207.9075 153.7058
" />
<path d="M207.9075 167.7058
L221.9075 167.7058
" />
<path d="M207.9075 153.7058
L207.9075 167.7058
" />
<path d="M335.4916 85.0511
L335.4916 71.0511
" />
<path d="M335.4916 71.0511
L321.4916 71.0511
" />
<path d="M321.4916 85.0511
L335.4916 85.0511
" />
<path d="M321.4916 71.0511
L321.4916 85.0511
" />
<path d="M328.5956 59.3819
L328.5956 45.3819
" />
<path d="M328.5956 45.3819
L314.5956 45.3819
" />
<path d="M314.5956 59.3819
L328.5956 59.3819
" />
<path d="M314.5956 45.3819
L314.5956 59.3819
" />
<g >
</g>
<g >
</g>
<g >
</g>
<g >
</g>
<g >
</g>
<g >
</g>
<g >
</g>
<g >
</g>
<g >
</g>
<g >
</g>
<g >
</g>
<g >
</g>
<g >
</g>
<g >
</g>
<g >
</g>
<g >
</g>
<g >
</g>
<g >
</g>
<g >
</g>
<g >
</g>
<g >
</g>
<g >
</g>
<g >
</g>
<g >
</g>
<g >
</g>
<g >
</g>
<g >
</g>
<g >
</g>
<g >
</g>
<g >
</g>
<g >
</g>
<g >
</g>
<g >
</g>
<g >
</g>
<g >
</g>
<g >
</g>
<g >
</g>
<g >
</g>
<g >
</g>
<g >
</g>
<g >
</g>
<g >
</g>
<g >
</g>
<g >
</g>
<g >
</g>
<g >
</g>
<g >
</g>
<g >
</g>
<g >
</g>
<g >
</g>
<g >
</g>
<g >
</g>
<g >
</g>
<g >
</g>
<g >
</g>
<g >
</g>
<g >
</g>
<g >
</g>
<g >
</g>
<g >
</g>
<g >
</g>
<g >
</g>
<g >
</g>
<g >
</g>
<g >
</g>
<g >
</g>
<g >
</g>
<g >
</g>
<g >
</g>
<g >
</g>
</g>
<g style="fill:#000000; fill-opacity:0.0; 
stroke:#000000; stroke-width:0.0500; stroke-opacity:1; 
stroke-linecap:round; stroke-linejoin:round;">
</g>
<g style="fill:#D0D2CD; fill-opacity:0.0; 
stroke:#D0D2CD; stroke-width:0.0500; stroke-opacity:1; 
stroke-linecap:round; stroke-linejoin:round;">
</g>
<g style="fill:#D0D2CD; fill-opacity:0.0; 
stroke:#D0D2CD; stroke-width:0.1000; stroke-opacity:1; 
stroke-linecap:round; stroke-linejoin:round;">
<path d="M253.5188 52.1601 A0.3501 0.3501 0.0 0 0 253.8688 51.8100" />
</g>
<g style="fill:#D0D2CD; fill-opacity:0.0; 
stroke:#D0D2CD; stroke-width:0.2000; stroke-opacity:1; 
stroke-linecap:round; stroke-linejoin:round;">
<path d="M213.6900 50.8900 A0.4000 0.4000 0.0 0 0 213.2900 50.4900" />
</g>
<g style="fill:#D0D2CD; fill-opacity:0.0; 
stroke:#D0D2CD; stroke-width:0.1000; stroke-opacity:1; 
stroke-linecap:round; stroke-linejoin:round;">
<path d="M186.1200 45.0200
L186.1200 158.7400
" />
<path d="M338.8200 45.0200
L338.8200 158.7400
" />
<path d="M197.3700 169.9900
L327.5700 169.9900
" />
</g>
<g style="fill:#D0D2CD; fill-opacity:0.0; 
stroke:#D0D2CD; stroke-width:0.2000; stroke-opacity:1; 
stroke-linecap:round; stroke-linejoin:round;">
<path d="M213.2900 52.4200 A0.4000 0.4000 0.0 0 0 213.6900 52.0200" />
<path d="M201.4100 50.4900 A0.4000 0.4000 0.0 0 0 201.0100 50.8900" />
<path d="M201.0100 52.0200
L201.0100 50.8900
" />
</g>
<g style="fill:#D0D2CD; fill-opacity:0.0; 
stroke:#D0D2CD; stroke-width:0.1000; stroke-opacity:1; 
stroke-linecap:round; stroke-linejoin:round;">
<path d="M253.8688 51.8100
L253.8350 34.1275
" />
</g>
<g style="fill:#D0D2CD; fill-opacity:0.0; 
stroke:#D0D2CD; stroke-width:0.2000; stroke-opacity:1; 
stroke-linecap:round; stroke-linejoin:round;">
<path d="M201.0100 52.0200 A0.4000 0.4000 0.0 0 0 201.4100 52.4200" />
<path d="M213.2900 52.4200
L201.4100 52.4200
" />
<path d="M213.6900 50.8900
L213.6900 52.0200
" />
<path d="M201.4100 50.4900
L213.2900 50.4900
" />
</g>
<g style="fill:#D0D2CD; fill-opacity:0.0; 
stroke:#D0D2CD; stroke-width:0.1000; stroke-opacity:1; 
stroke-linecap:round; stroke-linejoin:round;">
<path d="M254.1850 33.7775 A0.3500 0.3500 0.0 0 0 253.8350 34.1275" />
<path d="M197.3700 33.7700 A11.2500 11.2500 0.0 0 0 186.1200 45.0200" />
<path d="M338.8200 45.0200 A11.2500 11.2500 0.0 0 0 327.5700 33.7700" />
<path d="M219.4850 33.7800
L197.3700 33.7700
" />
<path d="M327.5700 169.9900 A11.2500 11.2500 0.0 0 0 338.8200 158.7400" />
<path d="M219.8350 34.1200
L219.8712 51.8100
" />
<path d="M254.1850 33.7775
L327.5700 33.7700
" />
<path d="M186.1200 158.7400 A11.2500 11.2500 0.0 0 0 197.3700 169.9900" />
<path d="M219.8713 51.8100 A0.3500 0.3500 0.0 0 0 220.2212 52.1600" />
<path d="M219.8350 34.1300 A0.3500 0.3500 0.0 0 0 219.4850 33.7800" />
<path d="M253.5188 52.1600
L220.2212 52.1600
" />
<g >
</g>
<g >
</g>
<g >
</g>
<g >
</g>
<g >
</g>
<g >
</g>
<g >
</g>
<g >
</g>
<g >
</g>
<g >
</g>
<g >
</g>
<g >
</g>
<g >
</g>
<g >
</g>
<g >
</g>
<g >
</g>
<g >
</g>
<g >
</g>
<g >
</g>
<g >
</g>
<g >
</g>
<g >
</g>
<g >
</g>
<g >
</g>
<g >
</g>
<g >
</g>
<g >
</g>
<g >
</g>
<g >
</g>
<g >
</g>
<g >
</g>
<g >
</g>
<g >
</g>
<g >
</g>
<g >
</g>
<g >
</g>
<g >
</g>
<g >
</g>
<g >
</g>
<g >
</g>
<g >
</g>
<g >
</g>
<g >
</g>
<g >
</g>
<g >
</g>
<g >
</g>
<g >
</g>
<g >
</g>
<g >
</g>
<g >
</g>
<g >
</g>
<g >
</g>
<g >
</g>
<g >
</g>
<g >
</g>
<g >
</g>
<g >
</g>
<g >
</g>
<g >
</g>
<g >
</g>
<g >
</g>
<g >
</g>
<g >
</g>
<g >
</g>
<g >
</g>
<g >
</g>
<g >
</g>
<g >
</g>
<g >
</g>
<g >
</g>
</g> 
</svg>
